<svg width="40" height="40" viewBox="0 0 40 40" fill="none" xmlns="http://www.w3.org/2000/svg">
<circle cx="20" cy="20" r="19.5" fill="#D0D0D0" fill-opacity="0.63" stroke="#22654D"/>
<path d="M19.5475 16.725L12.91 23.6913C12.7992 23.8075 12.7374 23.9619 12.7374 24.1225C12.7374 24.2831 12.7992 24.4375 12.91 24.5538L12.9175 24.5613C12.9712 24.6178 13.0359 24.6628 13.1075 24.6936C13.1792 24.7244 13.2564 24.7402 13.3344 24.7402C13.4124 24.7402 13.4895 24.7244 13.5612 24.6936C13.6329 24.6628 13.6975 24.6178 13.7512 24.5613L20.0012 18.0013L26.2487 24.5613C26.3025 24.6178 26.3671 24.6628 26.4388 24.6936C26.5104 24.7244 26.5876 24.7402 26.6656 24.7402C26.7436 24.7402 26.8208 24.7244 26.8924 24.6936C26.9641 24.6628 27.0288 24.6178 27.0825 24.5613L27.09 24.5538C27.2008 24.4375 27.2626 24.2831 27.2626 24.1225C27.2626 23.9619 27.2008 23.8075 27.09 23.6913L20.4525 16.725C20.3941 16.6637 20.3239 16.615 20.2461 16.5816C20.1683 16.5483 20.0846 16.5311 20 16.5311C19.9154 16.5311 19.8316 16.5483 19.7538 16.5816C19.6761 16.615 19.6059 16.6637 19.5475 16.725Z" fill="#22654D"/>
</svg>
