<svg width="152" height="179" viewBox="0 0 152 179" fill="none" xmlns="http://www.w3.org/2000/svg">
<mask id="mask0_220_2158" style="mask-type:alpha" maskUnits="userSpaceOnUse" x="0" y="0" width="152" height="179">
<rect width="152" height="179" rx="3" fill="#D9D9D9"/>
</mask>
<g mask="url(#mask0_220_2158)">
<path d="M136 31C108.354 47.6963 85.1563 70.8323 68.387 98.4344C52.5971 123.933 42.9279 150.746 39.3794 178.872H58.9917C63.6602 149.336 75.2035 121.31 92.691 97.0531C99.664 87.4752 107.457 78.5224 115.983 70.296V121.5H96.0014C92.4329 127.485 89.4995 133.827 87.2491 140.422H115.983V178.872H136V31ZM51.2039 96.6839C49.8478 90.8755 47.6706 85.2901 44.7379 80.0962C39.3873 71.0224 31.3693 64.0563 20.684 59.1979V178.872H0V31C10.6933 31 22.8631 35.5012 36.5096 44.5035C50.156 53.5059 60.5873 64.9137 65.4934 75.9523C60.635 81.811 54.1809 90.3965 51.2039 96.6839Z" fill="white" fill-opacity="0.24"/>
<path d="M54.7286 51.2075C52.5548 53.0534 50.8596 55.3975 49.7875 58.04C48.7153 60.6825 48.298 63.5451 48.5712 66.3837C48.8609 69.1244 49.7061 72.2514 47.9796 74.3884C46.2531 76.5254 42.8001 76.5616 41.1581 78.7469C39.2384 81.3185 41.0132 85.0129 40.3854 88.1641C40.0468 89.6383 39.1931 90.9433 37.978 91.8441C36.7629 92.7449 35.2661 93.1825 33.7571 93.0779C37.3731 95.8558 41.6836 97.585 46.2168 98.0763L49.525 93.5609C48.9709 94.4102 48.7163 95.4203 48.8016 96.4308C48.8869 97.4413 49.3072 98.3944 49.9958 99.1388C51.4143 100.602 53.2327 101.614 55.2236 102.048C59.8979 103.347 64.8091 103.548 69.5738 102.635C74.3384 101.721 78.8275 99.7193 82.6905 96.7845" fill="#263238"/>
<path d="M107.067 74.0261C106.133 72.0189 105.307 69.9636 104.592 67.8687C103.457 63.2325 105.582 57.9202 103.203 53.7911C101.513 50.8573 98.0357 49.493 94.7518 48.5875C91.4678 47.682 88.0028 46.9334 85.5157 44.6516C83.7047 42.9251 82.618 40.5466 80.807 38.8443C78.2113 36.4296 74.4685 35.6811 70.931 35.5724C67.278 35.3256 63.623 36.0241 60.3185 37.6007C58.6737 38.4127 57.2436 39.6012 56.1443 41.0696C55.0451 42.5381 54.3077 44.2451 53.9921 46.0521C53.7627 47.8148 53.9921 49.6741 53.5212 51.3402C53.0504 53.0063 51.5533 54.6966 50.7081 56.4593C49.854 58.3437 49.6503 60.4584 50.1289 62.4712C50.6075 64.484 51.7413 66.2807 53.3522 67.5789L79.2013 98.9817C84.5015 100.805 97.1302 98.0521 101.066 94.0679C105.002 90.0836 108.962 79.3021 107.067 74.0261Z" fill="#263238"/>
<path d="M53.8955 63.4136C54.7286 56.061 60.0288 47.2595 67.3332 48.3944L89.9707 55.3003C91.036 55.4698 91.999 56.0326 92.6696 56.8775C93.3402 57.7225 93.6696 58.7881 93.5927 59.8641L88.534 112.987C88.534 112.987 90.2243 114.303 91.2988 113.856C91.359 113.828 91.4267 113.821 91.4914 113.836C91.5562 113.85 91.6144 113.885 91.657 113.936C91.6996 113.987 91.7242 114.051 91.7271 114.117C91.7301 114.183 91.7111 114.248 91.6731 114.303C89.0652 118.299 76.8349 135.745 63.5904 130.892C60.6325 129.817 63.5904 120.497 63.1679 117.092L63.3007 108.351C63.4697 103.896 63.5542 102.06 63.5542 102.109C63.5542 102.157 54.2215 100.08 52.8693 87.7173C52.1932 81.5599 52.9779 71.5632 53.8955 63.4136Z" fill="#FFBF9D"/>
<path d="M57.0104 74.5815C56.987 74.9933 57.1253 75.398 57.396 75.7092C57.6666 76.0204 58.0482 76.2136 58.4592 76.2476C58.6586 76.2728 58.8609 76.258 59.0544 76.2039C59.2479 76.1499 59.4287 76.0578 59.5861 75.9329C59.7436 75.8081 59.8745 75.6531 59.9712 75.477C60.068 75.3009 60.1286 75.1073 60.1495 74.9075C60.1731 74.4976 60.0364 74.0946 59.7683 73.7837C59.5002 73.4728 59.1217 73.2783 58.7128 73.2413C58.5128 73.2161 58.3097 73.2309 58.1155 73.2848C57.9213 73.3387 57.7397 73.4306 57.5813 73.5553C57.4229 73.68 57.2908 73.8349 57.1928 74.0111C57.0948 74.1873 57.0328 74.3812 57.0104 74.5815Z" fill="#263238"/>
<path d="M72.6454 75.1008C72.6182 75.5057 72.7489 75.9054 73.01 76.216C73.2711 76.5267 73.6424 76.7241 74.046 76.7669C74.2453 76.7921 74.4476 76.7772 74.6411 76.7232C74.8347 76.6692 75.0154 76.577 75.1729 76.4522C75.3303 76.3274 75.4612 76.1724 75.558 75.9963C75.6547 75.8202 75.7153 75.6266 75.7362 75.4267C75.7598 75.0169 75.6231 74.6139 75.355 74.3029C75.0869 73.992 74.7084 73.7975 74.2995 73.7606C74.1024 73.7372 73.9027 73.7535 73.712 73.8086C73.5214 73.8637 73.3437 73.9565 73.1895 74.0814C73.0353 74.2064 72.9077 74.3609 72.8143 74.536C72.7208 74.7111 72.6634 74.9031 72.6454 75.1008Z" fill="#263238"/>
<path d="M55.0666 69.4504C55.2477 69.7401 56.6845 68.7742 58.5196 68.9916C60.3548 69.2089 61.5621 70.4283 61.8036 70.1989C62.045 69.9695 61.8036 69.5952 61.2361 68.9916C60.5491 68.2719 59.6296 67.8185 58.6403 67.7118C57.659 67.6105 56.673 67.8538 55.8514 68.4C55.2236 68.8829 54.9821 69.3296 55.0666 69.4504Z" fill="#263238"/>
<path d="M71.5347 70.3438C71.7641 70.6094 73.1767 69.5228 75.1567 69.547C77.1367 69.5711 78.5493 70.6456 78.7787 70.3921C79.0081 70.1385 78.6701 69.8126 78.0422 69.3176C77.2174 68.6757 76.2019 68.3273 75.1567 68.3275C74.1184 68.3102 73.1051 68.6466 72.2832 69.2813C71.6313 69.7763 71.426 70.2351 71.5347 70.3438Z" fill="#263238"/>
<path d="M65.6912 82.079C64.817 81.7499 63.9039 81.5348 62.9747 81.4391C62.54 81.4391 62.1295 81.2701 62.0692 80.9804C62.0566 80.5285 62.1784 80.0831 62.4193 79.7006L63.8681 76.477C65.8723 71.865 67.3452 68.0256 67.1521 68.0256C66.9589 68.0256 65.1962 71.6476 63.192 76.2114C62.7091 77.3463 62.2382 78.4329 61.8036 79.4712C61.5022 79.9753 61.3949 80.5719 61.5017 81.1494C61.5546 81.3066 61.6431 81.4495 61.7604 81.5668C61.8777 81.6841 62.0206 81.7726 62.1778 81.8255C62.4131 81.8985 62.6563 81.9431 62.9022 81.9583C63.8228 82.1183 64.7602 82.1589 65.6912 82.079Z" fill="#263238"/>
<path d="M63.5542 102.109C69.3361 102.467 75.104 101.213 80.2154 98.4867C80.2154 98.4867 75.6638 106.938 63.4214 105.163L63.5542 102.109Z" fill="#FF9A6C"/>
<path d="M70.9914 86.9085C70.7843 86.5035 70.4767 86.1584 70.098 85.9064C69.6358 85.6952 69.1132 85.6567 68.625 85.7978C67.9042 85.9312 67.2445 86.2907 66.7416 86.824C66.4976 87.0967 66.3301 87.429 66.2558 87.7874C66.1816 88.1457 66.2034 88.5172 66.319 88.8644C66.5242 89.5646 67.5263 89.9268 68.3111 90.0717C69.0578 90.1293 69.8021 89.9336 70.4239 89.5164C70.6954 89.3832 70.9306 89.1862 71.1093 88.9423C71.288 88.6984 71.405 88.4148 71.4502 88.1158C71.4181 87.6773 71.2586 87.2577 70.9914 86.9085Z" fill="#FF9A6C"/>
<path d="M70.5809 84.4938C70.3032 84.4938 70.2066 86.3048 68.5767 87.5363C66.9468 88.7677 64.9547 88.4659 64.9547 88.7436C64.9547 89.0213 65.3652 89.1179 66.1621 89.1903C67.2522 89.2647 68.3337 88.9526 69.2166 88.309C70.0623 87.6799 70.6262 86.7429 70.7861 85.7011C70.8948 84.9888 70.7016 84.4938 70.5809 84.4938Z" fill="#263238"/>
<path d="M71.4985 63.7276C71.6434 64.1984 73.3457 64.0535 75.3257 64.3916C77.3058 64.7296 78.8753 65.3454 79.1651 64.947C79.2979 64.7538 79.0323 64.3071 78.4044 63.8362C77.5736 63.2315 76.6082 62.8379 75.5913 62.6892C74.5823 62.5198 73.5474 62.5943 72.573 62.9066C71.8245 63.1601 71.4381 63.5102 71.4985 63.7276Z" fill="#263238"/>
<path d="M55.9359 63.2446C56.2498 63.643 57.602 63.305 59.2078 63.3653C60.8135 63.4257 62.1658 63.7637 62.4917 63.3653C62.6366 63.1842 62.4917 62.7858 61.876 62.3874C61.0811 61.8962 60.1664 61.633 59.2319 61.6268C58.3063 61.5859 57.3884 61.8123 56.5879 62.2787C55.9359 62.653 55.791 63.0393 55.9359 63.2446Z" fill="#263238"/>
<path d="M94.9812 56.9181C93.6164 55.3176 91.7836 54.1858 89.7413 53.6825C81.2904 50.6854 72.5109 48.7114 63.5904 47.8027C62.54 49.65 63.5904 52.1009 65.329 53.3806C67.1559 54.4861 69.1436 55.3007 71.2208 55.7953C73.237 56.4835 75.3137 57.5822 76.195 59.526C77.0764 61.4698 76.4606 64.0897 77.2816 66.2025C78.7183 69.8246 83.8616 70.8629 85.2742 74.509C86.3366 77.2617 84.8033 80.268 84.4894 83.2018C84.3262 84.6936 84.4827 86.2031 84.9486 87.6297C85.4144 89.0563 86.1788 90.3672 87.1909 91.4753C88.2029 92.5833 89.4395 93.463 90.8182 94.0558C92.1968 94.6485 93.686 94.9408 95.1864 94.913C95.4842 84.3609 95.7901 73.8128 96.104 63.2687C96.2127 61.0955 96.2247 58.7291 94.9812 56.9181Z" fill="#263238"/>
<path d="M116.943 82.9241C115.24 81.4753 113.115 80.2438 112.403 78.0948C111.341 75.0161 113.731 71.2975 112.053 68.5206C110.508 65.9731 106.197 66.2267 104.809 63.6309C103.686 61.6026 104.809 59.7433 104.398 57.9564C103.996 56.9872 103.293 56.1724 102.394 55.6314C101.494 55.0904 100.445 54.8517 99.4 54.9501L85.6122 76.1993C84.4773 83.226 83.1976 86.9808 84.8516 91.0374C85.9221 93.1851 86.7521 95.4445 87.3267 97.7744C87.713 100.189 87.1939 102.833 85.2863 104.282C93.9066 104.717 101.839 99.9838 109.167 95.42L116.918 90.5907C117.764 90.1531 118.49 89.5147 119.031 88.7314C120.118 86.7876 118.657 84.3608 116.943 82.9241Z" fill="#263238"/>
<path d="M109.312 93.3072C109.014 93.4069 108.707 93.4757 108.395 93.5125C107.502 93.6321 106.595 93.5953 105.714 93.4038C104.305 93.1027 102.996 92.446 101.911 91.4962C100.49 90.1982 99.5715 88.4415 99.3155 86.5341C99.1671 85.4493 99.2327 84.3459 99.5087 83.2863C99.8572 82.1443 100.361 81.0556 101.006 80.0507C101.686 79.0096 102.211 77.8748 102.563 76.6822C102.744 76.0743 102.787 75.4337 102.689 74.8071C102.591 74.1805 102.354 73.5837 101.996 73.0602C101.187 72.034 99.726 71.8529 98.3738 71.3096C97.6303 71.0719 96.9745 70.6179 96.4903 70.0056C96.0096 69.3343 95.7597 68.5251 95.778 67.6996C95.9221 66.1759 96.205 64.6685 96.6232 63.1963C96.792 62.4735 96.792 61.7216 96.6232 60.9989C96.4176 60.2914 95.9574 59.6849 95.3313 59.2966C93.9912 58.5604 92.4766 58.2015 90.9487 58.2582C89.3826 58.2321 87.8476 57.8172 86.4815 57.0509C85.1681 56.288 84.0871 55.182 83.3545 53.8515C82.7448 52.5571 82.3376 51.1767 82.1472 49.7586C81.9651 48.4489 81.6454 47.162 81.1934 45.9193C80.716 44.7821 79.9996 43.7609 79.0926 42.9251C77.5765 41.5497 75.6626 40.6917 73.6271 40.4747C71.5916 40.2577 69.5398 40.693 67.7678 41.7177C66.5422 42.3919 65.4465 43.279 64.5321 44.3377C63.7576 45.2526 63.0968 46.258 62.5642 47.3319C62.5642 47.3319 62.5642 47.2473 62.6366 47.1025C62.7091 46.9576 62.7815 46.7403 62.9143 46.4626C63.3135 45.6465 63.8079 44.8805 64.3873 44.1807C65.2982 43.0766 66.4029 42.1478 67.6471 41.44C69.4767 40.365 71.6018 39.9023 73.7127 40.1194C75.8236 40.3366 77.81 41.2223 79.3824 42.6474C80.3443 43.5159 81.1064 44.5828 81.616 45.7744C82.0865 47.0436 82.4224 48.3588 82.618 49.6982C82.8149 51.0685 83.2222 52.4002 83.8254 53.6462C84.5225 54.8965 85.5445 55.9352 86.7834 56.6525C88.0833 57.3747 89.5461 57.7529 91.0332 57.7512C92.6505 57.7102 94.25 58.0975 95.6694 58.874C96.3815 59.3392 96.9072 60.0401 97.1544 60.854C97.3389 61.6483 97.3389 62.4744 97.1544 63.2687C96.7376 64.7126 96.4547 66.1918 96.3092 67.6875C96.2828 68.3818 96.4773 69.0666 96.8646 69.6434C97.2851 70.1812 97.857 70.5807 98.5066 70.7904C99.1586 71.0439 99.8588 71.213 100.535 71.4786C101.235 71.706 101.858 72.1241 102.334 72.6859C102.745 73.2649 103.021 73.9292 103.14 74.6295C103.259 75.3298 103.219 76.048 103.022 76.7305C102.652 77.9592 102.102 79.1267 101.392 80.1956C100.758 81.1581 100.247 82.1965 99.8709 83.2863C99.5945 84.3128 99.5248 85.3839 99.6656 86.4375C99.88 88.2804 100.735 89.9896 102.08 91.2668C103.105 92.2036 104.352 92.8642 105.702 93.1865C106.886 93.4668 108.113 93.5079 109.312 93.3072Z" fill="#455A64"/>
<path d="M29.8816 85.8701C29.6567 86.6078 29.6908 87.4002 29.9782 88.1158C30.1311 88.5251 30.3728 88.8955 30.6859 89.2003C30.9991 89.5051 31.3758 89.7367 31.7892 89.8785C32.3474 90.0277 32.9364 90.0175 33.4891 89.8489C34.0418 89.6803 34.5362 89.3601 34.9162 88.9247C35.3509 88.4157 35.5943 87.7709 35.6044 87.1016C35.6088 86.3637 35.4778 85.6312 35.218 84.9405C34.723 83.4917 33.7451 81.9342 33.8296 80.0387C33.8667 79.0713 34.1062 78.1224 34.5325 77.2532C34.9588 76.384 35.5624 75.6137 36.3046 74.992C37.0821 74.3313 37.9799 73.8271 38.9487 73.507C39.9355 73.1987 40.9582 73.0201 41.9912 72.9758C42.9908 72.9366 43.9848 72.8073 44.9612 72.5894C45.8713 72.3679 46.6746 71.8338 47.231 71.0803C47.7222 70.3121 47.9859 69.4205 47.9916 68.5086C48.0235 67.6179 47.9259 66.7273 47.7019 65.8646C47.1853 64.24 46.877 62.5564 46.7843 60.8541C46.822 59.3378 47.3188 57.8686 48.2089 56.6405C48.957 55.6698 49.883 54.8503 50.9375 54.2259C51.7073 53.7437 52.4416 53.207 53.1349 52.6201C53.7193 52.073 54.191 51.4167 54.5233 50.6884V50.8453C54.4787 50.9889 54.4263 51.13 54.3664 51.2679C54.1135 51.8006 53.7611 52.2801 53.3281 52.6805C52.638 53.3217 51.8948 53.9033 51.1066 54.419C50.1007 55.0582 49.2209 55.8767 48.5108 56.8337C47.6904 58.0158 47.2407 59.4154 47.2189 60.8541C47.328 62.5169 47.6443 64.1595 48.1607 65.7438C48.3987 66.6497 48.5084 67.5844 48.4866 68.5207C48.4776 69.5217 48.189 70.5002 47.6536 71.3459C47.0277 72.2107 46.1099 72.8197 45.0699 73.0603C44.0672 73.2965 43.0445 73.4379 42.0153 73.4829C41.0195 73.515 40.0327 73.6815 39.0815 73.9779C38.1833 74.288 37.3488 74.7584 36.6185 75.3663C35.9271 75.9434 35.363 76.6577 34.9619 77.4641C34.5608 78.2704 34.3315 79.1512 34.2884 80.0508C34.1918 81.7893 35.0973 83.2864 35.6044 84.8077C35.8799 85.5486 36.011 86.3355 35.9907 87.1258C35.967 87.8794 35.6809 88.6011 35.1818 89.1662C34.7531 89.6401 34.1993 89.9833 33.5842 90.1564C32.969 90.3294 32.3175 90.3251 31.7047 90.1441C30.974 89.8745 30.3635 89.3532 29.9829 88.6738C29.6023 87.9944 29.4764 87.2015 29.628 86.4376C29.6745 86.2336 29.7606 86.0408 29.8816 85.8701Z" fill="#263238"/>
<path opacity="0.5" d="M83.5115 42.2369C83.5115 42.2369 84.0186 42.8285 85.1293 44.2652C86.5709 45.6652 88.2959 46.7397 90.188 47.4163C91.2867 47.851 95.609 48.8772 97.4321 49.5171C99.1533 50.2169 100.711 51.2651 102.008 52.5958C103.759 54.0808 103.964 55.8073 104.423 57.2561C104.881 58.7049 104.241 60.3107 104.278 61.6388C104.371 62.8049 104.79 63.9216 105.485 64.8624C106.234 66.2387 109.723 66.8545 111.28 67.8203C112.838 68.7862 112.56 70.6938 112.632 71.5631C112.564 72.7151 112.415 73.8609 112.186 74.9919C112.084 75.7451 112.084 76.5085 112.186 77.2617C112.325 78.0909 112.656 78.8763 113.152 79.5556C113.872 80.4007 114.682 81.1657 115.566 81.8375L117.088 83.0448C118.79 84.4937 120.118 86.7634 119.019 88.7073C118.475 89.4911 117.75 90.1329 116.906 90.5786C116.906 90.5786 113.429 89.1781 110.87 83.9986C109.493 81.1614 108.878 78.1189 108.841 73.193C108.841 68.8949 104.097 69.1243 102.43 65.949C99.4604 60.2866 102.225 57.6183 98.4583 54.8777C94.0757 51.6903 92.313 55.3123 84.8878 48.0562C79.3099 42.5991 78.6942 39.8584 71.8486 37.5645C64.7012 35.1498 56.9742 39.9791 56.9742 39.9791C57.9402 39.0073 59.0523 38.1925 60.2702 37.5645C63.5937 35.9963 67.2662 35.3142 70.931 35.5844C74.4685 35.7052 78.175 36.4417 80.807 38.8684C81.3571 39.401 81.8619 39.9785 82.3162 40.5949L82.5818 40.945" fill="white"/>
<path opacity="0.5" d="M49.8992 76.7668C47.4845 79.7851 44.0799 80.0266 44.0799 84.4937C44.0799 88.9609 40.0232 94.901 40.0232 94.901V96.5671C37.7784 95.7097 35.6682 94.5346 33.7571 93.0779C35.2718 93.1753 36.7715 92.729 37.9866 91.8194C39.2016 90.9098 40.0522 89.5965 40.3854 88.1157C41.0132 84.9646 39.1781 81.2701 41.1581 78.6985C42.8001 76.5132 46.2772 76.477 47.9796 74.3521C49.6819 72.2272 48.8609 69.0881 48.5712 66.3474C48.1261 61.6982 49.5316 57.0609 52.4829 53.441C52.4869 53.413 52.4869 53.3845 52.4829 53.3565C52.0724 53.6946 51.6016 54.0326 51.0703 54.3948C50.0645 55.034 49.1847 55.8524 48.4746 56.8095C47.6542 57.9916 47.2045 59.3912 47.1827 60.8299C47.2929 62.4965 47.6092 64.143 48.1244 65.7317C48.3633 66.6333 48.473 67.5641 48.4504 68.4965C48.4413 69.4974 48.1528 70.4759 47.6174 71.3217C47.0066 72.1929 46.1021 72.8145 45.0699 73.0723C44.0672 73.3085 43.0445 73.4499 42.0153 73.4949C41.0195 73.527 40.0327 73.6935 39.0815 73.9899C38.1833 74.3 37.3488 74.7704 36.6185 75.3783C35.9271 75.9554 35.363 76.6697 34.9619 77.4761C34.5608 78.2824 34.3315 79.1632 34.2884 80.0628C34.1918 81.8014 35.0973 83.2985 35.6044 84.8197C35.8799 85.5607 36.011 86.3475 35.9907 87.1378C35.9691 87.8918 35.6827 88.6142 35.1818 89.1782C34.7531 89.6521 34.1993 89.9954 33.5842 90.1684C32.969 90.3414 32.3175 90.3371 31.7047 90.1561C30.974 89.8865 30.3635 89.3652 29.9829 88.6858C29.6023 88.0064 29.4764 87.2135 29.628 86.4496C29.6706 86.2485 29.7482 86.0564 29.8574 85.8822C29.6431 86.6188 29.6856 87.4065 29.9782 88.1157C30.1296 88.5273 30.3706 88.9001 30.6838 89.207C30.9971 89.514 31.3746 89.7474 31.7892 89.8905C32.3474 90.0397 32.9364 90.0295 33.4891 89.8609C34.0418 89.6923 34.5362 89.3721 34.9162 88.9367C35.3527 88.4288 35.5964 87.7833 35.6044 87.1136C35.6088 86.3757 35.4778 85.6432 35.218 84.9525C34.723 83.5037 33.7451 81.9462 33.8296 80.0507C33.8667 79.0833 34.1062 78.1344 34.5325 77.2652C34.9588 76.396 35.5624 75.6257 36.3046 75.0041C37.0851 74.3477 37.9821 73.844 38.9487 73.519C39.9355 73.2107 40.9582 73.0321 41.9912 72.9878C42.9913 72.9546 43.9859 72.8252 44.9612 72.6015C45.8713 72.3799 46.6746 71.8458 47.231 71.0923C47.7222 70.3241 47.9859 69.4325 47.9916 68.5207C48.0235 67.6299 47.9259 66.7393 47.7019 65.8766C47.1853 64.252 46.877 62.5684 46.7843 60.8661C46.822 59.3498 47.3188 57.8806 48.2089 56.6525C48.957 55.6818 49.883 54.8624 50.9375 54.2379C51.5873 53.8229 52.2159 53.3756 52.821 52.8977C53.1132 52.3901 53.3481 51.8515 53.5212 51.292C54.0283 49.5896 53.7627 47.7665 53.9921 46.0038C54.3394 43.7537 55.402 41.6751 57.0225 40.0758C55.0425 44.2653 53.7989 49.0946 54.5233 52.7408C54.9097 54.7208 51.3239 56.5197 50.9013 61.6388C50.4787 66.7579 51.022 75.2576 49.8992 76.7668Z" fill="white"/>
<path d="M53.9559 46.366C53.9559 46.366 54.0283 45.6899 54.4026 44.5309C54.9389 42.9003 55.8822 41.4335 57.1432 40.269C59.0822 38.6217 61.3379 37.389 63.7715 36.647C66.7251 35.643 69.8796 35.3777 72.9594 35.8743C76.0509 36.3849 78.9372 37.7528 81.29 39.8223C82.295 40.7026 83.1727 41.7184 83.8978 42.8406C84.5397 43.8893 85.3564 44.8203 86.3125 45.5933C87.737 46.6389 89.3533 47.3937 91.0694 47.8148C91.6731 47.9597 92.1439 48.0322 92.4699 48.0805C92.6342 48.1018 92.8006 48.1018 92.9649 48.0805C92.9649 48.0805 92.3009 47.9235 91.1418 47.5492C89.4929 47.0705 87.946 46.293 86.5781 45.2553C85.6874 44.4852 84.9324 43.571 84.3445 42.5508C83.5982 41.3623 82.6923 40.2817 81.6522 39.3393C79.2351 37.1912 76.2587 35.7721 73.068 35.2465C69.8878 34.7335 66.6297 35.0241 63.5904 36.0916C61.0897 36.8804 58.7879 38.1981 56.8414 39.9551C55.5544 41.182 54.6311 42.7403 54.1732 44.4584C54.0511 44.9171 53.9703 45.3858 53.9317 45.8589C53.9197 46.197 53.9317 46.366 53.9559 46.366Z" fill="white"/>
<path d="M40.0594 89.2144C40.0594 89.2144 40.156 89.0936 40.2647 88.8401C40.4237 88.453 40.5332 88.0473 40.5907 87.6328C40.7465 86.172 40.7465 84.6988 40.5907 83.2381C40.5238 82.2553 40.5929 81.2681 40.7959 80.3042C41.0807 79.2383 41.7635 78.3223 42.7035 77.7447C43.7905 77.1089 44.9154 76.5404 46.072 76.0423C47.4152 75.4933 48.5369 74.5118 49.2593 73.2534C49.7668 71.897 49.8427 70.4169 49.4767 69.0156C49.1987 67.7849 49.025 66.5329 48.9575 65.2729C48.8837 63.1372 49.2155 61.0068 49.9354 58.9947C50.6371 57.1436 51.5745 55.3906 52.7244 53.7791C52.7244 53.7791 52.6037 53.8636 52.4105 54.0688C52.134 54.354 51.8759 54.6564 51.6378 54.9743C50.7542 56.1576 50.039 57.4579 49.5129 58.8378C48.721 60.8932 48.3356 63.0827 48.378 65.285C48.4287 66.5762 48.5903 67.8607 48.8609 69.1243C49.1997 70.3993 49.1407 71.7473 48.6919 72.9878C48.0246 74.1175 47.0074 74.9991 45.7943 75.499C44.6194 76.0334 43.4819 76.6465 42.3896 77.3342C41.3507 78.0028 40.6075 79.0441 40.313 80.2439C40.1221 81.2462 40.0733 82.2704 40.1681 83.2864C40.3522 84.7233 40.4128 86.1734 40.3492 87.6207C40.2405 88.659 39.9991 89.1902 40.0594 89.2144Z" fill="white"/>
<path d="M92.9528 48.1045C94.8162 48.449 96.6291 49.0249 98.3496 49.819C100.168 50.7379 101.722 52.1049 102.865 53.7911C103.526 54.7838 103.989 55.8948 104.229 57.063C104.397 58.3436 104.442 59.6373 104.362 60.9265C104.259 62.3147 104.606 63.6992 105.352 64.8744C106.223 65.8364 107.377 66.496 108.648 66.7579C109.681 67.001 110.646 67.4712 111.473 68.1343C112.128 68.7938 112.57 69.6351 112.741 70.5489C112.955 71.906 112.877 73.2932 112.512 74.6177C112.358 75.1092 112.253 75.6147 112.198 76.1268C112.442 75.6685 112.628 75.1819 112.753 74.678C113.225 73.3265 113.369 71.8826 113.176 70.4644C113.016 69.4542 112.548 68.5181 111.836 67.7841C110.959 67.0341 109.916 66.5042 108.793 66.2387C107.649 65.9895 106.611 65.3903 105.823 64.5243C105.153 63.4413 104.853 62.1706 104.966 60.9023C105.053 59.5724 105 58.237 104.809 56.9181C104.554 55.6785 104.057 54.5012 103.348 53.453C102.126 51.6968 100.459 50.2968 98.5187 49.3964C97.2387 48.7931 95.8753 48.3861 94.4741 48.1891C93.973 48.0936 93.4614 48.0652 92.9528 48.1045Z" fill="white"/>
<path d="M52.7244 83.1173C52.8237 82.6574 52.8683 82.1873 52.8572 81.7168C52.8572 80.6906 52.9659 79.4108 53.0383 77.9137C53.2073 74.7022 53.4729 70.2592 54.0042 65.3816C54.3064 61.2196 55.6788 57.2063 57.9884 53.7308C59.0332 52.3712 60.2508 51.1536 61.6104 50.1088C61.1789 50.2829 60.7728 50.5144 60.4031 50.7969C59.3506 51.5441 58.4148 52.4433 57.6262 53.4652C55.1498 56.953 53.6796 61.0544 53.3763 65.3212C52.8451 70.223 52.652 74.6781 52.5916 77.9137C52.5916 79.5195 52.5916 80.8234 52.5916 81.7289C52.5833 82.1953 52.6279 82.661 52.7244 83.1173Z" fill="white"/>
<path d="M18.2308 101.396C18.4646 103.329 18.9016 105.231 19.5347 107.071C19.9722 108.969 20.6117 110.815 21.4423 112.576C21.2035 110.641 20.7665 108.736 20.1384 106.89C19.7049 104.995 19.0652 103.152 18.2308 101.396Z" fill="white"/>
<path d="M18.4119 101.046L22.1305 113.373L23.5189 115.462C23.5189 115.462 24.5452 122.283 24.5452 123.732C24.5452 125.181 22.4323 132.691 22.4323 132.691L26.4044 139.572L14.6329 143.653C14.6329 143.653 11.687 137.387 10.8298 136.663C9.90964 135.481 9.36313 134.052 9.26027 132.558C9.09124 131.193 7.64244 123.128 7.64244 123.128C7.64244 123.128 2.81309 114.134 4.95007 113.76C5.49082 113.73 6.03323 113.758 6.56791 113.844C6.56791 113.844 9.47759 119.76 10.3107 119.881L11.518 119.241C11.518 119.241 9.39308 110.282 9.33271 108.616C9.27234 106.95 9.64662 105.791 10.9385 105.646C10.9385 105.646 11.8802 106.069 11.9526 106.491C12.0251 106.914 14.1017 116.899 14.6571 116.73C15.2124 116.561 14.983 115.655 14.983 115.655C14.983 115.655 12.17 103.582 12.3511 102.857C12.4277 102.396 12.6724 101.979 13.0379 101.687C13.4034 101.395 13.864 101.248 14.3311 101.276L16.5767 107.952C16.5767 107.952 15.6109 102.362 16.5767 101.408C16.801 101.156 17.1019 100.984 17.4333 100.918C17.7647 100.853 18.1084 100.898 18.4119 101.046Z" fill="#FFBF9D"/>
<path d="M15.0193 127.958C15.1159 127.958 15.0193 126.919 15.5384 125.278C16.1695 123.082 17.506 121.156 19.3415 119.796L19.5106 119.675V119.494C19.3295 118.601 19.1604 117.671 18.9673 116.717C18.0823 115.339 17.4753 113.801 17.1804 112.19C17.0869 111.644 17.1116 111.084 17.2528 110.548C17.3105 110.332 17.4268 110.137 17.5888 109.984C17.7508 109.83 17.9521 109.725 18.1704 109.679L17.9772 109.594C19.3174 110.971 20.4523 112.105 21.2491 112.89C21.6401 113.346 22.0862 113.752 22.5772 114.098C22.2597 113.599 21.8871 113.137 21.4664 112.721C20.73 111.876 19.6554 110.693 18.3515 109.268L18.267 109.184H18.1583C17.828 109.221 17.5162 109.356 17.2626 109.571C17.0089 109.786 16.8249 110.071 16.7337 110.391C16.5473 111.005 16.4978 111.652 16.5888 112.287C16.7573 113.609 17.1665 114.89 17.7962 116.066C17.9893 116.428 18.1825 116.778 18.3998 117.104V116.995C18.593 117.949 18.7741 118.879 18.9552 119.76L19.088 119.458C17.1544 120.906 15.7912 122.987 15.2366 125.338C15.0792 126.006 15.0022 126.691 15.0072 127.378C14.9589 127.668 14.9831 127.958 15.0193 127.958Z" fill="#FF9A6C"/>
<path d="M15.3573 118.058C12.6814 118.611 10.282 120.08 8.57209 122.211C9.73213 121.566 10.8529 120.852 11.9285 120.074C13.1081 119.466 14.2528 118.793 15.3573 118.058Z" fill="#FF9A6C"/>
<path d="M45.0699 130.542C45.0132 130.799 44.9849 131.062 44.9854 131.326C44.9854 131.906 44.925 132.654 44.8888 133.584C44.7922 135.54 44.768 138.413 44.8043 141.89C44.8043 148.905 45.4683 158.588 46.4704 169.237C47.4725 179.885 48.3538 189.532 48.6919 196.522C48.873 200.024 48.9817 202.849 49.0058 204.817C49.0058 205.734 49.0299 206.483 49.0782 207.062C49.0607 207.328 49.0607 207.594 49.0782 207.859C49.1116 207.595 49.1116 207.327 49.0782 207.062C49.0782 206.483 49.0782 205.734 49.0782 204.805C49.0782 202.849 49.0782 199.975 48.9575 196.498C48.7402 189.484 47.9313 179.825 46.9292 169.176C45.9271 158.528 45.251 148.881 45.082 141.878C44.9854 138.377 44.9491 135.54 44.9733 133.584C44.9733 132.654 44.9733 131.906 44.9733 131.326C45.034 131.069 45.0664 130.806 45.0699 130.542Z" fill="#263238"/>
<path d="M27.7446 135.793L32.7068 152.237L40.5303 122.259C40.9757 120.618 41.8125 119.109 42.9691 117.862C44.1256 116.615 45.5674 115.667 47.1706 115.1L54.1008 113.325L48.0641 173.004L46.4583 177.519C45.3394 180.253 43.2436 182.474 40.5786 183.749C33.4432 187.226 24.2071 183.87 22.0822 176.215L11.0954 140.888L27.7446 135.793Z" fill="#FF725E"/>
<path d="M101.09 131L97.589 198.816L53.2918 200.398L49.2352 204.756L48.8851 150.318L63.1799 111.188C65.1117 114.605 68.6371 115.679 72.8386 115.232C75.7121 114.931 80.9278 114.242 83.2217 112.492L89.1014 106.66L101.09 131Z" fill="white"/>
<path d="M89.2222 103.449L94.0515 108.834L117.619 117.382L105.256 187.045L116.918 213.534C118.151 216.324 119.188 219.196 120.021 222.13L127.483 248.221C127.483 248.221 100.704 259.823 94.6552 256.551C88.6064 253.279 81.1572 217.011 78.7304 209.139C76.3037 201.267 75.362 176.155 76.5572 163.55C77.7525 150.945 79.8653 132.34 81.0123 125.905C82.1593 119.47 89.2222 103.449 89.2222 103.449Z" fill="#FF725E"/>
<path d="M62.9747 106.226L59.7511 111.538L45.8064 115.486C45.8064 115.486 42.6552 134.079 42.7759 139.15C42.8967 144.221 46.6032 200.374 46.6756 203.018C46.7481 205.662 33.6485 246.156 34.6023 248.341C35.1576 249.549 41.146 249.682 44.8163 250.647C45.4082 250.798 46.0257 250.819 46.6265 250.709C47.2273 250.599 47.7972 250.36 48.2971 250.01C48.7971 249.659 49.2153 249.204 49.523 248.676C49.8308 248.149 50.0209 247.561 50.0803 246.953C51.0583 236.896 53.8472 213.534 53.6057 205.36C53.316 194.784 52.3984 169.14 54.1853 156.246C55.9721 143.351 63.0592 111.417 63.0592 111.417L62.9747 106.226Z" fill="#FF725E"/>
<path d="M52.8572 211.626C52.8708 211.538 52.8708 211.449 52.8572 211.361C52.8572 211.155 52.8572 210.902 52.8572 210.588C52.8572 209.864 52.7848 208.874 52.7244 207.63C52.5916 204.998 52.3984 201.279 52.169 196.764C51.6982 187.552 50.9617 174.827 50.3339 160.773C50.2614 159.011 50.189 157.272 50.1648 155.57C50.1407 153.867 50.2494 152.189 50.3218 150.535C50.4908 147.215 50.6719 144.015 50.8892 140.985C51.1066 137.955 51.3843 135.057 51.7585 132.389C52.1296 129.918 52.7485 127.491 53.6058 125.145C54.8639 121.733 56.315 118.395 57.9522 115.148L59.2923 112.504C59.4372 112.226 59.5579 111.997 59.6424 111.816C59.7269 111.635 59.7632 111.574 59.7511 111.574C59.739 111.574 59.7511 111.574 59.5941 111.792L59.1957 112.444C58.8577 113.035 58.3627 113.904 57.759 115.051C56.0284 118.266 54.5158 121.594 53.2315 125.012C52.33 127.375 51.6825 129.828 51.2997 132.328C50.8892 135.021 50.6116 137.906 50.3701 140.961C50.1286 144.015 49.9475 147.203 49.7664 150.511C49.694 152.165 49.5491 153.855 49.5974 155.594C49.6457 157.332 49.7061 159.047 49.7664 160.81C50.3942 174.875 51.1911 187.588 51.7706 196.8C52.0845 201.364 52.326 205.07 52.5071 207.666C52.6037 208.874 52.6882 209.9 52.7365 210.624C52.7365 210.938 52.7968 211.192 52.8089 211.397C52.8144 211.475 52.8307 211.552 52.8572 211.626Z" fill="#263238"/>
<path d="M78.3924 189.725C78.4585 189.452 78.4949 189.173 78.501 188.892C78.501 188.349 78.5855 187.54 78.6218 186.477C78.6942 184.401 78.7304 181.395 78.6218 177.676C78.5373 175.817 78.4044 173.788 78.1992 171.639C78.1255 169.34 78.3364 167.041 78.827 164.794C80.0287 159.619 81.5817 154.533 83.4753 149.569C85.4553 144.257 87.5078 139.271 89.4154 134.755C90.3895 132.634 91.2361 130.457 91.9508 128.236C92.4824 126.272 92.9056 124.281 93.2185 122.271C93.8221 118.649 94.124 115.607 94.3171 113.53C94.4137 112.492 94.4741 111.695 94.4982 111.116C94.5197 110.834 94.5197 110.552 94.4982 110.27C94.4217 110.542 94.3771 110.822 94.3654 111.103L94.0757 113.518C93.8221 115.583 93.4599 118.565 92.8683 122.211C92.5303 124.034 92.1439 126.026 91.5403 128.115C90.806 130.309 89.9515 132.462 88.9807 134.562C87.0369 139.077 84.9603 144.064 82.944 149.388C81.0412 154.375 79.4959 159.491 78.3199 164.697C77.8322 166.998 77.6334 169.35 77.7283 171.7C77.9577 173.873 78.1147 175.889 78.2233 177.736C78.4407 181.431 78.4527 184.437 78.4527 186.514C78.4527 187.504 78.4527 188.301 78.4527 188.928C78.4527 189.556 78.3803 189.725 78.3924 189.725Z" fill="#263238"/>
<path d="M42.9087 131.423C42.8677 131.662 42.8435 131.904 42.8363 132.147C42.8363 132.678 42.8363 133.355 42.7397 134.224C42.6552 136.035 42.6431 138.667 42.6673 141.903C42.6673 148.386 43.283 157.332 44.2127 167.172C45.1423 177.012 45.9512 185.91 46.2772 192.381C46.4462 195.617 46.5428 198.237 46.567 200.048V202.124C46.5485 202.366 46.5485 202.608 46.567 202.849C46.6135 202.61 46.6338 202.367 46.6273 202.124C46.6273 201.593 46.6273 200.917 46.6273 200.036C46.6273 198.225 46.6273 195.605 46.5187 192.369C46.3134 185.886 45.5649 176.964 44.6473 167.124C43.7297 157.284 43.1019 148.362 42.9329 141.89C42.8484 138.655 42.8122 136.047 42.8363 134.236C42.8363 133.367 42.8363 132.678 42.8363 132.147C42.8897 131.91 42.914 131.666 42.9087 131.423Z" fill="#263238"/>
<path d="M107.175 154.906C107.227 154.424 107.227 153.938 107.175 153.457C107.175 152.527 107.175 151.175 107.26 149.509C107.447 145.175 108.049 140.869 109.059 136.651C110.07 132.421 111.481 128.298 113.272 124.336C113.948 122.815 114.54 121.595 114.975 120.714C115.213 120.331 115.416 119.927 115.578 119.506C115.27 119.879 115.003 120.284 114.781 120.714C114.286 121.511 113.647 122.706 112.91 124.215C111.003 128.149 109.529 132.278 108.515 136.53C107.512 140.785 106.973 145.137 106.91 149.509C106.91 151.187 106.91 152.539 107.006 153.481C107.016 153.96 107.073 154.437 107.175 154.906Z" fill="#263238"/>
<path d="M107.03 155.509L117.619 117.382C117.619 117.382 123.849 124.698 125.756 131.87C128.98 143.919 136.538 182.892 136.091 190.739C135.644 198.587 131.443 243.283 131.443 243.283L111.473 239.262L113.586 188.325L107.03 155.509Z" fill="#FF725E"/>
<path d="M69.1079 171.615C68.4664 170.925 67.9368 170.139 67.5384 169.285C66.6506 167.178 65.9517 164.996 65.4497 162.765C64.9337 160.533 64.5906 158.265 64.4235 155.98C64.4124 155.027 64.3398 154.075 64.2062 153.131C64.038 154.075 63.9853 155.036 64.0492 155.992C64.1027 158.315 64.3981 160.625 64.9306 162.886C65.4418 165.153 66.203 167.356 67.2004 169.454C68.0093 171.084 69.0838 171.688 69.1079 171.615Z" fill="#263238"/>
<path opacity="0.5" d="M12.3269 102.906C12.4036 102.444 12.6482 102.027 13.0138 101.735C13.3793 101.443 13.8399 101.297 14.3069 101.324L16.5526 108.001C16.5526 108.001 15.5867 102.411 16.5526 101.457C16.7758 101.184 17.0854 100.996 17.4302 100.924C17.7749 100.851 18.134 100.899 18.4481 101.058L22.1305 113.385L22.2633 113.566C22.3579 113.67 22.4354 113.788 22.4927 113.917L23.5189 115.474C23.5189 115.474 24.5452 122.295 24.5452 123.744C24.5452 125.193 22.4323 132.703 22.4323 132.703L24.7504 136.711L27.7204 135.806L32.7067 152.249L40.5303 122.283C40.9109 120.894 41.5708 119.598 42.4696 118.473C43.3685 117.347 44.4875 116.418 45.7581 115.74V115.474L59.7511 111.526C59.7511 111.526 45.6252 116.814 43.3072 121.583C40.2405 127.958 36.7392 151.549 33.8416 154.217C30.944 156.886 26.4286 137.918 26.4286 137.918L19.8003 138.22L21.9614 121.776L21.3819 115.74L17.1321 109.522C17.1321 109.522 16.625 109.703 16.0334 109.027C15.4418 108.351 14.2104 102.725 13.7757 102.725C13.2891 102.75 12.8049 102.811 12.3269 102.906Z" fill="white"/>
<path opacity="0.5" d="M117.619 117.394C117.619 117.394 117.764 117.539 118.017 117.852C118.271 118.166 118.657 118.613 119.128 119.229C120.511 121.044 121.773 122.947 122.907 124.927C123.725 126.357 124.443 127.841 125.056 129.37C125.728 131.211 126.276 133.095 126.698 135.009C127.688 139.102 128.726 143.786 129.789 148.965C130.851 154.145 131.974 159.832 133.073 165.989C134.171 172.146 135.306 178.666 136.067 185.656C136.282 187.431 136.362 189.219 136.308 191.005C136.163 192.78 135.994 194.627 135.837 196.414C135.524 200.036 135.185 203.803 134.86 207.594C134.534 211.385 131.527 239.31 131.237 243.198L131.66 217.301C132.264 207.135 134.413 193.975 129.777 176.819C125.14 159.662 118.174 131.133 115.916 125.265C113.659 119.398 94.0395 108.846 94.0395 108.846L117.619 117.394Z" fill="white"/>
<path d="M40.2405 123.008C40.7293 121.443 41.4365 119.956 42.3413 118.589C43.3897 117.345 44.6091 116.255 45.9633 115.353C45.9633 115.281 45.3596 115.353 44.5386 115.836C43.464 116.437 42.5297 117.26 41.798 118.251C41.062 119.224 40.5433 120.344 40.2767 121.535C40.1323 122.014 40.1198 122.522 40.2405 123.008Z" fill="white"/>
<path d="M23.6759 114.556C24.0924 117.475 24.2701 120.423 24.2071 123.37C23.9242 126.304 23.391 129.208 22.6134 132.051C23.0933 131.309 23.4481 130.493 23.6638 129.636C24.966 125.585 25.2276 121.271 24.4244 117.092C24.3127 116.212 24.0599 115.356 23.6759 114.556Z" fill="white"/>
<path d="M94.0394 108.834C94.1419 108.895 94.2513 108.943 94.3654 108.978L95.3554 109.341L99.1344 110.705C102.418 111.912 107.175 113.578 113.019 115.764L115.252 116.609C116.011 116.888 116.752 117.211 117.474 117.575C118.746 118.778 119.876 120.123 120.842 121.583C122.978 124.84 124.606 128.402 125.672 132.147C126.247 134.169 126.715 136.221 127.072 138.293C127.475 140.418 127.877 142.583 128.28 144.788C129.125 149.195 130.006 153.759 130.899 158.443C132.626 167.8 134.413 176.71 135.886 184.811C136.405 188.665 136.405 192.572 135.886 196.426C135.524 200.048 135.185 203.477 134.884 206.58C134.292 212.761 133.809 217.784 133.471 221.297C133.314 222.999 133.193 224.34 133.109 225.305C133.109 225.74 133.109 226.078 133.036 226.344C133.02 226.464 133.02 226.586 133.036 226.706C133.053 226.59 133.053 226.472 133.036 226.356L133.205 225.317C133.314 224.364 133.471 223.024 133.676 221.321C134.063 217.808 134.606 212.797 135.294 206.628C135.62 203.525 135.982 200.12 136.369 196.474C136.93 192.573 136.963 188.613 136.465 184.703C135.029 176.541 133.254 167.667 131.479 158.298C130.573 153.626 129.704 149.062 128.847 144.655C128.428 142.442 128.026 140.277 127.64 138.16C127.283 136.066 126.807 133.994 126.215 131.954C125.141 128.163 123.492 124.56 121.325 121.269C120.326 119.781 119.159 118.411 117.848 117.188C117.069 116.786 116.262 116.439 115.433 116.15L113.188 115.317C107.32 113.192 102.527 111.574 99.2189 110.488L95.4037 109.28L94.4016 108.978C94.2908 108.909 94.168 108.859 94.0394 108.834Z" fill="white"/>
<path opacity="0.3" d="M108.998 165.929L101.09 185.125L111.244 200.64L105.256 187.045L108.998 165.929Z" fill="white"/>
<path d="M107.55 158.141C107.556 158.336 107.576 158.529 107.61 158.721C107.694 159.143 107.779 159.687 107.9 160.375C108.177 161.884 108.576 163.997 109.107 166.593C110.145 171.977 111.618 179.511 113.345 188.325V188.252C113.079 194.446 112.789 201.267 112.475 208.451C112.005 220.066 111.582 230.787 111.268 239.262V239.468H111.473L125.804 242.269L129.777 242.993L130.827 243.162C130.947 243.179 131.069 243.179 131.189 243.162L130.839 243.053L129.813 242.812L125.865 241.955L111.473 239.033L111.679 239.286C112.053 230.835 112.524 220.102 113.043 208.487C113.333 201.304 113.61 194.482 113.864 188.289C112.041 179.463 110.495 171.953 109.397 166.556C108.841 163.949 108.395 161.86 108.069 160.363C107.912 159.687 107.791 159.156 107.694 158.721C107.666 158.523 107.617 158.329 107.55 158.141Z" fill="#263238"/>
<path d="M32.3325 151.223C32.5577 152.172 32.8605 153.101 33.238 154C34.0101 156.202 34.6669 158.443 35.2059 160.713C35.8217 163.369 36.208 165.82 36.4133 167.607C36.4753 168.579 36.6166 169.544 36.8358 170.492C36.9706 169.519 36.9706 168.532 36.8358 167.559C36.6785 165.203 36.323 162.864 35.7734 160.568C35.2364 158.268 34.5136 156.015 33.6123 153.831C33.3043 152.909 32.8739 152.031 32.3325 151.223Z" fill="#263238"/>
<path d="M79.2805 124.487C75.8088 125.894 72.7289 128.119 70.3035 130.974C68.0287 133.606 66.431 136.5 65.5102 139.656L67.7564 140.015C68.8312 136.717 70.6658 133.719 73.1123 131.26C74.0861 130.291 75.1424 129.408 76.2693 128.622L75.3328 134.486L73.0443 134.121C72.5262 134.741 72.0742 135.414 71.6959 136.128L74.9868 136.653L74.2836 141.057L76.5762 141.423L79.2805 124.487ZM68.3675 130.459C68.3184 129.769 68.1712 129.09 67.9303 128.441C67.4834 127.304 66.6925 126.36 65.5576 125.608L63.369 139.314L61 138.936L63.7043 122C64.929 122.196 66.2405 122.934 67.6388 124.214C69.0371 125.495 70.0232 126.992 70.3832 128.346C69.7196 128.928 68.8234 129.794 68.3675 130.459Z" fill="#263238"/>
</g>
</svg>
