<svg width="739" height="366" viewBox="0 0 739 366" fill="none" xmlns="http://www.w3.org/2000/svg">
<path fill-rule="evenodd" clip-rule="evenodd" d="M592.269 -175.002L560 248.502L527.731 -175.002H592.269ZM560 248.502L707.929 -160.669L644.796 -170.822L560 248.502ZM560 248.502L758.176 -148.322L817.138 -128.458L560 248.502ZM560 248.502L1113.27 179.945L1120 228.519L560 248.502ZM560 248.502L862.847 -108.475L915.06 -79.7648L560 248.502ZM560 248.502L954.333 -53.023L997.523 -16.7336L560 248.502ZM560 248.502L1060.82 57.8925L1028.55 15.6077L560 248.502ZM560 248.502L644.796 667.826L707.929 657.645L560 248.502ZM560 248.502L1082.33 94.4081L1102.27 140.856L560 248.502ZM560 248.502L1102.27 356.143L1082.33 402.59L560 248.502ZM560 248.502L1119.98 268.507L1113.25 317.076L560 248.502ZM560 248.502L954.333 550.027L997.523 513.732L560 248.502ZM560 248.502L1060.83 439.106L1028.55 481.396L560 248.502ZM560 248.502L915.082 576.769L862.87 605.473L560 248.502ZM560 248.502L758.161 645.32L817.123 625.456L560 248.502ZM560 248.502L527.731 672H592.277L560 248.502ZM560 248.502L475.197 667.848L412.064 657.668L560 248.502ZM560 248.502L257.138 605.473L204.94 576.769L560 248.502ZM560 248.502L361.824 645.32L302.862 625.456L560 248.502ZM560 248.502L37.6737 402.59L17.7306 356.143L560 248.502ZM560 248.502L165.66 550.027L122.469 513.732L560 248.502ZM560 248.502L59.1791 439.111L91.4484 481.402L560 248.502ZM560 248.502L6.72745 179.945L0 228.519L560 248.502ZM560 248.502L6.72745 317.076L0 268.485L560 248.502ZM560 248.502L37.6737 94.4081L17.7306 140.856L560 248.502ZM560 248.502L361.832 -148.322L302.87 -128.458L560 248.502ZM475.197 -170.822L560 248.502L412.064 -160.641L475.197 -170.822ZM560 248.502L165.66 -53.023L122.469 -16.7336L560 248.502ZM560 248.502L257.138 -108.475L204.918 -79.7648L560 248.502ZM560 248.502L59.1567 57.8981L91.426 15.6077L560 248.502Z" fill="url(#paint0_linear_220_425)" fill-opacity="0.14"/>
<defs>
<linearGradient id="paint0_linear_220_425" x1="875.5" y1="294.63" x2="150.775" y2="164.812" gradientUnits="userSpaceOnUse">
<stop stop-color="#FFDE32" stop-opacity="0.56"/>
<stop offset="1" stop-color="#FFDE32" stop-opacity="0"/>
</linearGradient>
</defs>
</svg>
