<svg width="726" height="366" viewBox="0 0 726 366" fill="none" xmlns="http://www.w3.org/2000/svg">
<path fill-rule="evenodd" clip-rule="evenodd" d="M133.731 -175.002L166 248.502L198.269 -175.002H133.731ZM166 248.502L18.0709 -160.669L81.2043 -170.822L166 248.502ZM166 248.502L-32.1756 -148.322L-91.1379 -128.458L166 248.502ZM166 248.502L-387.273 179.945L-394 228.519L166 248.502ZM166 248.502L-136.847 -108.475L-189.06 -79.7648L166 248.502ZM166 248.502L-228.333 -53.023L-271.523 -16.7336L166 248.502ZM166 248.502L-334.821 57.8925L-302.552 15.6077L166 248.502ZM166 248.502L81.2043 667.826L18.0709 657.645L166 248.502ZM166 248.502L-356.326 94.4081L-376.27 140.856L166 248.502ZM166 248.502L-376.27 356.143L-356.326 402.59L166 248.502ZM166 248.502L-393.978 268.507L-387.25 317.076L166 248.502ZM166 248.502L-228.333 550.027L-271.523 513.732L166 248.502ZM166 248.502L-334.828 439.106L-302.552 481.396L166 248.502ZM166 248.502L-189.082 576.769L-136.87 605.473L166 248.502ZM166 248.502L-32.1606 645.32L-91.123 625.456L166 248.502ZM166 248.502L198.269 672H133.723L166 248.502ZM166 248.502L250.803 667.848L313.936 657.668L166 248.502ZM166 248.502L468.862 605.473L521.06 576.769L166 248.502ZM166 248.502L364.176 645.32L423.138 625.456L166 248.502ZM166 248.502L688.326 402.59L708.269 356.143L166 248.502ZM166 248.502L560.34 550.027L603.531 513.732L166 248.502ZM166 248.502L666.821 439.111L634.552 481.402L166 248.502ZM166 248.502L719.273 179.945L726 228.519L166 248.502ZM166 248.502L719.273 317.076L726 268.485L166 248.502ZM166 248.502L688.326 94.4081L708.269 140.856L166 248.502ZM166 248.502L364.168 -148.322L423.13 -128.458L166 248.502ZM250.803 -170.822L166 248.502L313.936 -160.641L250.803 -170.822ZM166 248.502L560.34 -53.023L603.531 -16.7336L166 248.502ZM166 248.502L468.862 -108.475L521.082 -79.7648L166 248.502ZM166 248.502L666.843 57.8981L634.574 15.6077L166 248.502Z" fill="url(#paint0_linear_12_5455)" fill-opacity="0.14"/>
<defs>
<linearGradient id="paint0_linear_12_5455" x1="-149.5" y1="294.63" x2="575.225" y2="164.812" gradientUnits="userSpaceOnUse">
<stop stop-color="#FFDE32" stop-opacity="0.56"/>
<stop offset="1" stop-color="#FFDE32" stop-opacity="0"/>
</linearGradient>
</defs>
</svg>
