<svg width="375" height="936" viewBox="0 0 375 936" fill="none" xmlns="http://www.w3.org/2000/svg">
<path fill-rule="evenodd" clip-rule="evenodd" d="M26.7 0L56.2159 515.504L85.7317 0H26.7ZM56.2159 515.504L-79.0905 17.446L-21.3443 5.08785L56.2159 515.504ZM56.2159 515.504L-125.05 32.4755L-178.981 56.6548L56.2159 515.504ZM56.2159 515.504L-449.846 432.054L-456 491.18L56.2159 515.504ZM56.2159 515.504L-220.79 80.9787L-268.547 115.926L56.2159 515.504ZM56.2159 515.504L-304.469 148.477L-343.974 192.65L56.2159 515.504ZM56.2159 515.504L-401.871 283.487L-372.355 232.017L56.2159 515.504ZM56.2159 515.504L-449.826 598.975L-455.979 539.856L56.2159 515.504ZM56.2159 515.504L-421.541 327.935L-439.782 384.473L56.2159 515.504ZM56.2159 515.504L-372.355 798.992L-401.877 747.514L56.2159 515.504ZM56.2159 515.504L-421.541 703.066L-439.782 646.528L56.2159 515.504ZM56.2159 515.504L-268.567 915.083L-220.81 950.023L56.2159 515.504ZM56.2159 515.504L-343.974 838.352L-304.469 882.531L56.2159 515.504ZM56.2159 515.504L-125.036 998.526L-178.967 974.347L56.2159 515.504ZM56.2159 515.504L-79.0905 1013.53L-21.3443 1025.92L56.2159 515.504ZM56.2159 515.504L85.7317 1031H26.6932L56.2159 515.504ZM56.2159 515.504L191.529 1013.56L133.783 1025.95L56.2159 515.504ZM56.2159 515.504L514.302 747.521L484.786 798.999L56.2159 515.504ZM56.2159 515.504L237.481 998.526L291.412 974.347L56.2159 515.504ZM56.2159 515.504L380.979 915.083L333.235 950.023L56.2159 515.504ZM56.2159 515.504L456.412 838.352L416.908 882.531L56.2159 515.504ZM56.2159 515.504L133.783 5.08785L191.529 17.4804L56.2159 515.504ZM56.2159 515.504L533.973 703.066L552.214 646.528L56.2159 515.504ZM56.2159 515.504L568.432 539.828L562.278 598.975L56.2159 515.504ZM56.2159 515.504L533.973 327.935L552.214 384.473L56.2159 515.504ZM56.2159 515.504L568.432 491.18L562.278 432.054L56.2159 515.504ZM56.2159 515.504L333.235 80.9787L380.999 115.926L56.2159 515.504ZM237.474 32.4755L56.2159 515.504L291.406 56.6548L237.474 32.4755ZM416.908 148.477L56.2159 515.504L456.412 192.65L416.908 148.477ZM56.2159 515.504L484.807 232.017L514.323 283.494L56.2159 515.504Z" fill="url(#paint0_linear_22_5204)" fill-opacity="0.14"/>
<defs>
<linearGradient id="paint0_linear_22_5204" x1="-232.363" y1="571.654" x2="439.617" y2="481.203" gradientUnits="userSpaceOnUse">
<stop stop-color="#FFDE32" stop-opacity="0.56"/>
<stop offset="1" stop-color="#FFDE32" stop-opacity="0"/>
</linearGradient>
</defs>
</svg>
