<svg width="63" height="16" viewBox="0 0 63 16" fill="none" xmlns="http://www.w3.org/2000/svg">
<path d="M29.9877 15.0116H30.8561C30.8773 15.0116 30.8985 15.0116 30.8985 15.0225C30.9091 15.0333 30.9091 15.0442 30.9091 15.0659V15.1853C30.9091 15.2071 30.9091 15.2288 30.8985 15.2288C30.8879 15.2396 30.8773 15.2396 30.8561 15.2396H29.797C29.7759 15.2396 29.7653 15.2396 29.7547 15.2288C29.7441 15.2179 29.7441 15.2071 29.7441 15.1745V13.0899C29.7441 13.0682 29.7547 13.0465 29.7547 13.0465C29.7653 13.0356 29.7759 13.0356 29.797 13.0356H29.9347C29.9559 13.0356 29.9665 13.0356 29.9771 13.0465C29.9877 13.0574 29.9877 13.0682 29.9877 13.0899V15.0116Z" fill="white"/>
<path d="M31.6635 14.4695H31.5788C31.547 14.4695 31.5153 14.4803 31.4941 14.4803C31.4623 14.4912 31.4411 14.502 31.4199 14.5237C31.3987 14.5455 31.3882 14.578 31.3882 14.6106C31.3987 14.7192 31.4411 14.8169 31.5152 14.8929C31.5894 14.9689 31.6847 15.0123 31.8012 15.0232H32.0342C32.1084 15.0232 32.1613 15.0014 32.2143 14.9797C32.2566 14.9472 32.299 14.9146 32.3519 14.8603C32.3731 14.8386 32.3837 14.8386 32.3943 14.8386C32.4049 14.8386 32.4155 14.8495 32.4261 14.8603L32.5214 14.958C32.5426 14.9797 32.5532 15.0014 32.532 15.0232C32.5108 15.034 32.5002 15.0557 32.479 15.0774C32.4155 15.1317 32.3519 15.186 32.2672 15.2186C32.1931 15.2512 32.1084 15.262 32.0236 15.262H31.7906C31.6953 15.262 31.6106 15.2403 31.5364 15.2077C31.4517 15.1752 31.3882 15.1209 31.3246 15.0666C31.2611 15.0015 31.2187 14.9363 31.1869 14.8495C31.1552 14.7626 31.134 14.6866 31.134 14.5889V14.1763C31.134 14.0786 31.1552 13.9917 31.1869 13.9157C31.2187 13.8289 31.2717 13.7637 31.3246 13.6986C31.3776 13.6443 31.4517 13.59 31.5364 13.5575C31.6212 13.5249 31.6953 13.5032 31.7906 13.5032H31.9283C32.013 13.5032 32.0978 13.5249 32.1825 13.5575C32.2672 13.59 32.3308 13.6443 32.3837 13.6986C32.4367 13.7637 32.4896 13.8289 32.5214 13.9157C32.5532 14.0026 32.5744 14.0786 32.5744 14.1763V14.3826C32.5744 14.4043 32.5638 14.4152 32.532 14.4369C32.5108 14.4586 32.479 14.4695 32.4579 14.4695H32.3202H31.6635ZM32.3308 14.1763C32.3308 14.0135 32.2566 13.8832 32.1189 13.8072C32.0554 13.7746 31.9918 13.7529 31.9283 13.7529H31.7906C31.7483 13.7529 31.7059 13.7529 31.6635 13.7637C31.6212 13.7746 31.5894 13.7855 31.5576 13.8072C31.5047 13.8506 31.4517 13.9049 31.4305 13.97C31.3987 14.0352 31.3776 14.1003 31.3776 14.1763V14.2849C31.4093 14.2632 31.4305 14.2632 31.4517 14.2523C31.4729 14.2415 31.5047 14.2306 31.5258 14.2306C31.547 14.2306 31.5788 14.2197 31.6106 14.2197H31.7271H32.3308V14.1763Z" fill="white"/>
<path d="M33.4013 13.5028H33.5496C33.6025 13.5028 33.6449 13.4919 33.6872 13.4919C33.7296 13.481 33.772 13.4702 33.8143 13.4485C33.8567 13.4268 33.8991 13.3942 33.9414 13.3508C33.9732 13.329 33.9944 13.329 34.0156 13.3508L34.1109 13.4593C34.1427 13.481 34.1427 13.5136 34.1109 13.5353C34.1109 13.5462 34.1003 13.5462 34.0897 13.557C34.0791 13.5679 34.0791 13.5679 34.0685 13.5788C34.0368 13.6113 33.9838 13.6439 33.9203 13.6765C33.8567 13.6982 33.7826 13.709 33.7084 13.709C33.7826 13.7633 33.8355 13.8176 33.8567 13.8828C33.8779 13.9479 33.8885 14.013 33.8885 14.0673C33.8885 14.1542 33.8673 14.2302 33.8355 14.2953C33.8038 14.3605 33.7508 14.4148 33.7084 14.4582C33.6555 14.5016 33.6025 14.5342 33.539 14.5559C33.4754 14.5776 33.4119 14.5885 33.3589 14.5885C33.3272 14.5885 33.2954 14.5885 33.2636 14.5993C33.2212 14.6102 33.1895 14.621 33.1683 14.6427C33.1365 14.6645 33.1153 14.6862 33.1047 14.7187C33.0836 14.7513 33.073 14.7839 33.073 14.8165C33.073 14.8707 33.0942 14.9142 33.1471 14.9576C33.1895 15.001 33.2636 15.0227 33.3589 15.0227H33.5813C33.6978 15.0227 33.7932 15.0336 33.8673 15.0553C33.9414 15.077 34.005 15.1096 34.0473 15.1422C34.0897 15.1856 34.1215 15.229 34.1427 15.2833C34.1638 15.3376 34.1744 15.3919 34.1744 15.457V15.5439C34.1744 15.6307 34.1533 15.7067 34.1215 15.761C34.0897 15.8153 34.0473 15.8696 34.005 15.9022C33.952 15.9347 33.8885 15.9565 33.8249 15.9782C33.7508 15.989 33.6767 15.9999 33.5813 15.9999H33.2107C33.1259 15.9999 33.0518 15.989 32.9776 15.9782C32.9035 15.9565 32.8506 15.9347 32.7976 15.9022C32.7446 15.8696 32.7023 15.8153 32.6705 15.761C32.6387 15.7067 32.6176 15.6307 32.6176 15.5547V15.4679C32.6176 15.381 32.6387 15.305 32.6917 15.229C32.7341 15.1639 32.8188 15.1096 32.9247 15.0879C32.8823 15.0553 32.8506 15.0227 32.84 14.9793C32.8188 14.9359 32.8188 14.8925 32.8188 14.8382C32.8188 14.7622 32.84 14.697 32.9035 14.6427C32.9565 14.5885 33.0306 14.545 33.1047 14.5125C33.0094 14.469 32.9459 14.4148 32.9035 14.3496C32.8611 14.2845 32.84 14.1976 32.84 14.089C32.84 14.013 32.8506 13.937 32.8823 13.8719C32.9141 13.8068 32.9459 13.7525 32.9988 13.6982C33.0518 13.6439 33.1153 13.6113 33.1895 13.5788C33.2318 13.5136 33.3166 13.5028 33.4013 13.5028ZM33.3589 13.7525C33.3166 13.7525 33.2848 13.7633 33.2424 13.7742C33.2001 13.7959 33.1789 13.8176 33.1471 13.8393C33.1259 13.861 33.0942 13.8936 33.0836 13.9262C33.0624 13.9588 33.0624 14.0022 33.0624 14.0456C33.0624 14.089 33.073 14.1216 33.0836 14.165C33.0942 14.1976 33.1153 14.2302 33.1471 14.2628C33.1683 14.2953 33.2001 14.317 33.2424 14.3279C33.2742 14.3496 33.3166 14.3496 33.3589 14.3496C33.4437 14.3496 33.5072 14.317 33.5602 14.2628C33.6131 14.2085 33.6449 14.1325 33.6449 14.0565C33.6449 13.9805 33.6131 13.9045 33.5602 13.8502C33.5072 13.785 33.4331 13.7525 33.3589 13.7525ZM33.2212 15.2507H33.0942C33.0518 15.2507 33.02 15.2616 32.9776 15.2725C32.9459 15.2833 32.9247 15.2942 32.9035 15.3267C32.8823 15.3485 32.8717 15.381 32.8717 15.4353V15.533C32.8717 15.5873 32.8823 15.6199 32.8929 15.6525C32.9141 15.6742 32.9353 15.6959 32.9565 15.7067C32.9882 15.7176 33.02 15.7285 33.073 15.7285C33.1153 15.7285 33.1577 15.7393 33.2212 15.7393H33.539C33.5919 15.7393 33.6449 15.7393 33.6872 15.7285C33.7296 15.7285 33.772 15.7176 33.8038 15.7067C33.8355 15.6959 33.8567 15.6742 33.8673 15.6525C33.8885 15.6199 33.8885 15.5873 33.8885 15.533V15.4353C33.8885 15.381 33.8779 15.3485 33.8567 15.3267C33.8355 15.305 33.8038 15.2833 33.772 15.2725C33.7402 15.2616 33.6978 15.2507 33.6555 15.2507H33.5284H33.2212Z" fill="white"/>
<path d="M35.7063 15.3272C35.7063 15.4574 35.6851 15.5552 35.6427 15.6312C35.6004 15.718 35.5474 15.7832 35.4733 15.8266C35.4097 15.8809 35.3356 15.9134 35.2509 15.9352C35.1661 15.9569 35.092 15.9677 35.0073 15.9677H34.9543C34.9331 15.9677 34.9119 15.9677 34.9014 15.9569C34.8908 15.946 34.8908 15.9352 34.8908 15.9134V15.794C34.8908 15.7723 34.8908 15.7614 34.9014 15.7506C34.9119 15.7397 34.9225 15.7397 34.9437 15.7397C34.9967 15.7397 35.0602 15.7289 35.1132 15.718C35.1767 15.7072 35.2297 15.6854 35.272 15.6529C35.325 15.6203 35.3568 15.5769 35.3991 15.5226C35.4309 15.4683 35.4521 15.4032 35.4521 15.3163V15.0774C35.4097 15.1426 35.3462 15.186 35.272 15.2186C35.1979 15.2512 35.1238 15.262 35.0496 15.262H34.9437C34.8484 15.262 34.7637 15.2403 34.6895 15.2077C34.6154 15.1752 34.5413 15.1209 34.4883 15.0666C34.4248 15.0015 34.3824 14.9363 34.3506 14.8495C34.3189 14.7626 34.2977 14.6866 34.2977 14.5889V13.5683C34.2977 13.5466 34.2977 13.5249 34.3083 13.5249C34.3189 13.514 34.3294 13.514 34.3506 13.514H34.4883C34.5095 13.514 34.5201 13.514 34.5307 13.5249C34.5413 13.5357 34.5413 13.5466 34.5413 13.5683V14.5889C34.5413 14.6432 34.5519 14.7083 34.573 14.7517C34.5942 14.806 34.626 14.8494 34.6578 14.882C34.6895 14.9146 34.7425 14.9472 34.7849 14.9689C34.8378 14.9906 34.8908 15.0014 34.9437 15.0014H35.039C35.092 15.0014 35.145 14.9906 35.1873 14.9797C35.2403 14.9689 35.2826 14.958 35.3144 14.9255C35.3568 14.9037 35.378 14.8712 35.3991 14.8169C35.4203 14.7735 35.4309 14.7192 35.4309 14.6432V13.5575C35.4309 13.5357 35.4309 13.514 35.4415 13.514C35.4521 13.5032 35.4627 13.5032 35.4839 13.5032H35.6216C35.6427 13.5032 35.6533 13.5032 35.6639 13.514C35.6745 13.5249 35.6745 13.5357 35.6745 13.5575V14.426C35.7063 14.7409 35.7063 15.034 35.7063 15.3272Z" fill="white"/>
<path d="M36.514 14.4695H36.4292C36.3975 14.4695 36.3657 14.4803 36.3339 14.4803C36.3127 14.4912 36.281 14.502 36.2704 14.5237C36.2492 14.5455 36.2386 14.578 36.2386 14.6106C36.2492 14.7192 36.2915 14.8169 36.3657 14.8929C36.4398 14.9689 36.5351 15.0123 36.6516 15.0232H36.8846C36.9588 15.0232 37.0117 15.0014 37.0647 14.9797C37.1071 14.9472 37.1494 14.9146 37.2024 14.8603C37.2236 14.8386 37.2342 14.8386 37.2447 14.8386C37.2553 14.8386 37.2659 14.8495 37.2765 14.8603L37.3718 14.958C37.393 14.9797 37.393 15.0014 37.3824 15.0232C37.3612 15.034 37.3507 15.0557 37.3295 15.0774C37.2659 15.1317 37.1918 15.186 37.1177 15.2186C37.0435 15.2512 36.9588 15.262 36.8741 15.262H36.6305C36.5457 15.262 36.4504 15.2403 36.3763 15.2077C36.3021 15.1752 36.228 15.1209 36.1645 15.0666C36.1115 15.0015 36.0585 14.9363 36.0268 14.8495C35.995 14.7626 35.9738 14.6866 35.9738 14.5889V14.1763C35.9738 14.0786 35.995 13.9917 36.0268 13.9157C36.0585 13.8289 36.1115 13.7637 36.1645 13.6986C36.228 13.6443 36.2916 13.59 36.3763 13.5575C36.461 13.5249 36.5457 13.5032 36.6305 13.5032H36.7681C36.8529 13.5032 36.9376 13.5249 37.0223 13.5575C37.0965 13.59 37.1706 13.6443 37.2236 13.6986C37.2765 13.7637 37.3295 13.8289 37.3612 13.9157C37.393 14.0026 37.4142 14.0786 37.4142 14.1763V14.3826C37.4142 14.4043 37.4036 14.4152 37.3718 14.4369C37.3507 14.4586 37.3189 14.4695 37.2977 14.4695H37.16H36.514ZM37.1812 14.1763C37.1812 14.0135 37.1071 13.8832 36.9694 13.8072C36.9058 13.7746 36.8423 13.7529 36.7787 13.7529H36.6411C36.5987 13.7529 36.5563 13.7529 36.5246 13.7637C36.4822 13.7746 36.4504 13.7855 36.4186 13.8072C36.3657 13.8506 36.3233 13.9049 36.2915 13.97C36.2598 14.0352 36.2492 14.1003 36.2386 14.1763V14.2849C36.2704 14.2632 36.2916 14.2632 36.3233 14.2523C36.3445 14.2415 36.3657 14.2306 36.3975 14.2306C36.4186 14.2306 36.4504 14.2197 36.4822 14.2197H36.5987H37.2024V14.1763H37.1812Z" fill="white"/>
<path d="M38.4951 13.5032C38.5798 13.5032 38.6645 13.5249 38.7493 13.5575C38.8234 13.59 38.8975 13.6443 38.9505 13.6986C39.014 13.7637 39.0564 13.8289 39.0882 13.9157C39.1199 14.0026 39.1411 14.0786 39.1411 14.1763V15.186C39.1411 15.2077 39.1411 15.2294 39.1305 15.2403C39.1199 15.2512 39.1094 15.2512 39.0882 15.2512H38.9505C38.9293 15.2512 38.9081 15.2512 38.9081 15.2403C38.8975 15.2294 38.8975 15.2186 38.8975 15.186V14.1763C38.8975 14.1112 38.8764 14.0569 38.8658 14.0135C38.8446 13.9592 38.8128 13.9157 38.781 13.8832C38.7493 13.8397 38.7069 13.818 38.6539 13.7963C38.601 13.7746 38.548 13.7637 38.4951 13.7637H38.3574C38.315 13.7637 38.2833 13.7746 38.2515 13.7855C38.2197 13.7963 38.1773 13.8072 38.1456 13.8289C38.0185 13.9157 37.9549 14.0352 37.9443 14.198V15.2077C37.9443 15.2294 37.9443 15.2512 37.9337 15.262C37.9232 15.2729 37.9126 15.2729 37.8914 15.2729H37.7537C37.7325 15.2729 37.7219 15.2729 37.7113 15.262C37.7007 15.2512 37.7007 15.2403 37.7007 15.2077V13.5792C37.7007 13.5466 37.7219 13.5357 37.7537 13.5357H37.8914C37.9337 13.5357 37.9443 13.5466 37.9443 13.5792V13.742C37.9973 13.6769 38.0608 13.6226 38.135 13.5792C38.2091 13.5357 38.2833 13.514 38.3574 13.514H38.4951V13.5032Z" fill="white"/>
<path d="M40.2101 14.686C40.2101 14.6317 40.2207 14.5883 40.2419 14.534C40.2631 14.4797 40.2949 14.4254 40.3372 14.382C40.3902 14.3386 40.4431 14.2951 40.5173 14.2625C40.5914 14.23 40.6867 14.2191 40.7927 14.2191H41.121H41.2693C41.3222 14.2191 41.3646 14.2408 41.3963 14.2625V14.154C41.3963 14.078 41.3752 14.0128 41.3328 13.9477C41.2904 13.8826 41.2375 13.8391 41.1845 13.8066C41.121 13.774 41.0574 13.7523 40.9939 13.7523H40.8244C40.7503 13.7523 40.6867 13.774 40.6338 13.8066C40.6126 13.8174 40.5808 13.8283 40.5702 13.85C40.5491 13.8717 40.5279 13.8826 40.5173 13.9043C40.4961 13.926 40.4855 13.926 40.4749 13.926C40.4643 13.926 40.4537 13.9151 40.4431 13.9043L40.3478 13.8066C40.3372 13.7848 40.3266 13.7848 40.3266 13.774C40.3266 13.7631 40.3372 13.7523 40.3478 13.7306L40.369 13.7088L40.3902 13.6871C40.4537 13.6328 40.5173 13.5786 40.602 13.546C40.6762 13.5134 40.7609 13.4917 40.8456 13.4917H41.0257C41.1104 13.4917 41.1951 13.5134 41.2798 13.546C41.3646 13.5786 41.4281 13.6328 41.4917 13.6871C41.5446 13.7414 41.5976 13.8174 41.6293 13.9043C41.6611 13.9911 41.6823 14.0671 41.6823 14.1648V15.2397H41.534C41.4811 15.2397 41.4493 15.2288 41.4387 15.1963C41.4175 15.1637 41.4175 15.1311 41.4069 15.0877C41.354 15.142 41.301 15.1745 41.2269 15.2071C41.1528 15.2397 41.0786 15.2614 41.0045 15.2614H40.8668C40.7821 15.2614 40.6867 15.2505 40.6126 15.2288C40.5279 15.2071 40.4643 15.1637 40.4008 15.1203C40.3478 15.066 40.2949 15.0117 40.2631 14.9357C40.2313 14.8597 40.2101 14.7837 40.2101 14.686ZM41.4069 14.5991C41.4069 14.5665 41.4069 14.5448 41.3963 14.5231C41.3858 14.5014 41.3752 14.4905 41.3434 14.4905C41.3222 14.4797 41.2904 14.4797 41.2587 14.4797C41.2163 14.4797 41.1739 14.4797 41.1316 14.4688H40.8032C40.7609 14.4688 40.7185 14.4797 40.6762 14.4905C40.6338 14.5014 40.602 14.5123 40.5808 14.5231C40.5491 14.5448 40.5279 14.5665 40.5067 14.5883C40.4855 14.6208 40.4855 14.6534 40.4855 14.6968C40.4855 14.7945 40.5173 14.8814 40.5808 14.9357C40.6444 15.0008 40.7397 15.0334 40.8774 15.0334H41.0151C41.068 15.0334 41.1104 15.0225 41.1633 15.0117C41.2163 15.0008 41.2587 14.9791 41.2904 14.9574C41.3328 14.9357 41.3646 14.9031 41.3858 14.8705C41.4069 14.838 41.4175 14.7945 41.4175 14.7511L41.4069 14.5991Z" fill="white"/>
<path d="M43.0706 15.1961C43.0706 15.2178 43.0706 15.2395 43.06 15.2395C43.0494 15.2504 43.0389 15.2504 43.0177 15.2504H42.8588C42.8376 15.2504 42.827 15.2504 42.8164 15.2395C42.8058 15.2287 42.8058 15.2178 42.8058 15.1961V13.1007C42.8058 13.079 42.8058 13.0572 42.8164 13.0572C42.827 13.0572 42.8376 13.0464 42.8588 13.0464H43.0177C43.0389 13.0464 43.0494 13.0464 43.06 13.0572C43.0706 13.0681 43.0706 13.079 43.0706 13.1007V15.1961Z" fill="white"/>
<path d="M43.8717 14.4695H43.787C43.7552 14.4695 43.7234 14.4803 43.6916 14.4803C43.6599 14.4912 43.6387 14.502 43.6175 14.5237C43.5963 14.5455 43.5963 14.578 43.5963 14.6106C43.6069 14.7192 43.6493 14.8169 43.7234 14.8929C43.7975 14.9689 43.8929 15.0123 44.0094 15.0232H44.2424C44.3165 15.0232 44.3801 15.0014 44.4224 14.9797C44.4648 14.9472 44.5177 14.9146 44.5601 14.8603C44.5813 14.8386 44.5919 14.8386 44.6025 14.8386C44.6131 14.8386 44.6237 14.8495 44.6342 14.8603L44.7402 14.958C44.7613 14.9797 44.7613 15.0014 44.7507 15.0232C44.7296 15.034 44.719 15.0557 44.6978 15.0774C44.6342 15.1317 44.5601 15.186 44.486 15.2186C44.4118 15.2512 44.3271 15.262 44.2424 15.262H44.0094C43.9246 15.262 43.8293 15.2403 43.7552 15.2077C43.6705 15.1752 43.6069 15.1209 43.5434 15.0666C43.4904 15.0015 43.4375 14.9363 43.4057 14.8495C43.3739 14.7626 43.3527 14.6866 43.3527 14.5889V14.1763C43.3527 14.0786 43.3739 13.9917 43.4057 13.9157C43.4375 13.8289 43.4904 13.7637 43.5434 13.6986C43.6069 13.6443 43.6705 13.59 43.7552 13.5575C43.8399 13.5249 43.9246 13.5032 44.0094 13.5032H44.1471C44.2318 13.5032 44.3165 13.5249 44.4012 13.5575C44.486 13.59 44.5495 13.6443 44.6025 13.6986C44.666 13.7637 44.7084 13.8289 44.7402 13.9157C44.7719 14.0026 44.7931 14.0786 44.7931 14.1763V14.3826C44.7931 14.4043 44.7825 14.4152 44.7507 14.4369C44.7296 14.4586 44.6978 14.4695 44.6766 14.4695H44.5389H43.8717ZM44.5389 14.1763C44.5389 14.0135 44.4648 13.8832 44.3271 13.8072C44.2636 13.7746 44.2 13.7529 44.1365 13.7529H43.9988C43.9564 13.7529 43.914 13.7529 43.8717 13.7637C43.8293 13.7746 43.7975 13.7855 43.7658 13.8072C43.7128 13.8506 43.6599 13.9049 43.6387 13.97C43.6069 14.0352 43.5857 14.1003 43.5857 14.1763V14.2849C43.6175 14.2632 43.6387 14.2632 43.6705 14.2523C43.6916 14.2415 43.7128 14.2306 43.7446 14.2306C43.7658 14.2306 43.7975 14.2197 43.8293 14.2197H43.9458H44.5495V14.1763H44.5389Z" fill="white"/>
<path d="M45.6116 13.5028H45.7599C45.8129 13.5028 45.8552 13.4919 45.8976 13.4919C45.9399 13.481 45.9823 13.4702 46.0247 13.4485C46.067 13.4268 46.1094 13.3942 46.1518 13.3508C46.1835 13.329 46.2047 13.329 46.2259 13.3508L46.3212 13.4593C46.353 13.481 46.353 13.5136 46.3212 13.5353L46.3 13.557L46.2789 13.5788C46.2365 13.6113 46.1941 13.6439 46.12 13.6765C46.0565 13.6982 45.9823 13.709 45.9082 13.709C45.9823 13.7633 46.0353 13.8176 46.0565 13.8828C46.0776 13.9479 46.0882 14.013 46.0882 14.0673C46.0882 14.1542 46.067 14.2302 46.0353 14.2953C46.0035 14.3605 45.9611 14.4148 45.9082 14.4582C45.8552 14.5016 45.8023 14.5342 45.7387 14.5559C45.6752 14.5776 45.6116 14.5885 45.5587 14.5885C45.5269 14.5885 45.4951 14.5885 45.4528 14.5993C45.421 14.6102 45.3892 14.621 45.3574 14.6427C45.3257 14.6645 45.3045 14.6862 45.2939 14.7187C45.2727 14.7513 45.2727 14.7839 45.2727 14.8165C45.2727 14.8707 45.2939 14.9142 45.3363 14.9576C45.3786 15.001 45.4528 15.0227 45.5481 15.0227H45.7599C45.8764 15.0227 45.9717 15.0336 46.0459 15.0553C46.12 15.077 46.1835 15.1096 46.2259 15.1422C46.2683 15.1856 46.3 15.229 46.3212 15.2833C46.3424 15.3376 46.353 15.3919 46.353 15.457V15.5439C46.353 15.6307 46.3318 15.7067 46.3 15.761C46.2683 15.8153 46.2365 15.8696 46.1835 15.9022C46.1306 15.9347 46.067 15.9565 46.0035 15.9782C45.9294 15.989 45.8552 15.9999 45.7599 15.9999H45.3892C45.3045 15.9999 45.2303 15.989 45.1562 15.9782C45.0821 15.9565 45.0185 15.9347 44.9656 15.9022C44.9126 15.8696 44.8703 15.8153 44.8385 15.761C44.8067 15.7067 44.7855 15.6307 44.7855 15.5547V15.4679C44.7855 15.381 44.8067 15.305 44.8597 15.229C44.902 15.1639 44.9868 15.1096 45.0927 15.0879C45.0503 15.0553 45.0185 15.0227 45.0079 14.9793C44.9868 14.9359 44.9868 14.8925 44.9868 14.8382C44.9868 14.7622 45.0079 14.697 45.0715 14.6427C45.1244 14.5885 45.1986 14.545 45.2727 14.5125C45.1774 14.469 45.1138 14.4148 45.0715 14.3496C45.0291 14.2845 45.0079 14.1976 45.0079 14.089C45.0079 14.013 45.0291 13.937 45.0503 13.8719C45.0821 13.8068 45.1244 13.7525 45.1774 13.6982C45.2303 13.6439 45.2939 13.6113 45.3574 13.5788C45.4422 13.5136 45.5269 13.5028 45.6116 13.5028ZM45.5693 13.7525C45.5269 13.7525 45.4845 13.7633 45.4528 13.7742C45.421 13.7959 45.3892 13.8176 45.3574 13.8393C45.3363 13.861 45.3151 13.8936 45.2939 13.9262C45.2727 13.9588 45.2727 14.0022 45.2727 14.0456C45.2727 14.089 45.2833 14.1216 45.2939 14.165C45.3151 14.1976 45.3257 14.2302 45.3574 14.2628C45.3786 14.2953 45.4104 14.317 45.4528 14.3279C45.4845 14.3496 45.5269 14.3496 45.5693 14.3496C45.654 14.3496 45.7175 14.317 45.7705 14.2628C45.8234 14.2085 45.8552 14.1325 45.8552 14.0565C45.8552 13.9805 45.8234 13.9045 45.7705 13.8502C45.7175 13.785 45.654 13.7525 45.5693 13.7525ZM45.4316 15.2507H45.3045C45.2621 15.2507 45.2198 15.2616 45.188 15.2725C45.1562 15.2833 45.1244 15.2942 45.1033 15.3267C45.0821 15.3485 45.0715 15.381 45.0715 15.4353V15.533C45.0715 15.5873 45.0821 15.6199 45.0927 15.6525C45.1138 15.6742 45.135 15.6959 45.1668 15.7067C45.1986 15.7176 45.2303 15.7285 45.2727 15.7285C45.3151 15.7285 45.368 15.7393 45.421 15.7393H45.7387C45.7917 15.7393 45.8446 15.7393 45.887 15.7285C45.9294 15.7285 45.9717 15.7176 46.0035 15.7067C46.0353 15.6959 46.0564 15.6742 46.0776 15.6525C46.0988 15.6199 46.0988 15.5873 46.0988 15.533V15.4353C46.0988 15.381 46.0882 15.3485 46.067 15.3267C46.0459 15.305 46.0141 15.2833 45.9823 15.2725C45.9505 15.2616 45.9082 15.2507 45.8658 15.2507H45.7387H45.4316Z" fill="white"/>
<path d="M46.7028 13.307C46.6498 13.307 46.6075 13.2853 46.5757 13.2527C46.5439 13.2202 46.5333 13.1767 46.5333 13.1224C46.5333 13.079 46.5545 13.0356 46.5863 13.003C46.6181 12.9704 46.6604 12.9487 46.7028 12.9487C46.7452 12.9487 46.7875 12.9704 46.8193 13.003C46.8511 13.0356 46.8723 13.0682 46.8723 13.1224C46.8723 13.1767 46.8511 13.2093 46.8193 13.2527C46.7875 13.2853 46.7452 13.307 46.7028 13.307ZM46.8617 15.3264C46.8617 15.4459 46.8511 15.5544 46.8193 15.6304C46.7981 15.7173 46.7663 15.7824 46.7134 15.8259C46.671 15.8801 46.6075 15.9127 46.5439 15.9344C46.4804 15.9561 46.4062 15.967 46.3215 15.967H46.2686C46.2474 15.967 46.2262 15.967 46.2156 15.9561C46.205 15.9453 46.205 15.9344 46.205 15.9127V15.7933C46.205 15.7716 46.205 15.7607 46.2156 15.7499C46.2262 15.739 46.2368 15.739 46.258 15.739C46.3109 15.739 46.3639 15.7281 46.4062 15.7173C46.4486 15.7064 46.4804 15.6847 46.5122 15.6521C46.5439 15.6196 46.5651 15.5761 46.5757 15.5219C46.5969 15.4676 46.5969 15.4024 46.5969 15.3264V13.8173C46.5969 13.8064 46.5969 13.7956 46.5863 13.7956H46.5757H46.4062C46.3957 13.7956 46.3851 13.7956 46.3851 13.7847V13.7739V13.5459C46.3851 13.535 46.3851 13.5242 46.3957 13.5242H46.4062H46.7875C46.8087 13.5242 46.8193 13.5242 46.8299 13.535C46.8405 13.5459 46.8405 13.5567 46.8405 13.5784V15.3264H46.8617Z" fill="white"/>
<path d="M47.9613 13.5032C48.046 13.5032 48.1413 13.5249 48.2155 13.5575C48.2896 13.59 48.3637 13.6443 48.4273 13.6986C48.4802 13.7529 48.5332 13.8289 48.565 13.9157C48.5967 14.0026 48.6179 14.0786 48.6179 14.1763V14.5997C48.6179 14.6866 48.5967 14.7735 48.565 14.8603C48.5332 14.9472 48.4802 15.0123 48.4273 15.0774C48.3637 15.1426 48.3002 15.186 48.2155 15.2186C48.1307 15.2512 48.046 15.2729 47.9613 15.2729H47.7812C47.6965 15.2729 47.6118 15.2512 47.527 15.2186C47.4423 15.186 47.3788 15.1317 47.3152 15.0774C47.2517 15.0232 47.2093 14.9472 47.1775 14.8603C47.1458 14.7735 47.1246 14.6975 47.1246 14.5997V14.1763C47.1246 14.0895 47.1458 14.0026 47.1775 13.9157C47.2093 13.8289 47.2623 13.7637 47.3152 13.6986C47.3682 13.6335 47.4423 13.59 47.527 13.5575C47.6118 13.5249 47.6859 13.5032 47.7812 13.5032H47.9613ZM47.7812 13.7529C47.7283 13.7529 47.6647 13.7637 47.6224 13.7855C47.5694 13.8072 47.527 13.8397 47.4953 13.8723C47.4635 13.9049 47.4317 13.9483 47.4105 14.0026C47.3893 14.0569 47.3788 14.1003 47.3788 14.1655V14.5889C47.3788 14.6432 47.3893 14.7083 47.4105 14.7517C47.4317 14.806 47.4635 14.8494 47.4953 14.882C47.527 14.9254 47.58 14.958 47.6224 14.9797C47.6753 15.0014 47.7283 15.0123 47.7812 15.0123H47.9613C48.0142 15.0123 48.0778 15.0014 48.1201 14.9797C48.1731 14.958 48.2155 14.9254 48.2472 14.882C48.279 14.8386 48.3108 14.7952 48.332 14.7517C48.3531 14.6975 48.3637 14.6432 48.3637 14.5889V14.1655C48.3637 14.1112 48.3531 14.0569 48.332 14.0026C48.3108 13.9483 48.279 13.9049 48.2472 13.8723C48.2049 13.8289 48.1625 13.8072 48.1201 13.7855C48.0672 13.7637 48.0142 13.7529 47.9613 13.7529H47.7812Z" fill="white"/>
<path d="M48.8945 13.1007C48.8945 13.079 48.9051 13.0572 48.9051 13.0572C48.9157 13.0572 48.9262 13.0464 48.9474 13.0464H49.0851C49.1063 13.0464 49.1169 13.0464 49.1275 13.0572C49.1381 13.0681 49.1381 13.079 49.1381 13.1007V13.763C49.191 13.6761 49.2546 13.6218 49.3393 13.5784C49.4134 13.535 49.4982 13.5132 49.5723 13.5132H49.7629C49.8477 13.5132 49.943 13.535 50.0171 13.5675C50.1019 13.6001 50.1654 13.6544 50.2289 13.7087C50.2819 13.7738 50.3349 13.839 50.3666 13.9258C50.3984 14.0127 50.4196 14.0887 50.4196 14.1864V14.6098C50.4196 14.6967 50.3984 14.7835 50.3666 14.8704C50.3349 14.9464 50.2819 15.0224 50.2289 15.0767C50.176 15.1309 50.1019 15.1852 50.0171 15.2178C49.943 15.2504 49.8583 15.2721 49.7629 15.2721H49.5723C49.4876 15.2721 49.4134 15.2612 49.3499 15.2287C49.2758 15.1961 49.2122 15.1527 49.1487 15.0984C49.1487 15.1309 49.1381 15.1744 49.1275 15.1961C49.1063 15.2287 49.0851 15.2395 49.0427 15.2395H48.9157V13.1007H48.8945ZM49.1381 14.6641C49.1381 14.7401 49.1592 14.8052 49.191 14.8595C49.2228 14.9029 49.2652 14.9464 49.3181 14.9681C49.3605 14.9898 49.4134 15.0115 49.4664 15.0115C49.5193 15.0224 49.5511 15.0224 49.5935 15.0332H49.7735C49.8794 15.0224 49.9748 14.9898 50.0595 14.9138C50.1336 14.8378 50.176 14.7401 50.1866 14.6315V14.1538C50.1866 14.0995 50.1654 14.0452 50.1442 14.0018C50.123 13.9475 50.0913 13.915 50.0595 13.8824C50.0171 13.8498 49.9748 13.8172 49.9324 13.7955C49.8794 13.7738 49.8371 13.763 49.7735 13.763H49.5935C49.5511 13.763 49.5088 13.7738 49.4558 13.7955C49.4028 13.8172 49.3605 13.8498 49.3181 13.8824C49.2757 13.915 49.2334 13.9692 49.2016 14.0235C49.1698 14.0778 49.1592 14.143 49.1592 14.219V14.5989V14.6641H49.1381Z" fill="white"/>
<path d="M50.6828 13.1007C50.6828 13.079 50.6828 13.0572 50.6934 13.0572C50.704 13.0572 50.7146 13.0464 50.7358 13.0464H50.8734C50.8946 13.0464 50.9052 13.0464 50.9158 13.0572C50.9264 13.0681 50.9264 13.079 50.9264 13.1007V13.763C50.9794 13.6761 51.0429 13.6218 51.1276 13.5784C51.2018 13.535 51.2865 13.5132 51.3606 13.5132H51.5513C51.636 13.5132 51.7313 13.535 51.8055 13.5675C51.8902 13.6001 51.9537 13.6544 52.0067 13.7087C52.0702 13.7738 52.1126 13.839 52.1444 13.9258C52.1761 14.0127 52.1973 14.0887 52.1973 14.1864V14.6098C52.1973 14.6967 52.1761 14.7835 52.1444 14.8704C52.1126 14.9464 52.0596 15.0224 52.0067 15.0767C51.9537 15.1309 51.8796 15.1852 51.8055 15.2178C51.7207 15.2504 51.636 15.2721 51.5513 15.2721H51.3606C51.2759 15.2721 51.2018 15.2612 51.1276 15.2287C51.0535 15.1961 50.9899 15.1527 50.9264 15.0984C50.9264 15.1309 50.9158 15.1744 50.9052 15.1961C50.8946 15.2287 50.8629 15.2395 50.8205 15.2395H50.6934V13.1007H50.6828ZM50.9264 14.6641C50.9264 14.7401 50.9476 14.8052 50.9794 14.8595C51.0111 14.9029 51.0535 14.9464 51.0959 14.9681C51.1488 14.9898 51.1912 15.0115 51.2441 15.0115C51.2971 15.0224 51.3394 15.0224 51.3712 15.0332H51.5513C51.6678 15.0224 51.7525 14.9898 51.8372 14.9138C51.9114 14.8378 51.9643 14.7401 51.9643 14.6315V14.1538C51.9643 14.0995 51.9431 14.0452 51.922 14.0018C51.9008 13.9475 51.869 13.915 51.8372 13.8824C51.7949 13.8498 51.7525 13.8172 51.7101 13.7955C51.6572 13.7738 51.6148 13.763 51.5513 13.763H51.3712C51.3289 13.763 51.2865 13.7738 51.2335 13.7955C51.1806 13.8172 51.1382 13.8498 51.0959 13.8824C51.0535 13.915 51.0111 13.9692 50.9899 14.0235C50.9582 14.0778 50.9476 14.143 50.9476 14.219V14.5989V14.6641H50.9264Z" fill="white"/>
<path d="M52.9172 13.1007C52.9172 13.2744 52.9172 13.4155 52.9066 13.535C52.9066 13.6544 52.896 13.7738 52.896 13.8824C52.8854 13.991 52.8854 14.1104 52.8854 14.2298V14.6749C52.8854 14.6967 52.8748 14.7184 52.8748 14.7292C52.8642 14.7401 52.8536 14.7401 52.8218 14.7401H52.7265C52.7053 14.7401 52.6947 14.7401 52.6842 14.7292C52.6736 14.7184 52.663 14.7075 52.663 14.6749C52.663 14.5012 52.663 14.3601 52.6524 14.2298C52.6524 14.1104 52.6418 14.0018 52.6418 13.8824C52.6418 13.7738 52.6312 13.6544 52.6312 13.535V13.1007C52.6312 13.079 52.6312 13.0572 52.6418 13.0572C52.6524 13.0572 52.663 13.0464 52.6842 13.0464H52.8642C52.8854 13.0464 52.9066 13.0464 52.9066 13.0572C52.9172 13.0572 52.9172 13.0681 52.9172 13.1007ZM52.7795 14.9029C52.8324 14.9029 52.8748 14.9247 52.9066 14.9572C52.9383 14.9898 52.9595 15.0332 52.9595 15.0875C52.9595 15.1418 52.9383 15.1852 52.9066 15.2178C52.8748 15.2504 52.8324 15.2721 52.7795 15.2721C52.7265 15.2721 52.6947 15.2504 52.6524 15.2178C52.6206 15.1852 52.5994 15.1309 52.5994 15.0875C52.5994 15.0332 52.6206 15.0007 52.6524 14.9572C52.6947 14.9247 52.7371 14.9029 52.7795 14.9029Z" fill="white"/>
<path d="M14.5907 11.788C14.0293 11.484 13.5951 11.0172 13.3091 10.3875L18.5835 12.0594C18.0963 12.2006 17.5244 12.2766 16.8783 12.2766C15.9463 12.2657 15.1838 12.1029 14.5907 11.788Z" fill="white"/>
<path d="M6.93197 11.9715V3.427H13.0007V4.87099H9.55856V7.69383L0.153687 6.09784L9.55856 9.14868V11.9715H6.93197Z" fill="white"/>
<path d="M20.7967 9.80274L18.3608 9.3576C18.3713 9.31418 18.3713 9.27075 18.3819 9.23818C18.4455 8.82561 18.4667 8.32618 18.4667 7.71819C18.4667 7.12105 18.4455 6.62162 18.3925 6.23077C18.3396 5.82906 18.2019 5.49249 17.9901 5.18849C17.7677 4.89535 17.4181 4.74335 16.9521 4.74335C16.2849 4.74335 15.8507 5.00392 15.66 5.53592C15.4694 6.06791 15.3635 6.77362 15.3635 7.67476C15.3847 8.1199 15.4058 8.48904 15.427 8.81475L12.8534 8.3479C12.8428 8.13075 12.8322 7.91361 12.8322 7.68562C12.8428 6.17648 13.1817 5.04735 13.849 4.30907C14.5162 3.55993 15.5329 3.17993 16.8992 3.17993C17.9159 3.17993 18.7314 3.34279 19.3351 3.69021C19.9494 4.02678 20.3836 4.52621 20.659 5.18849C20.9238 5.85077 21.0615 6.68676 21.0615 7.69647C21.0615 8.4999 20.9768 9.20561 20.7967 9.80274Z" fill="white"/>
<path d="M26.262 11.9932L24.0379 7.71554H25.0546C25.3406 7.71554 25.6054 7.61783 25.8596 7.41155C26.1138 7.20526 26.2408 6.84698 26.2408 6.34755C26.2408 5.35956 25.8384 4.86014 25.0441 4.86014H24.0485V10.4081L21.4113 9.90867V3.427H25.9761C26.8445 3.427 27.533 3.64414 28.0625 4.06757C28.5921 4.49099 28.8568 5.17499 28.8568 6.1087C28.8568 6.69498 28.7615 7.15098 28.5815 7.4984C28.4014 7.83497 28.1896 8.08469 27.946 8.22583C27.7024 8.36697 27.48 8.45383 27.2576 8.49725C27.0352 8.52983 26.9187 8.55154 26.8975 8.55154L29.0793 11.9824L26.262 11.9932Z" fill="white"/>
<path d="M39.1182 3.427L36.301 12.2864L33.8332 6.22813L31.2914 12.2864L28.4847 3.427H31.2384L32.0645 6.0327L32.9648 4.187L32.7212 3.427H35.5172L36.3751 5.91327L37.18 3.427H39.1182Z" fill="white"/>
<path d="M39.2025 3.427H45.2712V4.87099H41.8397V6.80355H44.6463V8.24754H41.8397V10.5167H45.3242V11.9715H39.2025V3.427Z" fill="white"/>
<path d="M49.7627 3.427C50.6205 3.427 51.2878 3.579 51.775 3.883C52.2516 4.187 52.5057 4.71899 52.5269 5.45727C52.5269 6.2607 52.2939 6.79269 51.8279 7.05326C51.3619 7.31383 50.8641 7.44412 50.3452 7.44412C52.0397 7.44412 52.8976 8.13897 52.9188 9.53953C52.9188 10.5927 52.5799 11.2549 51.9126 11.5372C51.2348 11.8195 50.3875 11.9607 49.339 11.9607H45.4521V3.427H49.7627ZM49.625 10.5384C50.0274 10.5384 50.3452 10.4624 50.5676 10.3104C50.79 10.1584 50.8959 9.86524 50.8959 9.4201C50.8959 8.6384 50.4617 8.24754 49.572 8.24754H48.0893V10.5384H49.625ZM50.6205 5.73956C50.5888 5.15328 50.2498 4.86014 49.5932 4.86014H48.0681V6.80355H49.5402C49.9109 6.80355 50.1757 6.72755 50.3558 6.57555C50.5358 6.41269 50.6205 6.14127 50.6205 5.73956Z" fill="white"/>
<path fill-rule="evenodd" clip-rule="evenodd" d="M62.7891 5.89214L61.9207 5.675C62.3337 4.32873 62.0266 2.78702 60.9781 1.72303C60.9357 1.6796 60.8933 1.63617 60.8404 1.59274L61.2217 1.18018C61.6877 1.56017 62.0795 2.02703 62.3761 2.60245C62.9374 3.64473 63.0539 4.81729 62.7891 5.89214Z" fill="white"/>
<path fill-rule="evenodd" clip-rule="evenodd" d="M54.2635 7.19475C53.5857 6.06561 53.4586 4.75191 53.7869 3.57935L54.5177 3.79649C54.3059 4.99076 54.6554 6.26104 55.5557 7.18389C55.8416 7.47703 56.1593 7.71589 56.4983 7.8896L55.7992 8.7256C55.1956 8.36731 54.666 7.84617 54.2635 7.19475Z" fill="white"/>
<path fill-rule="evenodd" clip-rule="evenodd" d="M54.5521 3.64473L53.8531 3.43845C54.1179 2.39617 54.7427 1.44075 55.6853 0.789323C57.3905 -0.394098 59.6146 -0.209527 61.108 1.09332L60.7373 1.49503C59.2228 0.192184 56.988 0.27904 55.5794 1.72303C55.0393 2.26588 54.7004 2.93902 54.5521 3.64473Z" fill="white"/>
<path fill-rule="evenodd" clip-rule="evenodd" d="M56.455 6.2286C55.4277 5.17546 55.4277 3.44919 56.455 2.39605C57.4823 1.34292 59.1557 1.34292 60.1937 2.39605C61.221 3.46005 61.221 5.17546 60.1937 6.2286C59.1663 7.29259 57.4929 7.29259 56.455 6.2286ZM59.2511 4.65432C59.7594 4.13318 59.7594 3.29719 59.2511 2.78691C58.7427 2.26577 57.9272 2.26577 57.4294 2.78691C56.921 3.30805 56.921 4.14404 57.4294 4.65432C57.9272 5.17546 58.7533 5.17546 59.2511 4.65432Z" fill="white"/>
<path fill-rule="evenodd" clip-rule="evenodd" d="M58.3856 3.69995V8.41192L59.4023 7.7605L60.292 10.2359L61.2663 9.85591L60.3237 7.43478L61.5311 7.27193L58.3856 3.69995Z" fill="white"/>
<path fill-rule="evenodd" clip-rule="evenodd" d="M56.5522 5.67515C55.9062 5.01287 55.7897 4.03573 56.171 3.24316C55.9274 4.05744 56.118 4.99115 56.7535 5.64258C57.0818 5.97915 57.4948 6.19629 57.9291 6.294C57.4313 6.27229 56.9335 6.066 56.5522 5.67515Z" fill="white"/>
</svg>
