<svg width="41" height="41" viewBox="0 0 41 41" fill="none" xmlns="http://www.w3.org/2000/svg">
<g clip-path="url(#clip0_38_13106)">
<circle cx="20.5" cy="20.5" r="20.5" fill="#DADADA" fill-opacity="0.47"/>
<g clip-path="url(#clip1_38_13106)">
<path d="M25.318 9.077C26.536 9.133 27.378 9.312 28.156 9.614C28.8937 9.88981 29.5615 10.3248 30.112 10.888C30.6752 11.4385 31.1102 12.1063 31.386 12.844C31.688 13.623 31.867 14.464 31.923 15.682C31.992 17.192 32 17.724 32 21C32 24.276 31.992 24.808 31.923 26.318C31.867 27.536 31.688 28.378 31.386 29.157C31.1101 29.8943 30.6751 30.5618 30.112 31.112C29.5615 31.6752 28.8937 32.1102 28.156 32.386C27.377 32.688 26.536 32.867 25.318 32.923C23.808 32.992 23.277 33 20 33C16.723 33 16.191 32.992 14.682 32.923C13.464 32.867 12.622 32.688 11.843 32.386C11.1057 32.1101 10.4382 31.6751 9.888 31.112C9.32479 30.5615 8.88981 29.8937 8.614 29.156C8.312 28.377 8.133 27.536 8.077 26.318C8.008 24.81 8 24.278 8 21C8 17.723 8.008 17.19 8.077 15.682C8.133 14.464 8.312 13.622 8.614 12.844C8.88981 12.1063 9.32479 11.4385 9.888 10.888C10.4382 10.3249 11.1057 9.88994 11.843 9.614C12.623 9.312 13.464 9.133 14.682 9.077C16.19 9.008 16.722 9 20 9C23.277 9 23.81 9.008 25.318 9.077ZM20 11.667C16.76 11.667 16.264 11.674 14.803 11.741C13.876 11.783 13.32 11.901 12.809 12.1C12.4168 12.2422 12.0624 12.4725 11.773 12.773C11.4718 13.0618 11.2415 13.4164 11.1 13.809C10.902 14.319 10.783 14.876 10.741 15.803C10.674 17.264 10.667 17.76 10.667 21C10.667 24.24 10.674 24.736 10.741 26.197C10.783 27.124 10.901 27.68 11.1 28.19C11.27 28.626 11.45 28.903 11.773 29.227C12.097 29.551 12.374 29.731 12.809 29.9C13.319 30.098 13.876 30.217 14.803 30.259C16.265 30.326 16.761 30.333 20 30.333C23.24 30.333 23.735 30.326 25.197 30.259C26.124 30.217 26.68 30.099 27.191 29.9C27.5832 29.7578 27.9376 29.5275 28.227 29.227C28.551 28.903 28.731 28.626 28.9 28.191C29.098 27.681 29.217 27.124 29.259 26.197C29.326 24.735 29.333 24.239 29.333 21C29.333 17.761 29.326 17.265 29.259 15.803C29.217 14.876 29.099 14.32 28.9 13.81C28.7586 13.4171 28.5283 13.0622 28.227 12.773C27.9378 12.4717 27.5829 12.2414 27.19 12.1C26.68 11.902 26.123 11.783 25.196 11.741C23.735 11.674 23.239 11.667 19.999 11.667H20ZM20 27.222C18.3498 27.222 16.7672 26.5665 15.6004 25.3996C14.4335 24.2328 13.778 22.6502 13.778 21C13.778 19.3498 14.4335 17.7672 15.6004 16.6004C16.7672 15.4335 18.3498 14.778 20 14.778C21.6502 14.778 23.2328 15.4335 24.3996 16.6004C25.5665 17.7672 26.222 19.3498 26.222 21C26.222 22.6502 25.5665 24.2328 24.3996 25.3996C23.2328 26.5665 21.6502 27.222 20 27.222ZM20 24.556C20.9431 24.556 21.8476 24.1814 22.5145 23.5145C23.1814 22.8476 23.556 21.9431 23.556 21C23.556 20.0569 23.1814 19.1524 22.5145 18.4855C21.8476 17.8186 20.9431 17.444 20 17.444C19.0569 17.444 18.1524 17.8186 17.4855 18.4855C16.8186 19.1524 16.444 20.0569 16.444 21C16.444 21.9431 16.8186 22.8476 17.4855 23.5145C18.1524 24.1814 19.0569 24.556 20 24.556ZM26.222 16.111C25.8683 16.111 25.5292 15.9705 25.2791 15.7204C25.029 15.4703 24.8885 15.1312 24.8885 14.7775C24.8885 14.4238 25.029 14.0847 25.2791 13.8346C25.5292 13.5845 25.8683 13.444 26.222 13.444C26.5757 13.444 26.9148 13.5845 27.1649 13.8346C27.415 14.0847 27.5555 14.4238 27.5555 14.7775C27.5555 15.1312 27.415 15.4703 27.1649 15.7204C26.9148 15.9705 26.5757 16.111 26.222 16.111Z" fill="white"/>
</g>
</g>
<defs>
<clipPath id="clip0_38_13106">
<rect width="41" height="41" fill="white"/>
</clipPath>
<clipPath id="clip1_38_13106">
<rect width="24" height="24" fill="white" transform="translate(8 9)"/>
</clipPath>
</defs>
</svg>
