<svg width="42" height="42" viewBox="0 0 42 42" fill="none" xmlns="http://www.w3.org/2000/svg">
<path d="M21 41.8333C9.49376 41.8333 0.166672 32.5063 0.166672 21C0.166672 9.49376 9.49376 0.166672 21 0.166672C32.5063 0.166672 41.8333 9.49376 41.8333 21C41.8333 32.5063 32.5063 41.8333 21 41.8333Z" fill="#FF9900"/>
<path d="M17.8125 13.6458C17.9555 13.4923 18.1281 13.3692 18.3197 13.2838C18.5114 13.1984 18.7183 13.1525 18.9281 13.1488C19.1379 13.1451 19.3463 13.1837 19.5408 13.2622C19.7354 13.3408 19.9121 13.4578 20.0605 13.6062C20.2089 13.7545 20.3258 13.9313 20.4044 14.1258C20.483 14.3204 20.5216 14.5288 20.5179 14.7386C20.5142 14.9484 20.4683 15.1553 20.3829 15.347C20.2975 15.5386 20.1743 15.7111 20.0208 15.8542L16.4375 19.4375H29.3333C29.7477 19.4375 30.1452 19.6021 30.4382 19.8952C30.7312 20.1882 30.8958 20.5856 30.8958 21C30.8958 21.4144 30.7312 21.8118 30.4382 22.1049C30.1452 22.3979 29.7477 22.5625 29.3333 22.5625H16.4375L20.0208 26.1458C20.1743 26.2889 20.2975 26.4614 20.3829 26.6531C20.4683 26.8447 20.5142 27.0516 20.5179 27.2614C20.5216 27.4712 20.483 27.6796 20.4044 27.8742C20.3258 28.0687 20.2089 28.2455 20.0605 28.3938C19.9121 28.5422 19.7354 28.6592 19.5408 28.7378C19.3463 28.8163 19.1379 28.8549 18.9281 28.8512C18.7183 28.8475 18.5114 28.8016 18.3197 28.7162C18.1281 28.6308 17.9555 28.5077 17.8125 28.3542L11.5625 22.1042C11.2699 21.8112 11.1055 21.4141 11.1055 21C11.1055 20.5859 11.2699 20.1888 11.5625 19.8958L17.8125 13.6458Z" fill="white"/>
</svg>
