<svg width="136" height="149" viewBox="0 0 136 149" fill="none" xmlns="http://www.w3.org/2000/svg">
<path d="M136 0.364746C108.354 17.061 85.1563 40.197 68.387 67.7991C52.5971 93.2979 42.9279 120.11 39.3794 148.237H58.9917C63.6602 118.701 75.2035 90.6743 92.691 66.4178C99.664 56.84 107.457 47.8872 115.983 39.6608V90.8647H96.0014C92.4329 96.8498 89.4995 103.191 87.2491 109.786H115.983V148.237H136V0.364746ZM51.2039 66.0487C49.8478 60.2402 47.6706 54.6548 44.7379 49.461C39.3873 40.3872 31.3693 33.421 20.684 28.5626V148.237H0V0.364746C10.6933 0.364746 22.8631 4.86593 36.5096 13.8683C50.156 22.8707 60.5873 34.2784 65.4934 45.317C60.635 51.1757 54.1809 59.7613 51.2039 66.0487Z" fill="white" fill-opacity="0.24"/>
</svg>
