<svg width="375" height="1075" viewBox="0 0 375 1075" fill="none" xmlns="http://www.w3.org/2000/svg">
<path fill-rule="evenodd" clip-rule="evenodd" d="M448.269 0L416 560.004L383.731 0H448.269ZM416 560.004L563.929 18.952L500.796 5.52704L416 560.004ZM416 560.004L614.176 35.2788L673.138 61.5454L416 560.004ZM416 560.004L969.273 469.35L976 533.58L416 560.004ZM416 560.004L718.847 87.969L771.06 125.933L416 560.004ZM416 560.004L810.333 161.294L853.523 209.28L416 560.004ZM416 560.004L916.821 307.959L884.552 252.045L416 560.004ZM416 560.004L969.25 650.68L975.978 586.457L416 560.004ZM416 560.004L938.326 356.244L958.27 417.662L416 560.004ZM416 560.004L884.552 867.962L916.828 812.041L416 560.004ZM416 560.004L938.326 763.756L958.27 702.338L416 560.004ZM416 560.004L771.082 994.075L718.87 1032.03L416 560.004ZM416 560.004L853.523 910.72L810.333 958.714L416 560.004ZM416 560.004L614.161 1084.72L673.123 1058.45L416 560.004ZM416 560.004L563.929 1101.02L500.796 1114.48L416 560.004ZM416 560.004L268.064 1101.05L331.197 1114.51L416 560.004ZM416 560.004L448.277 1120H383.731L416 560.004ZM416 560.004L60.9404 994.075L113.138 1032.03L416 560.004ZM416 560.004L158.862 1058.45L217.824 1084.72L416 560.004ZM416 560.004L-106.326 763.756L-126.269 702.338L416 560.004ZM416 560.004L21.6596 958.714L-21.5306 910.72L416 560.004ZM416 560.004L-84.8209 812.049L-52.5516 867.97L416 560.004ZM416 560.004L-144 586.427L-137.273 650.68L416 560.004ZM416 560.004L-106.326 356.244L-126.269 417.662L416 560.004ZM416 560.004L-144 533.58L-137.273 469.35L416 560.004ZM416 560.004L217.832 35.2788L158.87 61.5454L416 560.004ZM331.197 5.52704L416 560.004L268.064 18.9894L331.197 5.52704ZM416 560.004L21.6596 161.294L-21.5306 209.28L416 560.004ZM416 560.004L113.138 87.969L60.918 125.933L416 560.004ZM416 560.004L-52.574 252.045L-84.8433 307.966L416 560.004Z" fill="url(#paint0_radial_20_3171)" fill-opacity="0.29"/>
<defs>
<radialGradient id="paint0_radial_20_3171" cx="0" cy="0" r="1" gradientUnits="userSpaceOnUse" gradientTransform="translate(383.5 541) rotate(-171.264) scale(427.965)">
<stop stop-color="#FFDE32" stop-opacity="0.39"/>
<stop offset="1" stop-color="#FFDE32" stop-opacity="0"/>
</radialGradient>
</defs>
</svg>
