<svg width="42" height="42" viewBox="0 0 42 42" fill="none" xmlns="http://www.w3.org/2000/svg">
<path d="M21 41.8333C32.5063 41.8333 41.8333 32.5063 41.8333 21C41.8333 9.49376 32.5063 0.166672 21 0.166672C9.49376 0.166672 0.166677 9.49376 0.166677 21C0.166677 32.5063 9.49376 41.8333 21 41.8333Z" fill="#FF9900"/>
<path d="M24.1875 13.6458C24.0445 13.4923 23.872 13.3692 23.6803 13.2838C23.4886 13.1984 23.2817 13.1525 23.0719 13.1488C22.8621 13.1451 22.6537 13.1837 22.4592 13.2622C22.2646 13.3408 22.0879 13.4578 21.9395 13.6062C21.7911 13.7545 21.6742 13.9313 21.5956 14.1258C21.517 14.3204 21.4784 14.5288 21.4821 14.7386C21.4858 14.9484 21.5317 15.1553 21.6171 15.347C21.7025 15.5386 21.8257 15.7111 21.9792 15.8542L25.5625 19.4375H12.6667C12.2523 19.4375 11.8548 19.6021 11.5618 19.8952C11.2688 20.1882 11.1042 20.5856 11.1042 21C11.1042 21.4144 11.2688 21.8118 11.5618 22.1049C11.8548 22.3979 12.2523 22.5625 12.6667 22.5625H25.5625L21.9792 26.1458C21.8257 26.2889 21.7025 26.4614 21.6171 26.6531C21.5317 26.8447 21.4858 27.0516 21.4821 27.2614C21.4784 27.4712 21.517 27.6796 21.5956 27.8742C21.6742 28.0687 21.7911 28.2455 21.9395 28.3938C22.0879 28.5422 22.2646 28.6592 22.4592 28.7378C22.6537 28.8163 22.8621 28.8549 23.0719 28.8512C23.2817 28.8475 23.4886 28.8016 23.6803 28.7162C23.872 28.6308 24.0445 28.5077 24.1875 28.3542L30.4375 22.1042C30.7301 21.8112 30.8945 21.4141 30.8945 21C30.8945 20.5859 30.7301 20.1888 30.4375 19.8958L24.1875 13.6458Z" fill="white"/>
</svg>
