<svg width="20" height="16" viewBox="0 0 20 16" fill="none" xmlns="http://www.w3.org/2000/svg">
<path d="M13.1875 0.645839C13.0445 0.492325 12.872 0.369195 12.6803 0.283795C12.4886 0.198395 12.2817 0.152474 12.0719 0.148772C11.8621 0.145071 11.6537 0.183664 11.4592 0.26225C11.2646 0.340835 11.0879 0.457804 10.9395 0.606176C10.7911 0.754549 10.6742 0.931285 10.5956 1.12584C10.517 1.3204 10.4784 1.5288 10.4821 1.73859C10.4858 1.94839 10.5317 2.15529 10.6171 2.34696C10.7025 2.53863 10.8257 2.71113 10.9792 2.85417L14.5625 6.43751H1.66668C1.25228 6.43751 0.854849 6.60213 0.561824 6.89515C0.268798 7.18818 0.104179 7.58561 0.104179 8.00001C0.104179 8.41441 0.268798 8.81183 0.561824 9.10486C0.854849 9.39789 1.25228 9.56251 1.66668 9.56251H14.5625L10.9792 13.1458C10.8257 13.2889 10.7025 13.4614 10.6171 13.6531C10.5317 13.8447 10.4858 14.0516 10.4821 14.2614C10.4784 14.4712 10.517 14.6796 10.5956 14.8742C10.6742 15.0687 10.7911 15.2455 10.9395 15.3938C11.0879 15.5422 11.2646 15.6592 11.4592 15.7378C11.6537 15.8163 11.8621 15.8549 12.0719 15.8512C12.2817 15.8475 12.4886 15.8016 12.6803 15.7162C12.872 15.6308 13.0445 15.5077 13.1875 15.3542L19.4375 9.10417C19.7301 8.8112 19.8945 8.41407 19.8945 8.00001C19.8945 7.58594 19.7301 7.18881 19.4375 6.89584L13.1875 0.645839Z" fill="white"/>
</svg>
