<svg width="123" height="48" viewBox="0 0 123 48" fill="none" xmlns="http://www.w3.org/2000/svg">
<path style="mix-blend-mode:multiply" d="M10.7153 10.5901C9.34712 14.6454 23.1657 21.1708 41.5449 25.3367C59.9241 29.5026 75.9774 29.392 77.3 25.3367C78.6226 21.2814 64.8952 14.756 46.4704 10.5901C28.0456 6.42422 12.0835 6.57169 10.7153 10.5901Z" fill="url(#paint0_radial_36_12792)"/>
<path style="mix-blend-mode:multiply" d="M48.7051 15.9358C49.1155 14.5349 44.5093 12.2492 38.3069 10.5902C32.1045 8.93119 26.8142 8.89433 26.3581 10.2953C25.9021 11.6962 30.5539 13.9819 36.7107 15.6409C42.8675 17.2999 48.249 17.3367 48.7051 15.9358Z" fill="url(#paint1_radial_36_12792)"/>
<path d="M70.9608 22.2032C67.2565 20.5332 63.4169 19.0675 59.4681 17.8161C55.1584 16.2118 50.7071 14.8686 46.1512 13.7977C41.5906 12.7285 37.03 11.8806 32.4694 11.0327C30.0979 10.5534 27.9088 10.0004 25.446 9.37369C23.2915 8.94463 21.0935 8.67318 18.8788 8.56262C18.8788 8.56262 18.8788 8.74696 18.8788 8.78383C27.3899 11.3075 36.0871 13.4006 44.9198 15.0511C49.5897 16.1781 54.1606 17.5576 58.6016 19.1802C60.289 19.8438 61.9764 20.5442 63.7094 21.1341C65.5928 21.715 67.4351 22.3796 69.2278 23.1249C69.8107 23.299 70.3628 23.5345 70.8696 23.8253C71.0976 23.8253 71.3713 23.8253 71.2344 23.5673C71.5081 23.7885 71.8273 23.5673 71.6905 23.2723C71.7446 23.2647 71.7959 23.2474 71.8406 23.2215C71.8853 23.1956 71.9221 23.162 71.9484 23.123C71.9747 23.084 71.9898 23.0407 71.9925 22.9963C71.9952 22.952 71.9855 22.9077 71.9641 22.8668C71.8614 22.7069 71.7194 22.5657 71.5469 22.4516C71.3744 22.3375 71.175 22.253 70.9608 22.2032Z" fill="#D5C68F"/>
<path d="M71.6449 23.3088H71.052C67.3272 21.6465 63.473 20.1811 59.5137 18.9217C55.2227 17.3115 50.7861 15.9681 46.2424 14.9033C41.6818 13.8342 37.1212 12.9862 32.5606 12.1383C30.189 11.6959 28 11.1061 25.5372 10.5162C24.4648 10.2377 23.3669 10.0282 22.2536 9.88947C29.5962 12.1015 37.2124 13.2443 44.783 15.0508C49.4528 16.1778 54.0237 17.5572 58.4648 19.1798C60.1522 19.8434 61.8396 20.5439 63.5726 21.1337C65.456 21.7147 67.2983 22.3793 69.0909 23.1245C69.6739 23.2986 70.226 23.5342 70.7327 23.825C70.9608 23.825 71.2344 23.825 71.0976 23.5669C71.1399 23.6256 71.2094 23.6683 71.2906 23.6855C71.3719 23.7028 71.4583 23.6933 71.5309 23.6591C71.6034 23.6249 71.6562 23.5687 71.6776 23.5031C71.699 23.4374 71.6872 23.3675 71.6449 23.3088Z" fill="#90964A"/>
<path d="M25.4916 14.0186C17.921 14.4242 15.8231 14.6085 15.7319 13.65C15.6407 12.6914 17.6474 12.5808 25.3548 12.1753C27.6485 12.0713 29.9476 12.0713 32.2413 12.1753C34.0199 12.1753 35.1145 12.3965 35.1601 12.6546C35.2057 12.9126 34.1111 13.2076 32.3781 13.4656C30.0963 13.7484 27.7976 13.933 25.4916 14.0186Z" fill="#477225"/>
<path d="M20.9766 4.87559L15.5495 2.14747C14.0901 1.41014 12.95 0.894011 12.0378 0.525347C10.2136 -0.175116 9.39269 -0.175116 9.07345 0.525347C8.75421 1.22581 9.07346 1.59447 10.8065 2.553L14.1357 4.35946C15.5951 5.13366 17.3737 6.05531 19.654 7.1613C21.122 7.88931 22.6452 8.54192 24.2146 9.11524C24.8804 9.3823 25.5658 9.61622 26.2669 9.81569L27.2702 10.1106L28.1367 10.3318C29.02 10.5993 29.938 10.7849 30.8731 10.8848C31.6028 10.8848 32.0589 10.8848 32.0589 10.6636C32.0589 10.4424 31.7852 10.295 31.238 10C30.6907 9.70509 29.9154 9.26269 28.8664 8.74656L25.2636 7.08757L20.9766 4.87559Z" fill="#6EA527"/>
<path d="M12.8588 8.12018C11.8868 8.07078 10.912 8.07078 9.94 8.12018H5.74426C5.25193 8.14605 4.76349 8.20774 4.28487 8.30451C3.76555 8.39237 3.26053 8.52845 2.77987 8.71004L2.50624 8.93123C2.48167 9.02854 2.48167 9.12886 2.50624 9.22617C2.45751 9.3459 2.45751 9.47509 2.50624 9.59483C2.63389 9.70603 2.78935 9.794 2.96229 9.85289C3.53424 10.0089 4.1388 10.0715 4.74092 10.0372H6.0635H7.79653H10.1224C10.9433 10.0372 11.9011 10.0372 12.8588 10.0372C15.732 10.2584 18.3315 10.5165 20.2013 10.6271C22.0712 10.7377 23.3482 10.6271 23.3938 10.4059C23.4394 10.1847 22.2992 9.70543 20.4294 9.26303C17.9567 8.68788 15.4216 8.30519 12.8588 8.12018Z" fill="#477A27"/>
<path d="M13.2236 5.09688C10.6697 4.39642 8.66301 3.80655 6.97558 3.29042L3.09907 2.14756C1.18362 1.59456 0.362708 1.55769 0.0890724 2.14756C-0.184563 2.73742 0.0890835 3.25355 2.09575 4.13835C3.37179 4.6826 4.68081 5.17478 6.01786 5.61301L12.4027 7.49319H13.0412H13.7253L15.0022 7.82499L17.465 8.41485C19.0156 8.82038 20.475 9.11532 21.7063 9.33651C24.1234 9.74205 25.7196 9.77891 25.8109 9.33651C25.9021 8.89412 24.4883 8.41486 22.2536 7.56693C21.1134 7.12453 19.7453 6.68213 18.2403 6.166L15.8231 5.39181L13.2236 5.09688Z" fill="#45742B"/>
<path d="M12.95 6.2028C10.0516 5.56218 7.09214 5.11824 4.10241 4.87561C2.36938 4.87561 1.6853 4.87561 1.59409 5.6498C1.50287 6.424 2.05014 6.60833 3.69196 6.977C5.33377 7.34566 8.25256 7.75119 12.3571 8.63599C14.9254 9.17221 17.529 9.5907 20.1557 9.88945C22.208 10.1106 23.5306 9.88945 23.6218 9.88945C23.713 9.88945 22.5272 9.00465 20.6118 8.37793C18.1291 7.49832 15.5679 6.77122 12.95 6.2028Z" fill="#8CB63B"/>
<path style="mix-blend-mode:multiply" d="M18.1947 7.45631C18.6507 6.05539 15.8688 4.17519 11.9923 3.21667C8.11576 2.25814 4.64971 2.58993 4.19365 3.99086C3.73759 5.39178 6.56517 7.27198 10.3961 8.23051C14.227 9.18903 17.7842 8.85724 18.1947 7.45631Z" fill="url(#paint2_radial_36_12792)"/>
<path style="mix-blend-mode:multiply" d="M21.2959 9.74213C21.2959 8.30434 17.921 7.23521 13.9533 7.38268C9.98559 7.53015 6.74756 8.7836 6.79317 10.2583C6.83878 11.7329 10.2136 12.7283 14.1813 12.6177C18.1491 12.5071 21.3871 11.1799 21.2959 9.74213Z" fill="url(#paint3_radial_36_12792)"/>
<path style="mix-blend-mode:multiply" d="M31.1468 13.0971C31.1468 11.6593 27.7719 10.627 23.7586 10.7376C19.7453 10.8482 16.5985 12.1754 16.6441 13.6132C16.6897 15.051 20.0645 16.1201 24.0322 15.9726C28 15.8252 31.238 14.5717 31.1468 13.0971Z" fill="url(#paint4_radial_36_12792)"/>
<path opacity="0.33" d="M12.8588 6.68229C10.2925 6.13918 7.68828 5.72061 5.06015 5.42883C3.00788 5.42883 1.68532 5.42882 1.5941 5.65002C1.50289 5.87122 2.96228 6.35048 5.06015 6.75601L12.4939 8.15694C15.5039 8.74681 18.2403 9.26293 20.2469 9.59473C22.2536 9.92653 23.5306 9.9634 23.6218 9.59473C23.713 9.22607 22.4816 8.96801 20.5662 8.37815C18.0336 7.70946 15.4613 7.14347 12.8588 6.68229Z" fill="#E0ECF4"/>
<path style="mix-blend-mode:multiply" d="M24.2147 10.6638C25.0356 9.41032 22.8465 6.97714 19.3804 5.17068C15.9144 3.36423 12.4483 2.92183 11.6274 4.17529C10.8065 5.42875 12.95 7.86192 16.4161 9.66838C19.8821 11.4748 23.3938 11.9172 24.2147 10.6638Z" fill="url(#paint5_radial_36_12792)"/>
<path style="mix-blend-mode:multiply" d="M42.229 16.452C43.0499 15.1985 37.6684 10.9957 29.8698 7.05104C22.0712 3.10633 15.3671 0.9312 14.5462 2.14779C13.7253 3.36439 19.1068 7.60404 26.9054 11.5487C34.704 15.4935 41.2713 17.6686 42.229 16.452Z" fill="url(#paint6_radial_36_12792)"/>
<path d="M15.4583 4.50727C13.2692 3.69621 11.4906 2.95887 10.0312 2.36901C8.57182 1.77915 7.38606 1.37362 6.51955 1.07869C4.69531 0.525695 3.96562 0.599427 3.69199 1.07869C3.41835 1.55795 3.69199 2.14781 5.42502 2.95887C6.24592 3.3644 7.34046 3.84367 8.79985 4.4704C10.2592 5.09713 12.0835 5.83446 14.3638 6.68239L16.6441 7.53032L18.8332 8.26764C20.0628 8.70447 21.3275 9.07398 22.6185 9.37364C24.8532 9.8529 26.3125 9.81604 26.4038 9.37364C26.495 8.93124 25.218 8.48885 23.257 7.60405L19.8365 6.09253L17.7386 5.20773L16.5985 4.87593L15.4583 4.50727Z" fill="#8CB63B"/>
<path opacity="0.33" d="M15.2303 4.87585C12.2203 3.73299 9.4383 2.55326 7.34042 1.81593C5.24255 1.0786 3.82877 0.746816 3.69195 1.07861C3.55513 1.41041 4.8777 2.14774 6.92997 3.10627C8.98224 4.06479 11.8098 5.20765 14.5918 6.23991L16.8721 7.08783L19.0156 7.86204C20.2327 8.31374 21.4814 8.70765 22.7552 9.04177C24.8987 9.59476 26.3581 9.70536 26.4037 9.48416C26.4493 9.26296 25.1724 8.85743 23.1657 8.04637L19.654 6.60858L17.5106 5.72378C16.8265 5.50258 16.0056 5.20765 15.2303 4.87585Z" fill="#F4F2E0"/>
<path d="M15.2303 9.8526L12.5395 10.0738H11.3994H10.396H8.75422H7.43165C6.83416 10.1139 6.26388 10.2932 5.78983 10.5899C5.65885 10.6686 5.56189 10.7786 5.51276 10.9044C5.46363 11.0301 5.46484 11.1652 5.5162 11.2904C5.55679 11.4043 5.63246 11.508 5.73616 11.5919C5.83985 11.6757 5.96817 11.7369 6.10909 11.7697C6.59366 11.8186 7.0839 11.8186 7.56848 11.7697H8.84544H10.6241H11.1713H11.673H12.8132L15.4127 11.5485H16.4616H17.465L19.3348 11.2535L22.3448 10.7005C24.0778 10.3687 25.1268 10.2213 25.1724 9.92633C25.218 9.6314 24.8987 9.63141 24.3971 9.48394C23.6822 9.33431 22.9464 9.25996 22.208 9.26274C21.1448 9.2106 20.0787 9.2106 19.0156 9.26274H17.1913L15.2303 9.8526Z" fill="#6EA527"/>
<path opacity="0.56" d="M15.2759 10.2584C13.9533 10.2584 12.6307 10.2585 11.445 10.6271H10.5785H9.84877H8.38938C7.64113 10.6617 6.90338 10.786 6.20028 10.9958C5.69861 10.9958 5.47059 11.4013 5.5162 11.5488C5.5618 11.6962 5.88105 11.5488 6.42832 11.5488H10.9889H11.8554L15.3671 11.2538C16.0352 11.29 16.7056 11.29 17.3737 11.2538L19.198 10.9958L22.2992 10.5534C24.0322 10.2953 25.1268 10.2216 25.1268 10.0373C25.1268 9.85293 24.0322 9.59486 22.1624 9.63173L19.0156 9.85292L17.1913 10.0373L15.2759 10.2584Z" fill="#B1BBC1"/>
<path d="M25.218 10.9218C22.3625 10.6047 19.4751 10.5182 16.5985 10.6637C14.9567 10.6637 14.4094 11.0692 14.4094 11.5485C14.4094 12.0278 15.0023 12.2121 16.5985 12.3227C18.1947 12.4333 20.8398 12.3227 25.0356 12.8388H26.1301H27.1334L29.0945 13.06L32.515 13.3918C34.476 13.3918 35.7074 13.3918 35.753 13.3918C35.7986 13.3918 34.6584 12.7651 32.7886 12.2489C31.8309 12.0277 30.7363 11.7328 29.4594 11.4748L27.4527 11.143H26.3582H25.218V10.9218Z" fill="#4B7229"/>
<path opacity="0.55" d="M25.218 11.2907C22.6915 11.0434 20.146 10.9448 17.6018 10.9957C15.6407 10.9957 14.4094 11.2538 14.4094 11.5487C14.4094 11.8437 15.8232 11.9174 17.8298 11.9911C19.8365 12.0649 22.3904 12.2492 25.0812 12.4704H27.2247L29.1857 12.7285C30.4171 12.7285 31.6028 13.0603 32.5606 13.134C34.476 13.3921 35.7074 13.3921 35.753 13.134C34.8197 12.702 33.8016 12.4027 32.743 12.2492L29.3681 11.5487L27.3615 11.2538C26.6468 11.2278 25.9307 11.2401 25.218 11.2907Z" fill="#F4F2E0"/>
<path style="mix-blend-mode:multiply" d="M36.7563 11.7696C36.7563 10.3318 33.3815 9.26268 29.3681 9.41015C25.3548 9.55761 22.208 10.8479 22.2536 12.2857C22.2992 13.7235 25.6285 14.7927 29.6418 14.6452C33.6551 14.4977 36.8475 13.2443 36.7563 11.7696Z" fill="url(#paint7_radial_36_12792)"/>
<path d="M28.7752 6.49787C25.3548 4.87574 23.2569 3.62229 21.8887 3.03243C20.5206 2.44256 19.8821 2.33196 19.4716 3.03243C19.0612 3.73289 19.4716 4.06469 20.475 4.94948C22.6641 6.31823 24.9992 7.52727 27.4527 8.56239C29.6007 9.58175 31.8791 10.4099 34.248 11.0324C36.0266 11.5117 37.2579 11.5486 37.3948 11.2536C37.5316 10.9587 36.5739 10.2951 34.9777 9.44719C33.3814 8.59927 31.238 7.67759 28.7752 6.49787Z" fill="#8CB63B"/>
<path opacity="0.69" d="M28.5473 6.94032C26.1301 5.79746 23.9867 4.65459 22.3905 3.80666C20.7942 2.95873 19.7453 2.55321 19.4717 2.84814C19.198 3.14307 20.1557 3.991 21.752 5.02326C23.6487 6.21456 25.6449 7.29854 27.7263 8.2675C29.8488 9.28256 32.0767 10.146 34.3848 10.8482C36.1634 11.3643 37.3036 11.5486 37.3948 11.3643C37.486 11.1799 36.4827 10.6269 34.8409 9.85275L28.5473 6.94032Z" fill="#E4EAEC"/>
<path d="M29.0033 13.1708L24.7619 13.4657C23.8187 13.5377 22.8867 13.6859 21.98 13.9081C21.4565 14.0223 20.9828 14.2521 20.6118 14.5717C20.5237 14.695 20.4774 14.8349 20.4774 14.9773C20.4774 15.1196 20.5237 15.2595 20.6118 15.3828C20.7193 15.6194 20.9301 15.8162 21.2047 15.9358C21.6391 16.0217 22.0928 16.0217 22.5273 15.9358H25.1268L29.4138 15.6408H30.3259H31.1924L32.7886 15.4196L35.525 14.8666C37.0756 14.4611 37.9877 14.0187 37.9421 13.6869C37.8965 13.3551 36.8475 13.1708 35.2513 13.1339C34.3252 13.0802 33.3955 13.0802 32.4694 13.1339H30.8275H29.961L29.0033 13.1708Z" fill="#6EA527"/>
<path d="M38.9454 8.3043C29.8242 4.61765 27.3615 3.32733 26.723 4.61765C26.0845 5.90798 28.456 6.79278 37.7597 10.7006C40.9977 12.0647 43.9621 13.1707 46.1511 13.908C48.3402 14.6453 49.8452 14.8665 49.9821 14.5716C50.1189 14.2767 49.0243 13.4287 47.0177 12.3227C44.4237 10.8602 41.7286 9.51851 38.9454 8.3043Z" fill="#477225"/>
<path style="mix-blend-mode:multiply" d="M37.2124 14.1661C37.2124 12.7284 33.7919 11.6592 29.8242 11.8067C25.8565 11.9542 22.6185 13.2076 22.7097 14.6823C22.8009 16.1569 26.0845 17.1892 30.0978 17.0417C34.1112 16.8943 37.258 15.6408 37.2124 14.1661Z" fill="url(#paint8_radial_36_12792)"/>
<path style="mix-blend-mode:multiply" d="M37.6684 12.2491C38.5349 11.0325 36.3915 8.56247 33.1078 6.71914C29.8242 4.87582 26.2213 4.43342 25.3548 5.65001C24.4883 6.86661 26.6318 9.33667 29.9154 11.2169C33.199 13.097 36.7563 13.5394 37.6684 12.2491Z" fill="url(#paint9_radial_36_12792)"/>
<path style="mix-blend-mode:multiply" d="M51.3502 16.2307C52.1255 14.9404 48.2946 11.9174 42.9131 9.48417C37.5316 7.05099 32.4693 6.09246 31.7396 7.38279C31.0099 8.67311 34.7952 11.6962 40.2223 14.1293C45.6494 16.5625 50.5749 17.5211 51.3502 16.2307Z" fill="url(#paint10_radial_36_12792)"/>
<path d="M35.6162 14.8667L29.4594 15.9358L25.6285 16.4888C24.9547 16.5502 24.2948 16.6866 23.6674 16.8944C23.4949 16.9518 23.347 17.0486 23.2416 17.1731C23.1363 17.2975 23.0782 17.4441 23.0745 17.5948C23.0589 17.7486 23.1033 17.9024 23.2014 18.0346C23.2996 18.1669 23.4466 18.271 23.6218 18.3322C24.2997 18.5595 25.0324 18.6603 25.7653 18.6271C27.1106 18.6151 28.4526 18.5165 29.7786 18.3322C31.5116 18.3322 33.5639 17.816 36.0722 17.4474H37.3492H37.9421H38.5349L40.9521 17.2261C42.3177 17.0915 43.6729 16.8946 45.011 16.6363C45.9624 16.4988 46.8842 16.2505 47.7473 15.899C48.3858 15.6409 48.7051 15.4197 48.6139 15.2354C48.5227 15.051 48.2034 15.0142 47.5193 14.9773H40.724H38.2613H37.6684H36.9843L35.6162 14.8667Z" fill="#8CB63B"/>
<path style="mix-blend-mode:multiply" d="M49.4804 14.1293C49.4804 12.6916 43.4148 11.9542 36.2546 12.4704C29.0945 12.9865 23.4394 14.6086 23.5762 16.157C23.713 17.7054 29.6418 18.3321 36.8019 17.816C43.9621 17.2999 49.6172 15.5671 49.4804 14.1293Z" fill="url(#paint11_radial_36_12792)"/>
<path d="M38.9453 13.0235L33.1078 12.5811L29.5505 12.2493C27.7263 12.2493 27.0422 12.4336 26.951 13.0603C26.8598 13.6871 27.407 14.0557 29.2313 14.3875C30.4327 14.6136 31.6516 14.7737 32.8798 14.8668L38.7173 15.3092H39.9487H41.0432L43.2323 15.5304C44.5014 15.6805 45.7809 15.7667 47.0632 15.7884C47.9689 15.8266 48.8764 15.752 49.754 15.5673C50.3925 15.3829 50.6661 15.1617 50.6661 15.0143C50.6661 14.8668 50.2556 14.7193 49.7084 14.6087L47.2912 14.0926L43.6428 13.2815L41.3625 12.9129H40.1311L38.9453 13.0235Z" fill="#457027"/>
<path style="mix-blend-mode:multiply" d="M48.7051 15.9358C49.1155 14.5349 44.5093 12.2492 38.3069 10.5902C32.1045 8.93119 26.8142 8.89433 26.3581 10.2953C25.9021 11.6962 30.5539 13.9819 36.7107 15.6409C42.8675 17.2999 48.249 17.3367 48.7051 15.9358Z" fill="url(#paint12_radial_36_12792)"/>
<path d="M39.3102 11.6959C30.9643 9.77888 28.5928 9.29962 28.2736 10.4793C27.9543 11.6591 30.1434 12.1015 38.6261 14.166C41.1266 14.7507 43.6704 15.2063 46.2423 15.53C48.249 15.7512 49.526 15.7144 49.6172 15.53C49.7084 15.3457 48.6139 14.6453 46.744 14.0185C44.3247 13.1269 41.8425 12.3513 39.3102 11.6959Z" fill="#4B7627"/>
<path opacity="0.88" d="M39.1734 12.249C36.3002 11.5854 33.6095 10.9587 31.6484 10.6269C29.6874 10.2951 28.3648 10.1845 28.2736 10.6269C28.1824 11.0693 29.5049 11.4748 31.5116 12.0278C33.5183 12.5808 36.0722 13.1707 38.7173 13.7605C41.3625 14.3504 44.3725 14.9771 46.3336 15.272C48.2946 15.567 49.5716 15.6776 49.6172 15.272C49.6628 14.8665 48.5226 14.6453 46.6528 14.0555C44.7829 13.4656 42.229 12.8389 39.1734 12.249Z" fill="#E2F0EC"/>
<path d="M48.6594 8.34129L44.0988 4.65464L42.229 3.36432V3.17999L41.8641 2.92193L41.2713 2.47952C40.7586 2.11657 40.1917 1.80694 39.5838 1.55786H39.3102H39.0822H38.6717C38.4971 1.61517 38.3522 1.71931 38.2613 1.8528C38.2613 1.8528 38.2613 2.03713 38.2613 2.11086C38.2392 2.22074 38.2392 2.33279 38.2613 2.44266C38.5566 3.03264 38.9902 3.57093 39.5383 4.02792L40.0399 4.54405L40.3592 4.80211C40.8152 5.24451 41.3625 5.68691 41.9554 6.20304L46.516 9.88969L48.3858 11.4381L50.21 12.8759C51.3502 13.7607 52.4447 14.5349 53.3569 15.1616C55.1811 16.4519 56.4581 17.1155 56.7317 16.8943C57.0053 16.6731 56.23 15.5302 54.725 13.945C53.9497 13.1339 53.0376 12.2123 51.9887 11.2169L50.3013 9.70536C49.9364 9.44729 49.3435 8.89428 48.6594 8.34129Z" fill="#6EA527"/>
<path opacity="0.95" d="M48.2946 8.56268C47.0176 7.49355 45.7862 6.53502 44.6461 5.65023L41.5905 3.25391C41.2013 2.92621 40.7737 2.62988 40.3135 2.36911L39.3558 1.74239C39.1752 1.60257 38.9764 1.47896 38.7629 1.37372C38.7629 1.37372 38.5349 1.37372 38.4437 1.37372C38.3525 1.37372 38.4437 1.37373 38.4437 1.74239C38.5291 2.01159 38.6846 2.26295 38.8997 2.47971C39.151 2.78776 39.4252 3.08324 39.7207 3.36451L40.2679 3.88064L40.8608 4.39677L41.2256 4.6917L41.9553 5.3553L43.5516 6.64562L46.9264 9.37374C49.4803 11.5489 51.8974 13.4659 53.6761 14.7931C55.4547 16.1203 56.5949 16.8945 56.7773 16.747C56.9597 16.5996 56.0476 15.5673 54.497 14.0189C52.9464 12.4705 50.8941 10.8853 48.2946 8.56268Z" fill="#F4F2E0"/>
<path style="mix-blend-mode:multiply" d="M50.3469 16.1201C50.9853 14.7929 46.8808 11.9173 41.2257 9.66843C35.5705 7.41958 30.2802 6.64539 29.6418 7.97258C29.0033 9.29977 33.0622 12.1754 38.763 14.4242C44.4637 16.6731 49.7084 17.4473 50.3469 16.1201Z" fill="url(#paint13_radial_36_12792)"/>
<path d="M45.1478 11.9543C42.4114 10.9957 40.1767 10.2584 38.3525 9.66854C36.5283 9.07868 35.1145 8.56255 34.0199 8.56255C31.8308 8.04642 30.9643 8.08328 30.7363 8.56255C30.5083 9.04181 31.1011 9.66854 33.1534 10.4796C34.1567 10.8851 35.5249 11.4013 37.3492 11.9911C39.1734 12.581 41.4081 13.3183 44.0988 14.3137L46.1055 15.0142L47.1088 15.3828L48.1122 15.6778L51.6694 16.8206L53.3112 17.2262L54.0409 17.4105H54.725L56.002 17.6317H56.5037H58.1911H58.5103L58.1455 17.4105H57.8718H57.5982H57.3702L56.8685 17.1893L55.3179 15.9358L54.6794 15.6778L53.9953 15.3828L52.5359 14.793L49.0699 13.3921L48.1578 13.0603L47.2 12.6547L45.1478 11.9543Z" fill="#8CB63B"/>
<path opacity="0.75" d="M44.9653 12.2492C41.2256 10.922 37.7596 9.81597 35.1601 9.07864C32.5605 8.34131 30.8731 8.00951 30.5995 8.34131C30.3258 8.6731 32.1957 9.48417 34.7952 10.4058L44.19 13.6501L46.1967 14.3505L47.2 14.7192L48.1577 15.051L51.715 16.2307L54.725 17.0418L55.9564 17.2999H56.458H56.6861H57.8718H57.4614H57.1877H57.2789H56.7773L55.6371 16.8943C54.7706 16.5625 53.8129 16.2307 52.764 15.7883L49.2979 14.4611L48.3402 14.1293L47.3825 13.7607L44.9653 12.2492Z" fill="#E4F0EE"/>
<path d="M47.7017 19.9542L43.1411 21.3919C42.1901 21.7067 41.2614 22.0636 40.3591 22.4611C38.991 23.1247 38.6717 23.6039 38.9453 24.1569C39.219 24.7099 39.8119 24.8205 41.2256 24.4887C41.9097 24.4887 42.8675 24.0463 44.0532 23.6777L48.6138 22.2767L49.5259 21.9818L50.438 21.65L52.1255 21.0601C53.1134 20.731 54.0732 20.3492 54.9986 19.9173C55.6686 19.6057 56.2824 19.2211 56.8229 18.7744C57.2333 18.4058 57.3246 18.1108 57.2333 17.9634C57.1421 17.8159 56.7773 17.9634 56.3212 17.9634L54.3146 18.2952L51.3046 18.9588L49.4803 19.438L48.5682 19.6961L47.7017 19.9542Z" fill="#45722B"/>
<path d="M62.022 12.5441C60.4714 11.0326 59.1489 9.8897 58.1455 8.85743L55.9108 6.75603C54.7251 5.72377 54.1322 5.42885 53.5393 5.79751C53.398 5.88814 53.2896 6.00786 53.2254 6.14411C53.1612 6.28035 53.1436 6.42806 53.1745 6.57171C53.3294 7.11244 53.6078 7.62506 53.9954 8.08323C54.691 8.9442 55.4526 9.76917 56.2757 10.5533C57.3246 11.5487 58.6472 12.6915 60.1522 14.2399L60.517 14.6086V14.7929L61.2011 15.5303L62.5693 17.0049C63.3305 17.8751 64.1852 18.6893 65.1232 19.4381C65.7694 19.9539 66.5072 20.3888 67.3123 20.7284C67.9052 20.9496 68.2701 20.9496 68.3613 20.7284C68.4525 20.5072 68.3613 20.286 67.9508 19.8805L66.5826 18.2215L64.7584 15.9358C64.3935 15.4197 63.9831 14.9035 63.527 14.3505L62.8429 13.5026V13.2814L62.022 12.5441Z" fill="#8CB63B"/>
<path d="M58.556 22.9035C56.9142 23.4934 55.546 23.9726 54.4515 24.415C53.5452 24.7481 52.6756 25.1428 51.8519 25.5947C50.6662 26.2952 50.3925 26.8113 50.7574 27.3275C51.1222 27.8436 51.6695 27.9173 52.9465 27.5487C54.2234 27.18 54.4059 27.0325 55.5004 26.6639L59.6505 25.1523L60.4715 24.8574L61.2924 24.5625L62.843 24.0095C63.7716 23.6936 64.6709 23.324 65.5337 22.9035C66.1625 22.6064 66.7315 22.2334 67.2211 21.7975C67.586 21.4657 67.6772 21.2076 67.586 21.0602C67.4948 20.9127 67.1755 21.0602 66.7195 21.0602C66.2634 21.0602 65.6249 21.0602 64.804 21.392L62.0221 21.9818L60.3346 22.4242L59.4681 22.6823L58.556 22.9035Z" fill="#49722F"/>
<path d="M56.1845 21.5026C53.9954 21.8344 52.1256 22.0925 50.6206 22.3874C49.4128 22.6097 48.2362 22.9308 47.1089 23.3459C46.4609 23.5524 45.8938 23.8963 45.4671 24.3413C45.3591 24.4655 45.3012 24.6135 45.3012 24.7653C45.3012 24.917 45.3591 25.0651 45.4671 25.1892C45.5452 25.3139 45.6618 25.4201 45.8056 25.4976C45.9495 25.5751 46.1156 25.6213 46.288 25.6316C46.876 25.6272 47.46 25.5527 48.021 25.4104L51.3502 24.7837C52.764 24.5256 54.5883 24.3044 56.8686 23.9358L61.4292 23.1984L64.9864 22.5349C67.0387 22.0925 68.2701 21.7238 68.2245 21.3551C68.1789 20.9865 66.9019 20.8021 64.7584 20.8021C63.7095 20.8021 62.4325 20.8021 61.0643 20.8021C59.4232 20.9639 57.7942 21.1978 56.1845 21.5026Z" fill="#6EA527"/>
<path opacity="0.58" d="M56.2756 21.9818L51.943 22.6454C50.7106 22.8652 49.4928 23.1359 48.2946 23.4564C47.4783 23.7063 46.6983 24.0277 45.9687 24.415C45.4214 24.759 45.1933 25.0171 45.2846 25.1892C45.2846 25.521 46.8808 25.1892 48.9331 24.673L52.5359 24.0832L56.5949 23.4564L61.1555 22.756L64.7583 22.203C66.8106 21.8712 68.0876 21.5763 68.042 21.3551C67.9963 21.1339 66.7194 21.0601 64.6215 21.1339C63.5726 21.1339 62.3412 21.1338 60.9274 21.3919C59.5136 21.65 57.8718 21.6868 56.2756 21.9818Z" fill="#F4F2E0"/>
<path d="M44.4181 18.1846C42.1834 18.4427 40.3136 18.6639 38.763 18.9588C37.5399 19.145 36.3467 19.4418 35.2057 19.8436C34.5601 20.0548 33.9828 20.3827 33.5183 20.8021C33.4103 20.9263 33.3524 21.0744 33.3524 21.2261C33.3524 21.3779 33.4103 21.5259 33.5183 21.6501C33.5825 21.7788 33.6883 21.8912 33.8247 21.9755C33.9611 22.0598 34.1231 22.113 34.2936 22.1293C34.894 22.1032 35.4898 22.0291 36.0722 21.9081L39.4015 21.3183C40.8608 21.0971 42.7307 20.9127 45.011 20.6178H46.2424H46.8352H47.3825L49.526 20.2123C50.8485 19.9542 52.0799 19.6962 53.0832 19.4381C55.1355 18.922 56.3669 18.4796 56.3213 18.1478C56.2757 17.816 54.9075 17.6685 52.8096 17.7054C51.7151 17.7054 50.4837 17.7054 49.0699 18.0003L46.8808 18.2584H46.3336H45.7863L44.4181 18.1846Z" fill="#6EA527"/>
<path style="mix-blend-mode:multiply" opacity="0.5" d="M57.1422 16.5992C54.9024 13.5703 52.0682 10.8559 48.7507 8.56235C45.9485 5.87035 42.6211 3.56657 38.8998 1.74207C41.1233 4.82343 43.9583 7.5884 47.2913 9.92641C50.0963 12.5753 53.425 14.8302 57.1422 16.5992Z" fill="url(#paint14_radial_36_12792)"/>
<path style="mix-blend-mode:multiply" opacity="0.5" d="M67.4491 22.2398C68.6349 21.5394 68.042 19.0325 66.1722 16.5993C64.3023 14.1661 61.6116 12.9126 60.6538 13.5025C59.6961 14.0924 60.061 16.7099 61.9764 19.1431C63.8919 21.5762 66.309 22.9403 67.4491 22.2398Z" fill="url(#paint15_radial_36_12792)"/>
<path opacity="0.67" d="M44.5093 18.6638L39.9487 19.2168C38.6975 19.4085 37.4634 19.6671 36.2546 19.9909C35.4154 20.2085 34.6173 20.5186 33.8831 20.9126C33.3358 21.2075 33.1078 21.4656 33.199 21.6499C33.2902 21.8343 34.7952 21.6499 36.8931 21.2075L40.4959 20.6545L44.6461 20.1384H45.8318H46.4247H46.972L49.1155 19.7329L52.7183 19.0693C54.7706 18.6638 56.0476 18.2951 56.002 18.1108C55.9564 17.9264 54.6338 17.8527 52.5359 18.1108C51.487 18.1108 50.21 18.2951 48.8418 18.4794L46.6528 18.7744H46.1055H45.5582L44.5093 18.6638Z" fill="#B1B9C1"/>
<path d="M59.1945 14.9775L54.1322 12.4337C52.8096 11.7701 51.7607 11.2539 50.9398 10.9221C49.3436 10.1848 48.6139 10.1479 48.2034 10.6641C47.793 11.1802 48.2034 11.7332 49.6172 12.6917C50.5936 13.3558 51.6302 13.9596 52.7184 14.4982C54.041 15.2355 55.7284 16.0834 57.7807 17.1157L58.8752 17.6687L59.8329 18.148L61.7028 19.1802C62.7759 19.7912 63.8871 20.3572 65.032 20.8761C65.824 21.2475 66.6872 21.5091 67.586 21.6503C68.2245 21.6503 68.6349 21.6503 68.6805 21.6503C68.7261 21.6503 68.6805 21.2447 67.9964 20.9129L66.081 19.5489L63.1622 17.4844C62.5693 17.0788 61.9764 16.6733 61.2923 16.2678L60.4714 15.5304L59.1945 14.9775Z" fill="#457027"/>
<path opacity="0.83" d="M58.9208 15.4195C56.1389 13.9817 53.5393 12.6914 51.6239 11.7329C49.7084 10.7743 48.4771 10.2951 48.2034 10.6269C47.9298 10.9587 49.1611 11.8435 51.0766 12.9494C52.992 14.0554 55.6372 15.3826 58.0543 16.6361L59.1032 17.1891L60.1066 17.6684L61.9764 18.7375C63.0165 19.3729 64.0974 19.9636 65.2144 20.5071C65.9853 20.895 66.8125 21.2046 67.6772 21.4287C68.2701 21.4287 68.6349 21.4287 68.6805 21.4287C68.7261 21.4287 68.4069 21.1707 67.9508 20.8757C67.4947 20.5808 66.7194 20.1753 65.8985 19.6223L62.8885 17.5946L61.0187 16.4518C60.6877 16.2343 60.3371 16.0372 59.9698 15.8619L58.9208 15.4195Z" fill="#E8EEF0"/>
<path style="mix-blend-mode:multiply" opacity="0.5" d="M58.1911 16.7468C54.0386 16.2277 49.7978 16.4161 45.7407 17.2998C41.5358 17.5201 37.4345 18.4494 33.7007 20.028C37.8251 20.5965 42.0513 20.4584 46.1055 19.6224C50.3374 19.3529 54.4534 18.3736 58.1911 16.7468Z" fill="url(#paint16_radial_36_12792)"/>
<path style="mix-blend-mode:multiply" opacity="0.5" d="M67.9052 21.4288C67.9052 20.8389 63.7551 21.4288 58.784 22.4979C53.813 23.567 50.3925 25.0785 50.575 25.6315C50.7574 26.1845 54.7707 25.6315 59.4681 24.5993C64.1655 23.567 68.1332 22.0186 67.9052 21.4288Z" fill="url(#paint17_radial_36_12792)"/>
<path style="mix-blend-mode:multiply" opacity="0.5" d="M57.6894 18.0003C57.6894 17.4104 53.4937 18.0003 48.5682 19.0694C43.6428 20.1386 40.1767 21.6501 40.3592 22.2031C40.5416 22.7561 44.5549 22.2031 49.2523 21.1708C53.9498 20.1385 57.8719 18.5902 57.6894 18.0003Z" fill="url(#paint18_radial_36_12792)"/>
<path style="mix-blend-mode:multiply" opacity="0.5" d="M66.6282 20.5072C63.3282 20.4811 60.0409 20.8412 56.8685 21.5763C53.5833 21.9662 50.3776 22.7101 47.3369 23.7883C50.6385 23.8363 53.9298 23.4757 57.0965 22.7192C60.3817 22.3293 63.5874 21.5854 66.6282 20.5072Z" fill="url(#paint19_radial_36_12792)"/>
<path style="mix-blend-mode:multiply" opacity="0.5" d="M56.3212 16.9311C53.149 14.5695 49.4287 12.74 45.3758 11.5486C41.7402 9.77267 37.686 8.63 33.4727 8.19373C36.6449 10.5553 40.3652 12.3848 44.4181 13.5762C48.0536 15.3521 52.1079 16.4948 56.3212 16.9311Z" fill="url(#paint20_radial_36_12792)"/>
<path style="mix-blend-mode:multiply" opacity="0.5" d="M68.4981 20.7654C65.4845 18.289 62.0436 16.178 58.2824 14.4981C54.8814 12.4127 51.1157 10.7478 47.1089 9.55798C50.1477 12.0576 53.6011 14.2041 57.3702 15.9359C60.7733 17.9694 64.5211 19.596 68.4981 20.7654Z" fill="url(#paint21_radial_36_12792)"/>
<path style="mix-blend-mode:color-dodge" d="M1.18365 3.29052C1.18365 3.88039 4.19365 5.13385 8.34379 6.01865C12.4939 6.90344 16.0512 7.1615 16.2336 6.57164C16.416 5.98177 13.2236 4.76519 9.07349 3.84353C4.92334 2.92187 1.5485 2.70066 1.18365 3.29052Z" fill="url(#paint22_radial_36_12792)"/>
<path style="mix-blend-mode:color-dodge" d="M8.70864 10.885C8.70864 11.5117 12.3115 11.7698 16.5985 11.4748C20.8854 11.1799 24.3515 10.4057 24.2603 9.77897C24.1691 9.15224 20.6574 8.93104 16.3704 9.22597C12.0835 9.5209 8.66304 10.2951 8.70864 10.885Z" fill="url(#paint23_radial_36_12792)"/>
<path style="mix-blend-mode:color-dodge" d="M15.4583 3.03256C15.0935 3.58556 18.6507 5.61321 23.3938 7.56713C28.1368 9.52106 32.2413 10.7008 32.5149 10.1478C32.7886 9.59479 29.3225 7.56713 24.5795 5.57634C19.8365 3.58556 15.8232 2.47957 15.4583 3.03256Z" fill="url(#paint24_radial_36_12792)"/>
<path style="mix-blend-mode:color-dodge" d="M24.4883 17.5578C24.4883 18.1845 27.9544 18.1108 31.8765 17.5578C35.7986 17.0048 38.8086 15.8619 38.6718 15.2352C38.535 14.6085 35.2057 14.6822 31.2836 15.2352C27.3615 15.7882 24.3515 16.9679 24.4883 17.5578Z" fill="url(#paint25_radial_36_12792)"/>
<path style="mix-blend-mode:color-dodge" d="M33.1078 21.0234C33.1078 21.6501 36.5739 21.5764 40.4504 21.0234C44.3269 20.4704 47.4281 19.2906 47.2457 18.7008C47.0633 18.1109 43.8253 18.1478 39.9031 18.7008C35.981 19.2538 33.1078 20.4335 33.1078 21.0234Z" fill="url(#paint26_radial_36_12792)"/>
<path style="mix-blend-mode:color-dodge" d="M39.6295 23.6775C39.9488 24.2673 42.9588 23.6775 46.3792 22.7927C49.7996 21.9079 52.3992 20.3595 52.1255 19.8065C51.8519 19.2535 48.8419 19.8065 45.3759 20.6913C41.9098 21.5761 39.3559 23.3088 39.6295 23.6775Z" fill="url(#paint27_radial_36_12792)"/>
<path style="mix-blend-mode:color-dodge" d="M40.2224 23.7145C40.2224 24.1938 42.1378 24.0094 43.9621 23.3459C45.7863 22.6823 46.9721 21.7975 46.7441 21.3182C46.516 20.8389 44.783 21.0233 43.0043 21.6869C41.2257 22.3505 39.9488 23.309 40.2224 23.7145Z" fill="url(#paint28_radial_36_12792)"/>
<path style="mix-blend-mode:color-dodge" d="M53.8586 6.09233C53.3569 6.38727 54.8619 8.70985 57.2334 11.2905C59.6049 13.8712 61.794 15.7145 62.4325 15.4195C63.071 15.1246 61.4292 12.7651 59.0576 10.1845C56.6861 7.60385 54.3602 5.76054 53.8586 6.09233Z" fill="url(#paint29_radial_36_12792)"/>
<path style="mix-blend-mode:color-dodge" d="M51.6239 26.9957C51.8975 27.4749 53.5849 27.2906 55.3636 26.627C57.1422 25.9634 58.4192 25.0786 58.1455 24.5993C57.8719 24.1201 56.2301 24.3044 54.4515 24.968C52.6728 25.6316 51.3503 26.5164 51.6239 26.9957Z" fill="url(#paint30_radial_36_12792)"/>
<path style="mix-blend-mode:multiply" d="M118.437 27.8066C116.977 24.5993 102.292 26.0002 85.6917 30.9034C69.0911 35.8067 56.7775 42.4426 58.3281 45.65C59.8787 48.8574 74.4726 47.4564 91.0732 42.5163C107.674 37.5762 119.759 31.014 118.437 27.8066Z" fill="url(#paint31_radial_36_12792)"/>
<path style="mix-blend-mode:multiply" d="M85.2812 35.9544C86.0109 36.9497 90.3435 36.1756 94.9953 34.2585C99.6471 32.3414 102.84 29.9083 102.11 28.9129C101.38 27.9175 96.9564 28.6917 92.3958 30.6824C87.8352 32.6732 84.5515 34.959 85.2812 35.9544Z" fill="url(#paint32_radial_36_12792)"/>
<path d="M68.0878 42.6271C71.3886 41.842 74.6318 40.9066 77.8018 39.8253C81.3878 38.8001 84.878 37.568 88.2456 36.1386C91.6204 34.7008 94.7673 33.0787 98.0053 31.4935C99.6927 30.6455 101.426 29.9082 103.204 29.1709C104.816 28.45 106.343 27.6108 107.765 26.664C107.765 26.4796 107.765 26.664 107.765 26.664C101.1 29.1083 94.6401 31.9038 88.428 35.0326C84.9314 36.5559 81.304 37.8742 77.5738 38.9773C76.16 39.4197 74.7006 39.7515 73.2869 40.2308C71.8731 40.7101 70.2769 41.2262 68.7263 41.6317C68.2717 41.7932 67.798 41.9167 67.3125 42.0004C67.3125 42.0004 67.3125 42.2216 67.3125 42.2953C67.0388 42.2953 67.0388 42.6271 67.3125 42.7009C67.2739 42.7159 67.2414 42.7395 67.2186 42.7689C67.1959 42.7982 67.1838 42.8321 67.1838 42.8668C67.1838 42.9014 67.1959 42.9353 67.2186 42.9647C67.2414 42.994 67.2739 43.0176 67.3125 43.0327C67.6171 42.9665 67.8883 42.8246 68.0878 42.6271Z" fill="#D5C68F"/>
<path d="M66.8564 42.2216H67.358C70.6521 41.4715 73.8818 40.5478 77.0265 39.4566C80.6305 38.4381 84.1365 37.2059 87.5159 35.7699C90.8451 34.2953 94.0375 32.71 97.2756 31.0879C98.9432 30.2543 100.663 29.4913 102.429 28.8022C103.25 28.4335 104.025 28.028 104.755 27.6224C98.963 29.7607 93.8095 32.5994 88.2 34.9957C84.7034 36.519 81.076 37.8373 77.3458 38.9404C75.932 39.3828 74.4726 39.7146 73.0588 40.1939C71.645 40.6732 70.0488 41.1893 68.4982 41.5948C68.0437 41.7563 67.57 41.8798 67.0844 41.9635C67.0844 41.9635 67.0844 42.1847 67.0844 42.2584C67.054 42.2363 67.0168 42.2212 66.9766 42.2147C66.9365 42.2082 66.895 42.2106 66.8564 42.2216Z" fill="#90964A"/>
<path d="M99.9663 26.4058C104.025 22.7191 105.12 21.6131 105.804 22.0924C106.488 22.5717 105.485 23.6039 101.243 27.4012C99.8295 28.7284 98.4157 29.8344 97.3668 30.6454C96.3178 31.4565 95.5425 31.8251 95.3601 31.6777C95.1777 31.5302 95.3601 30.9035 96.3634 29.9081C97.4806 28.6859 98.6835 27.5166 99.9663 26.4058Z" fill="#477225"/>
<path d="M109.088 29.65L114.104 28.6915C115.168 28.5031 116.218 28.2693 117.251 27.991C118.802 27.5486 119.258 27.1799 119.075 26.7375C118.893 26.2951 118.254 26.1846 116.658 26.3689C115.883 26.3689 114.834 26.6269 113.466 26.8481L108.312 27.7698C106.951 28.0364 105.611 28.3688 104.299 28.7652L102.611 29.3182L101.836 29.6131L101.198 29.8712C100.487 30.1297 99.814 30.4512 99.1911 30.8297C98.7806 31.1247 98.5982 31.3827 98.735 31.4933C98.8718 31.6039 99.0998 31.4933 99.6471 31.4933C100.401 31.4096 101.148 31.2865 101.882 31.1246L105.12 30.461L109.088 29.65Z" fill="#6EA527"/>
<path d="M111.368 23.9724C112.052 23.53 112.645 23.0876 113.146 22.7189L114.515 21.6867L115.062 21.2074H115.29L115.564 20.9862C115.834 20.7325 116.078 20.4613 116.293 20.1751C116.524 19.9014 116.708 19.6038 116.841 19.2903C116.863 19.1929 116.863 19.0929 116.841 18.9954C116.841 18.9954 116.841 18.9954 116.841 18.7742C116.841 18.553 116.841 18.7742 116.567 18.7742C116.418 18.7413 116.26 18.7413 116.111 18.7742C115.681 18.9649 115.295 19.2143 114.971 19.5115L114.287 20.1383H114.013L113.42 20.5807L112.052 21.6129C111.55 21.9816 111.003 22.3871 110.365 22.7927C108.586 23.9724 106.898 25.0046 105.804 25.8157C104.709 26.6268 103.98 27.2166 104.116 27.401C104.253 27.5853 105.257 27.401 106.625 26.7005C108.307 25.9119 109.895 24.9986 111.368 23.9724Z" fill="#477A27"/>
<path d="M113.283 25.8528L118.117 24.0094L121.173 22.9035C122.678 22.3505 123.134 21.9818 122.952 21.5394C122.769 21.097 122.04 20.9495 120.352 21.3182C119.247 21.5776 118.165 21.8979 117.114 22.2767L112.097 24.1201L111.596 24.3412H111.094L110.091 24.7468L108.267 25.521C107.081 26.0371 106.078 26.5164 105.211 26.9588C103.524 27.8436 102.611 28.544 102.748 28.7652C102.885 28.9864 104.162 28.7652 106.077 28.1754C106.99 27.8804 108.13 27.5486 109.361 27.1062L111.277 26.4426L113.283 25.8528Z" fill="#45742B"/>
<path d="M112.645 25.1155C114.762 24.1278 116.789 23.019 118.71 21.7975C119.759 21.0233 119.942 20.5809 119.577 20.2123C119.212 19.8436 118.619 19.8436 117.433 20.3966C116.248 20.9496 114.378 21.945 111.277 23.4565C109.423 24.3271 107.627 25.2746 105.895 26.2952C104.572 27.1063 103.843 27.733 104.025 27.9542C104.208 28.1754 105.257 27.9542 106.853 27.475C108.846 26.7924 110.78 26.0042 112.645 25.1155Z" fill="#8CB63B"/>
<path style="mix-blend-mode:multiply" d="M108.768 26.9958C109.498 27.9912 112.417 27.8069 115.335 26.5534C118.254 25.3 119.896 23.5304 119.258 22.535C118.619 21.5396 115.564 21.7239 112.69 22.9405C109.817 24.1571 108.039 25.8161 108.768 26.9958Z" fill="url(#paint33_radial_36_12792)"/>
<path style="mix-blend-mode:multiply" d="M105.348 26.9955C106.442 27.7697 109.088 26.9955 111.277 24.9678C113.466 22.9402 114.423 20.8388 113.329 20.0277C112.234 19.2167 109.635 20.0277 107.446 22.0554C105.257 24.083 104.299 26.1107 105.348 26.9955Z" fill="url(#paint34_radial_36_12792)"/>
<path style="mix-blend-mode:multiply" d="M97.3212 29.5025C98.4157 30.3136 101.061 29.5025 103.25 27.4748C105.439 25.4472 106.397 23.3458 105.302 22.5716C104.208 21.7974 101.608 22.5716 99.4191 24.5992C97.23 26.6269 96.2723 28.7283 97.3212 29.5025Z" fill="url(#paint35_radial_36_12792)"/>
<path opacity="0.33" d="M112.371 24.7839C114.23 23.9068 116.026 22.9468 117.753 21.9083C119.075 21.0972 119.805 20.4336 119.577 20.2124C119.349 19.9912 118.3 20.4336 116.795 21.1341C115.29 21.8346 113.42 22.8668 111.55 23.7516C109.68 24.6364 107.446 25.7793 106.078 26.5166C104.709 27.2539 103.934 27.8069 104.025 27.9544C104.116 28.1018 105.165 27.9544 106.67 27.2539C108.631 26.5253 110.535 25.7004 112.371 24.7839Z" fill="#E0ECF4"/>
<path style="mix-blend-mode:multiply" d="M103.067 27.733C103.478 28.8021 106.442 29.2445 109.68 28.6546C112.918 28.0648 115.244 26.7376 114.834 25.6684C114.423 24.5993 111.459 24.1201 108.221 24.7099C104.983 25.2998 102.657 26.627 103.067 27.733Z" fill="url(#paint36_radial_36_12792)"/>
<path style="mix-blend-mode:multiply" d="M88.7016 32.6362C89.1121 33.7422 95.2689 33.5947 102.383 32.3412C109.498 31.0878 115.016 29.1707 114.651 28.1016C114.287 27.0325 108.084 27.1431 100.97 28.3965C93.8551 29.65 88.2912 31.5302 88.7016 32.6362Z" fill="url(#paint37_radial_36_12792)"/>
<path d="M112.417 27.2168L116.977 25.9634C118.209 25.5947 119.166 25.3366 119.851 25.0786C121.264 24.5624 121.675 24.1938 121.447 23.7514C121.219 23.309 120.626 23.1984 119.121 23.4564L116.111 24.1569L111.55 25.4472L109.635 26.0002L107.856 26.5532C106.858 26.8904 105.883 27.2719 104.937 27.6961C103.296 28.4334 102.475 29.1339 102.657 29.3551C102.84 29.5763 103.98 29.3551 105.713 28.9495L108.768 28.2122L110.593 27.7698L111.55 27.5117L112.417 27.2168Z" fill="#8CB63B"/>
<path opacity="0.33" d="M112.234 26.9956C114.743 26.2583 117.205 25.6315 118.893 25.1154C120.58 24.5993 121.675 24.12 121.538 23.862C121.401 23.6039 120.078 23.862 118.254 24.1938C116.43 24.5256 113.967 25.226 111.641 25.8896L109.726 26.4795L107.947 26.9956C106.807 27.3643 105.804 27.6961 104.983 28.0279C103.341 28.7283 102.475 29.3182 102.566 29.4656C102.657 29.6131 103.752 29.4657 105.439 28.8021L108.495 28.0279L110.319 27.5486L112.234 26.9956Z" fill="#F4F2E0"/>
<path d="M108.768 24.0464C109.27 23.5671 109.772 23.1247 110.182 22.6823L110.729 22.0925L111.185 21.5395L112.052 20.7284L112.69 19.9911C112.985 19.689 113.188 19.3355 113.283 18.9588C113.299 18.8476 113.272 18.7352 113.207 18.6365C113.142 18.5378 113.041 18.4573 112.918 18.4058C112.821 18.3605 112.711 18.3367 112.599 18.3367C112.487 18.3367 112.377 18.3605 112.28 18.4058C111.934 18.5561 111.625 18.756 111.368 18.9957L110.638 19.6224C110.271 19.8921 109.935 20.1882 109.635 20.5072V20.8021L109.088 21.3551L107.719 22.7192L107.172 23.2353L106.67 23.7514L105.804 24.7468L104.481 26.4796C103.706 27.4381 103.204 28.0648 103.387 28.2123C103.569 28.3598 103.752 28.2123 104.162 28.2123C104.676 27.9797 105.151 27.6947 105.576 27.3644C106.186 26.8726 106.764 26.3558 107.309 25.816L108.267 24.8574L108.768 24.0464Z" fill="#6EA527"/>
<path opacity="0.56" d="M108.495 23.8251C109.175 23.2012 109.814 22.549 110.41 21.8712L110.821 21.4288C110.915 21.2792 111.038 21.1424 111.185 21.0233L111.961 20.286C112.364 19.9139 112.687 19.4903 112.918 19.0325C112.918 18.7007 112.918 18.4795 112.918 18.4058C112.918 18.332 112.599 18.4058 112.28 18.7376L111.003 19.7698L110.182 20.5072V20.7284L109.772 21.1707C109.224 21.7606 108.586 22.3505 107.993 22.9404L106.944 23.9726L106.077 24.968L104.618 26.6639C103.797 27.6224 103.25 28.1385 103.341 28.2491C103.432 28.3597 104.299 27.9911 105.302 27.1431C106.306 26.2952 106.397 26.1477 106.99 25.5579L107.902 24.5993L108.495 23.8251Z" fill="#B1BBC1"/>
<path d="M102.292 28.0648C104.151 26.9709 105.877 25.7365 107.446 24.3781C108.267 23.5302 108.403 23.1247 108.039 22.8666C107.674 22.6085 107.218 22.8666 106.26 23.4196C105.302 23.9726 103.706 25.2629 101.061 27.1062L100.377 27.5486L99.6927 27.991L98.4158 28.7652L96.2267 30.0924C94.9953 30.9035 94.3568 31.5302 94.4936 31.7145C94.6305 31.8989 95.5882 31.7145 97.002 31.0141L99.4647 29.9081L100.878 29.1708L101.563 28.7652L101.927 28.544L102.292 28.0648Z" fill="#4B7229"/>
<path opacity="0.55" d="M102.064 27.8066C103.665 26.7888 105.188 25.693 106.625 24.5255C107.719 23.567 108.267 22.8665 108.039 22.719C107.811 22.5716 106.99 23.1614 105.758 24.0094C104.527 24.8573 102.931 26.037 101.198 27.1061L99.8295 27.9541L98.5525 28.7283L96.2722 30.0186C95.0409 30.7928 94.3112 31.3458 94.4024 31.4564C94.4936 31.567 95.4057 31.1983 96.7739 30.5716C98.1421 29.9449 98.2789 29.908 99.191 29.4287L100.559 28.6914C101.083 28.4223 101.586 28.1268 102.064 27.8066Z" fill="#F4F2E0"/>
<path style="mix-blend-mode:multiply" d="M95.0409 32.8573C96.1354 33.6315 98.7806 32.8573 100.97 30.8297C103.159 28.802 104.116 26.7006 103.022 25.8896C101.927 25.0785 99.3278 25.8896 97.1387 27.9541C94.9497 30.0186 93.9919 32.0463 95.0409 32.8573Z" fill="url(#paint38_radial_36_12792)"/>
<path d="M103.341 32.2305C106.488 31.5669 108.54 31.3089 109.772 31.0508C111.003 30.7927 111.413 30.4978 111.277 30.0186C111.14 29.5393 110.638 29.355 109.361 29.3918C107.063 29.5347 104.788 29.8557 102.566 30.3504C100.623 30.7428 98.741 31.3117 96.9563 32.0462C95.5881 32.6361 94.8584 33.1522 94.9953 33.3734C95.1321 33.5946 96.1354 33.5577 97.6404 33.3734C99.1454 33.1891 101.152 32.6729 103.341 32.2305Z" fill="#8CB63B"/>
<path opacity="0.69" d="M103.204 31.8618C105.348 31.4194 107.4 31.0876 108.905 30.8296C110.41 30.5715 111.368 30.3134 111.277 30.0185C111.185 29.7236 110.045 29.6867 108.449 30.0185C106.527 30.2123 104.623 30.5079 102.748 30.9033C100.81 31.2987 98.918 31.8291 97.0931 32.4885C95.7249 33.0047 94.904 33.4102 94.9952 33.5577C95.0864 33.7051 96.0442 33.5577 97.5036 33.2627L103.204 31.8618Z" fill="#E4EAEC"/>
<path d="M98.5526 28.4704C99.4191 27.6594 100.194 26.9589 100.742 26.369C101.241 25.895 101.669 25.3753 102.019 24.8206C102.241 24.5187 102.367 24.1765 102.383 23.8253C102.362 23.7114 102.305 23.604 102.217 23.5135C102.129 23.423 102.014 23.3526 101.882 23.3091C101.771 23.2574 101.645 23.2301 101.517 23.2301C101.389 23.2301 101.263 23.2574 101.152 23.3091C100.816 23.4228 100.519 23.5998 100.286 23.8253L98.9174 25.1156L96.6827 27.217L96.1811 27.6962L95.7706 28.1755L95.0409 29.0603C94.583 29.5564 94.1859 30.0873 93.8552 30.6456C93.2167 31.5672 93.0343 32.2308 93.3079 32.4151C93.5815 32.5995 94.2656 32.1939 95.2233 31.4935C96.1811 30.793 96.2267 30.7193 96.7739 30.2031C97.0867 29.9501 97.3763 29.6791 97.6405 29.3921L98.0965 28.9497L98.5526 28.4704Z" fill="#6EA527"/>
<path d="M96.2266 35.8436C104.208 33.8896 106.442 33.3735 105.986 32.4518C105.53 31.5302 103.478 32.0095 95.3601 34.0371C92.5782 34.7376 90.0698 35.4749 88.2912 36.0648C86.5126 36.6546 85.5092 37.2076 85.6005 37.4288C85.6917 37.65 86.9686 37.65 88.9297 37.4288C91.4011 37.0259 93.8383 36.4964 96.2266 35.8436Z" fill="#477225"/>
<path style="mix-blend-mode:multiply" d="M93.1254 31.6776C94.1744 32.4887 96.8195 31.6776 99.0542 29.65C101.289 27.6223 102.155 25.521 101.106 24.7099C100.058 23.8988 97.4124 24.7099 95.1777 26.7744C92.943 28.8389 92.0765 30.8666 93.1254 31.6776Z" fill="url(#paint39_radial_36_12792)"/>
<path style="mix-blend-mode:multiply" d="M94.22 32.9309C94.6305 34.0368 97.5948 34.4792 100.833 33.9262C104.071 33.3733 106.442 32.0829 106.032 30.9769C105.621 29.8709 102.703 29.4285 99.4191 29.9815C96.1354 30.5345 93.8552 31.8249 94.22 32.9309Z" fill="url(#paint40_radial_36_12792)"/>
<path style="mix-blend-mode:multiply" d="M83.5482 36.9864C84.0498 38.0556 88.1088 38.0556 93.171 36.9864C98.2333 35.9173 101.563 34.1477 101.061 33.0786C100.559 32.0095 96.5003 31.9726 91.438 33.0786C86.3757 34.1846 83.2745 35.9173 83.5482 36.9864Z" fill="url(#paint41_radial_36_12792)"/>
<path d="M93.5359 30.6822L96.4547 27.3273C97.1844 26.4425 97.8228 25.7789 98.2333 25.2628C98.578 24.9114 98.869 24.5277 99.0998 24.1199C99.1806 24.0148 99.2235 23.8935 99.2235 23.7697C99.2235 23.6459 99.1806 23.5246 99.0998 23.4195C98.975 23.3612 98.8335 23.3306 98.6894 23.3306C98.5453 23.3306 98.4037 23.3612 98.2789 23.4195C97.751 23.6187 97.2721 23.8935 96.8651 24.2305C96.0927 24.865 95.3764 25.5425 94.7216 26.2582C93.9007 27.143 92.943 28.3227 91.7573 29.6499L91.1188 30.3504L90.8451 30.6453L90.5259 30.9771L89.3402 32.1937C88.6395 32.903 87.9849 33.6413 87.3791 34.4057C86.9562 34.9394 86.6046 35.5078 86.3301 36.1015C86.3301 36.5439 86.3301 36.802 86.3301 36.8757C86.3301 36.9495 86.7862 36.8757 87.151 36.5439L88.7929 35.2905L91.0732 33.4103L92.4413 32.2305L92.7606 31.8988L93.1254 31.5301L93.5359 30.6822Z" fill="#8CB63B"/>
<path style="mix-blend-mode:multiply" d="M86.1021 37.355C87.1966 38.0924 91.1187 35.8066 94.8584 32.2306C98.5981 28.6546 100.742 25.1154 99.6471 24.3412C98.5525 23.567 94.6304 25.8896 90.8907 29.4656C87.151 33.0417 85.0075 36.5808 86.1021 37.355Z" fill="url(#paint42_radial_36_12792)"/>
<path d="M92.943 33.1524L96.5459 30.7192C97.5036 30.0925 98.2333 29.5763 98.7806 29.1708C99.3278 28.7653 100.058 27.9173 99.6927 27.5487C99.3278 27.18 98.735 27.18 97.458 27.8067C96.6171 28.2328 95.8099 28.7006 95.0409 29.2077L91.3468 31.6408L90.5715 32.157L89.8874 32.5994C89.4313 32.9312 88.9297 33.1892 88.4736 33.4842C87.6384 33.9807 86.8461 34.5226 86.1021 35.1063C85.5342 35.4796 85.0683 35.9441 84.7339 36.4704C84.4603 36.839 84.4603 37.134 84.7339 37.2077C85.0075 37.2814 85.1444 37.2077 85.5548 36.9865L87.2879 36.1754L89.933 34.9588L91.5292 34.1478L92.3957 33.6316L92.943 33.1524Z" fill="#457027"/>
<path style="mix-blend-mode:multiply" d="M85.2812 35.9544C86.0109 36.9497 90.3435 36.1756 94.9953 34.2585C99.6471 32.3414 102.84 29.9083 102.11 28.9129C101.38 27.9175 96.9564 28.6917 92.3958 30.6824C87.8352 32.6732 84.5515 34.959 85.2812 35.9544Z" fill="url(#paint43_radial_36_12792)"/>
<path d="M93.6727 34.074C99.8295 31.3458 101.517 30.3873 100.878 29.6869C100.24 28.9864 98.6437 29.6869 92.3957 32.3781C90.5256 33.1853 88.7274 34.0969 87.0142 35.1062C85.6916 35.9173 85.0075 36.5071 85.19 36.7283C85.3724 36.9495 86.3757 36.7284 87.9263 36.286C89.8965 35.6454 91.8156 34.9066 93.6727 34.074Z" fill="#4B7627"/>
<path opacity="0.88" d="M93.3991 33.7423C95.4969 32.7837 97.5036 31.9358 98.8718 31.1985C100.24 30.4611 101.061 29.945 100.878 29.6869C100.696 29.4289 99.5559 29.6869 98.0053 30.3874C96.4546 31.0879 94.5392 31.8621 92.6237 32.71C90.7617 33.5086 88.9504 34.3822 87.1966 35.3275C85.8285 36.0648 85.0531 36.6178 85.19 36.7284C85.3268 36.839 86.2845 36.7284 87.7439 36.0648C89.2033 35.4012 91.2556 34.7008 93.3991 33.7423Z" fill="#E2F0EC"/>
<path d="M90.6171 40.3045C92.8062 40.3045 94.5392 40.3045 95.9074 40.3045H99.2366C99.7956 40.2775 100.348 40.1907 100.878 40.0465V39.8253C100.911 39.7674 100.928 39.7046 100.928 39.6409C100.928 39.5773 100.911 39.5145 100.878 39.4566C100.291 39.2403 99.6539 39.1272 99.0086 39.1248H86.2845C84.962 39.1248 83.8218 39.1248 82.8185 39.1248C80.903 39.1248 79.6717 39.4197 79.7173 39.6778C79.7629 39.9359 80.9486 40.2308 82.9097 40.452L86.3758 40.7469H88.428L90.6171 40.3045Z" fill="#6EA527"/>
<path opacity="0.95" d="M90.6171 39.9354H98.1877H99.5559H100.514H101.106H101.38C101.38 39.9354 101.38 39.9354 101.38 39.6405L100.605 39.4193H99.4647H94.4024C93.1254 39.4193 91.8029 39.4193 90.5259 39.4193C87.5159 39.4193 84.8252 39.4193 82.8641 39.4193C80.903 39.4193 79.6717 39.4193 79.7173 39.7142C79.7629 40.0092 80.9486 40.0829 82.9097 40.2304C84.8708 40.3778 87.8351 39.8617 90.6171 39.9354Z" fill="#F4F2E0"/>
<path style="mix-blend-mode:multiply" d="M84.1867 36.6177C84.7796 37.6868 89.1577 37.4287 94.0376 36.1016C98.9174 34.7744 102.429 32.8204 101.882 31.7513C101.335 30.6822 96.9107 30.9034 92.0309 32.2674C87.1511 33.6315 83.6394 35.5486 84.1867 36.6177Z" fill="url(#paint44_radial_36_12792)"/>
<path d="M90.1155 36.6177C92.3502 35.9172 94.1744 35.3274 95.6338 34.8112C97.0932 34.2951 98.1877 33.8896 99.0086 33.5209C100.605 32.8205 101.107 32.4149 100.833 31.9725C100.559 31.5301 99.8296 31.4933 98.0965 31.9725C97.23 32.1937 96.0899 32.5624 94.6305 33.0417L89.1121 34.8481L87.4703 35.3643L86.6494 35.5855L85.8285 35.8804L83.0009 36.8758L81.7696 37.355L81.2223 37.6131L80.7206 37.8343L79.8541 38.3136H79.4893H79.2613H78.9876H78.714H79.1244H79.9454H80.4014L81.3591 38.0555H81.9064H82.4993L83.7763 37.7237L86.7406 36.9495L87.5159 36.7283L88.3369 36.5071L90.1155 36.6177Z" fill="#8CB63B"/>
<path opacity="0.75" d="M89.9331 36.2861C92.9887 35.3276 95.7706 34.3322 97.7773 33.5949C99.784 32.8575 100.97 32.2308 100.833 31.9727C100.696 31.7147 99.1455 31.9727 96.9564 32.7101L89.2946 35.1801L87.6528 35.6962L86.8318 35.9543L86.0566 36.2124C85.0076 36.5442 84.0499 36.8391 83.1834 37.1709L80.8575 38.0557L79.991 38.4981H79.6261H79.3981H78.714H79.0788H79.6717H80.0822L81.0399 38.2032L83.7306 38.0557L86.6494 37.2078L87.4247 36.9866L88.2456 36.7285L89.9331 36.2861Z" fill="#E4F0EE"/>
<path d="M83.2746 33.1891C83.9131 32.0462 84.4147 31.0877 84.8252 30.2766C85.1549 29.6627 85.4441 29.0351 85.6917 28.3965C86.0109 27.4011 85.6917 26.9587 85.3269 26.7743C84.962 26.59 84.3235 26.7743 83.7763 27.6223C83.229 28.4702 83.1378 28.6177 82.6817 29.3919L81.0855 32.3043L80.7663 32.8942C80.7663 33.1154 80.7663 33.2997 80.447 33.5209L79.8997 34.6269C79.5648 35.2729 79.2904 35.9384 79.0788 36.6177C78.8903 37.0842 78.7679 37.5666 78.714 38.0555C78.714 38.461 78.714 38.6822 79.0788 38.6822C79.4437 38.6822 79.3981 38.6822 79.6261 38.3135L80.5382 37.1707C80.9031 36.6914 81.3591 36.1015 81.8152 35.4379C82.2713 34.7744 82.2713 34.7375 82.4993 34.332L82.8185 33.7421L83.2746 33.1891Z" fill="#45722B"/>
<path d="M80.0365 44.065C81.9976 44.065 83.5482 44.065 84.5971 44.323H87.5159C88.9297 44.323 89.477 44.323 89.5682 43.77C89.5938 43.6531 89.5721 43.5326 89.5064 43.4263C89.4407 43.3201 89.3345 43.2338 89.2033 43.1802C88.7385 42.9198 88.2096 42.7437 87.6527 42.664C86.6601 42.4896 85.6547 42.3664 84.6427 42.2954L80.0821 42.0004H79.17H78.2123L76.4337 41.7424C75.3778 41.6046 74.3107 41.5307 73.2413 41.5212C72.4982 41.5371 71.7614 41.6363 71.0522 41.8161C70.5961 41.8161 70.3681 42.1479 70.4137 42.2585C70.4593 42.3691 70.7785 42.2585 71.2346 42.5534L73.1957 42.8852L76.16 43.4751L77.9843 43.8069L78.9876 43.9912H79.5349L80.0365 44.065Z" fill="#8CB63B"/>
<path d="M74.7462 36.5074C75.2479 35.4014 75.7039 34.4798 76.0232 33.7424C76.2961 33.1301 76.5096 32.5014 76.6617 31.8622C76.6617 30.9037 76.6617 30.4982 76.0688 30.3507C75.4759 30.2033 75.1111 30.3507 74.7006 31.2355C74.2902 32.1203 74.199 32.194 73.8341 32.9314L72.5115 35.6964L72.2379 36.2493L71.9643 36.8023C71.9643 37.1341 71.645 37.5028 71.4626 37.8346C71.1561 38.4441 70.9121 39.073 70.7329 39.7148C70.6604 40.1799 70.6604 40.6506 70.7329 41.1157C70.7329 41.4844 70.7329 41.6687 71.0521 41.7056C71.3714 41.7425 71.417 41.7056 71.645 41.3738L72.5115 40.3047L73.6973 38.6825C73.6973 38.3876 74.1077 38.0189 74.3358 37.6503C74.4609 37.4734 74.5677 37.2884 74.655 37.0973C74.7031 36.9027 74.7336 36.7056 74.7462 36.5074Z" fill="#49722F"/>
<path d="M77.0721 36.2122C78.0754 34.9956 78.9875 34.0002 79.626 33.1523C80.1537 32.4582 80.6112 31.7308 80.9942 30.9772C81.1918 30.5535 81.2847 30.1026 81.2678 29.65C81.2456 29.5268 81.1832 29.4107 81.087 29.3135C80.9908 29.2163 80.8643 29.1416 80.7205 29.097C80.6044 29.0381 80.47 29.0069 80.3329 29.0069C80.1958 29.0069 80.0614 29.0381 79.9452 29.097C79.6111 29.3746 79.3201 29.6841 79.0787 30.0187C78.7595 30.4979 78.3034 31.0878 77.6649 31.8989C77.0265 32.7099 76.1143 33.6685 75.0654 34.9588L73.0587 37.3551L71.4625 39.3828C70.6416 40.5625 70.1856 41.3735 70.4592 41.5579C70.7328 41.7422 71.5993 41.2629 72.8307 40.2675C73.5546 39.72 74.2255 39.1284 74.8374 38.498C75.5671 38.0556 76.3424 37.097 77.0721 36.2122Z" fill="#6EA527"/>
<path opacity="0.58" d="M76.6616 35.9911C77.3457 35.1432 78.0754 34.369 78.6683 33.5948C79.2398 32.9089 79.7577 32.1947 80.2189 31.4565C80.5314 30.9448 80.7466 30.398 80.8574 29.8344C80.8574 29.392 80.8574 29.134 80.8574 29.0971C80.8574 29.0602 80.0365 29.8713 79.1244 31.051C78.6683 31.6409 78.121 32.3413 77.4825 33.0418C76.8441 33.7423 76.2056 34.5165 75.5671 35.2907L73.5604 37.687C72.9219 38.4243 72.3291 39.0879 71.873 39.6778C70.9609 40.8206 70.4136 41.558 70.596 41.6685C70.7785 41.7791 71.5538 41.2262 72.7395 40.2308C73.9253 39.2354 73.9709 39.0879 74.655 38.3874C75.3391 37.687 75.9775 36.8759 76.6616 35.9911Z" fill="#F4F2E0"/>
<path d="M86.1477 32.7098C87.2423 31.53 88.1544 30.5346 88.8385 29.6867C89.4157 29.0039 89.9047 28.2751 90.2979 27.5116C90.5176 27.0929 90.6114 26.6381 90.5715 26.1844C90.5634 26.0628 90.5116 25.9457 90.4225 25.8475C90.3335 25.7493 90.2109 25.6742 90.0698 25.6314C89.9558 25.568 89.8206 25.5341 89.6822 25.5341C89.5438 25.5341 89.4086 25.568 89.2945 25.6314C88.9717 25.9168 88.6817 26.2253 88.428 26.5531C88.0632 27.0323 87.6071 27.6222 86.923 28.4333C86.2389 29.2443 85.3268 30.2029 84.1867 31.4194L83.6394 32.083L83.3658 32.4148L83.0921 32.7098L82.18 33.9264C81.5871 34.7006 81.0398 35.401 80.6294 36.0278C79.8541 37.2443 79.4437 38.0923 79.7173 38.2766C79.9909 38.4609 80.8574 37.8711 82.0432 36.8757C83.2289 35.8803 83.2745 35.7328 84.0042 34.9955L85.0532 33.8526L85.3268 33.5577L85.6004 33.2628L86.1477 32.7098Z" fill="#6EA527"/>
<path style="mix-blend-mode:multiply" opacity="0.5" d="M79.9908 39.4567C83.4352 40.2114 87.0108 40.4979 90.5714 40.3046C94.0715 40.5722 97.6024 40.3603 101.015 39.6779C97.5692 38.9315 93.9928 38.6574 90.4346 38.8668C86.9369 38.5975 83.4082 38.7968 79.9908 39.4567Z" fill="url(#paint45_radial_36_12792)"/>
<path style="mix-blend-mode:multiply" opacity="0.5" d="M70.0488 40.968C70.0488 41.9265 72.0098 43.1062 74.6094 43.6223C77.2089 44.1385 79.7628 43.8067 79.9453 42.8482C80.1277 41.8896 78.0298 40.7468 75.3847 40.2306C72.7395 39.7145 70.2312 40.0463 70.0488 40.968Z" fill="url(#paint46_radial_36_12792)"/>
<path opacity="0.67" d="M85.7828 32.4889L87.9263 30.0925C88.5134 29.4275 89.032 28.7247 89.4769 27.9911C89.819 27.4699 90.0648 26.911 90.2066 26.3322C90.2066 25.9266 90.2066 25.6686 90.2066 25.6317C90.2066 25.5948 89.3857 26.369 88.428 27.5488C87.4702 28.7285 87.379 28.8391 86.7405 29.5395L84.6883 31.7515L84.141 32.3782L83.8674 32.71L83.5937 33.005L82.636 34.2216L81.0398 36.2861C80.1733 37.4658 79.7172 38.24 79.854 38.3506C79.9909 38.4612 80.8118 37.8345 81.9063 36.8022L83.7762 34.8852C84.141 34.5165 84.4602 34.111 84.8251 33.7054L85.0987 33.4105L85.3268 33.1156L85.7828 32.4889Z" fill="#B1B9C1"/>
<path d="M79.9453 41.3367L84.5059 40.4888L87.4247 39.8989C88.884 39.5302 89.3401 39.2353 89.2033 38.7929C89.0665 38.3505 88.4736 38.1293 86.923 38.2399C86.1933 38.2399 85.19 38.4242 83.913 38.6454L79.3524 39.4565H78.3947H77.4826L75.7039 39.7146C74.6405 39.8404 73.5891 40.0251 72.5571 40.2676C71.8439 40.4253 71.1664 40.6742 70.5504 41.0049C70.0944 41.263 69.9576 41.4842 70.0032 41.5948C70.0488 41.7054 70.4136 41.5948 70.9153 41.5948H73.0132H76.16C76.8026 41.5654 77.4423 41.5039 78.0754 41.4104H79.0788L79.9453 41.3367Z" fill="#457027"/>
<path opacity="0.83" d="M79.8085 40.9681L86.5125 39.7147C88.2912 39.346 89.3401 39.0511 89.2945 38.793C89.2489 38.5349 87.8807 38.4981 85.9653 38.793C84.0498 39.0879 81.6783 39.4935 79.3524 39.899L78.3947 40.0833H77.4369L75.6127 40.3414C74.4725 40.3414 73.378 40.6363 72.5115 40.8206C71.7966 40.9565 71.1066 41.1671 70.4592 41.4474C70.0488 41.6317 69.8207 41.816 69.8664 41.8898C69.912 41.9635 70.2312 41.8898 70.6873 41.8898L72.7851 41.7423L75.9319 41.5211H77.8018H78.8051L79.8085 40.9681Z" fill="#E8EEF0"/>
<path style="mix-blend-mode:multiply" opacity="0.5" d="M79.2612 39.8621C79.7628 40.1571 82.7728 37.4289 86.0109 33.816C89.2489 30.2031 91.5292 26.9957 91.0275 26.7008C90.5259 26.4059 87.5159 29.134 84.2778 32.7469C81.0398 36.3598 78.7139 39.5672 79.2612 39.8621Z" fill="url(#paint47_radial_36_12792)"/>
<path style="mix-blend-mode:multiply" opacity="0.5" d="M70.368 41.7422C70.8697 41.9634 72.8307 39.862 74.9286 37.0233C77.0265 34.1846 77.9386 31.6777 77.4369 31.4196C76.9353 31.1615 74.9286 33.2998 72.8763 36.1385C70.8241 38.9772 69.8663 41.4104 70.368 41.7422Z" fill="url(#paint48_radial_36_12792)"/>
<path style="mix-blend-mode:multiply" opacity="0.5" d="M78.7139 38.9035C79.2156 39.1616 81.1766 37.0602 83.2745 34.1846C85.3724 31.3091 86.2845 28.839 85.7828 28.6178C85.2812 28.3966 83.2745 30.4611 81.2222 33.2998C79.17 36.1385 78.1666 38.6455 78.7139 38.9035Z" fill="url(#paint49_radial_36_12792)"/>
<path style="mix-blend-mode:multiply" opacity="0.5" d="M71.7818 41.7422C73.694 40.234 75.3227 38.5075 76.616 36.6178C78.2522 34.7931 79.5719 32.7961 80.5382 30.6823C78.6037 32.1836 76.9588 33.9109 75.6583 35.8067C74.013 37.6208 72.7068 39.6207 71.7818 41.7422Z" fill="url(#paint50_radial_36_12792)"/>
<path style="mix-blend-mode:multiply" opacity="0.5" d="M80.2189 38.9033C83.6914 38.8016 87.1033 38.1372 90.2522 36.9494C93.5794 36.2525 96.6874 34.9963 99.3734 33.2628C95.8972 33.3427 92.4799 34.0082 89.3401 35.2167C86.0129 35.9135 82.9048 37.1697 80.2189 38.9033Z" fill="url(#paint51_radial_36_12792)"/>
<path style="mix-blend-mode:multiply" opacity="0.5" d="M70.5048 42.2953C73.9894 42.3437 77.4635 41.9709 80.8118 41.1893C84.2211 40.8406 87.5436 40.0697 90.6627 38.9036C87.1948 38.8796 83.7402 39.2519 80.4013 40.0095C76.9909 40.4103 73.6624 41.1791 70.5048 42.2953Z" fill="url(#paint52_radial_36_12792)"/>
<path style="mix-blend-mode:color-dodge" d="M121.356 21.4288C121.036 20.9864 118.346 21.7606 115.336 23.1615C112.326 24.5624 110.091 26.0371 110.41 26.4795C110.729 26.9219 113.42 26.1477 116.43 24.7468C119.44 23.3458 121.675 21.8712 121.356 21.4288Z" fill="url(#paint53_radial_36_12792)"/>
<path style="mix-blend-mode:color-dodge" d="M111.778 20.4703C111.322 20.1385 109.088 21.6132 106.853 23.7883C104.618 25.9634 103.159 27.9173 103.66 28.2491C104.162 28.5809 106.306 27.1063 108.586 24.9311C110.866 22.756 112.28 20.8021 111.778 20.4703Z" fill="url(#paint54_radial_36_12792)"/>
<path style="mix-blend-mode:color-dodge" d="M113.466 28.1014C113.466 27.6222 109.817 28.1014 105.713 29.1337C101.608 30.1659 98.4157 31.4194 98.5981 31.8987C98.7805 32.3779 102.247 31.8987 106.351 30.8664C110.456 29.8341 113.648 28.5807 113.466 28.1014Z" fill="url(#paint55_radial_36_12792)"/>
<path style="mix-blend-mode:color-dodge" d="M98.0053 23.8989C97.5036 23.6039 95.6338 25.1523 93.8551 27.3643C92.0765 29.5763 91.0732 31.5302 91.6204 31.7883C92.1677 32.0464 93.992 30.5348 95.7706 28.3597C97.5492 26.1846 98.5525 24.1569 98.0053 23.8989Z" fill="url(#paint56_radial_36_12792)"/>
<path style="mix-blend-mode:color-dodge" d="M90.5715 25.9633C90.0242 25.6684 88.1544 27.2168 86.4214 29.3919C84.6883 31.567 83.5938 33.5947 84.1411 33.8528C84.6883 34.1108 86.5126 32.5993 88.2912 30.3873C90.0698 28.1753 91.0732 26.2214 90.5715 25.9633Z" fill="url(#paint57_radial_36_12792)"/>
<path style="mix-blend-mode:color-dodge" d="M85.0076 27.3643C84.4603 27.1431 83.0009 28.7653 81.7695 31.051C80.5382 33.3367 80.0365 35.18 80.5838 35.4012C81.131 35.6224 82.5904 34.0003 83.8218 31.7146C85.0532 29.4289 85.6004 27.5487 85.0076 27.3643Z" fill="url(#paint58_radial_36_12792)"/>
<path style="mix-blend-mode:color-dodge" d="M84.6884 27.5854C84.1867 27.5854 83.3658 28.2859 82.7729 29.5025C82.18 30.7191 82.1344 31.8251 82.7729 31.9726C83.4114 32.12 84.0499 31.2352 84.6427 30.0186C85.2356 28.802 85.1444 27.7329 84.6884 27.5854Z" fill="url(#paint59_radial_36_12792)"/>
<path style="mix-blend-mode:color-dodge" d="M89.2489 43.991C89.2489 43.5854 86.8318 42.9587 83.6394 42.5532C80.447 42.1477 77.8474 42.1845 77.7562 42.5532C77.665 42.9218 80.2189 43.5854 83.3657 43.991C86.5126 44.3965 89.2033 44.3965 89.2489 43.991Z" fill="url(#paint60_radial_36_12792)"/>
<path style="mix-blend-mode:color-dodge" d="M75.7951 30.9772C75.3391 30.9772 74.4726 31.6776 73.9253 32.8942C73.378 34.1108 73.2868 35.1799 73.9253 35.3274C74.5638 35.4749 75.2479 34.627 75.7951 33.4104C76.3424 32.1938 76.2968 31.1246 75.7951 30.9772Z" fill="url(#paint61_radial_36_12792)"/>
<defs>
<radialGradient id="paint0_radial_36_12792" cx="0" cy="0" r="1" gradientUnits="userSpaceOnUse" gradientTransform="translate(46.2209 20.352) rotate(-167.922) scale(33.8865 7.54535)">
<stop stop-color="#596125"/>
<stop offset="0.61" stop-color="#C8CAB6"/>
<stop offset="0.94" stop-color="white"/>
</radialGradient>
<radialGradient id="paint1_radial_36_12792" cx="0" cy="0" r="1" gradientUnits="userSpaceOnUse" gradientTransform="translate(31.9722 19.6236) rotate(15.0805) scale(11.4719 2.76184)">
<stop offset="0.03" stop-color="#1B3600"/>
<stop offset="0.39" stop-color="#748564"/>
<stop offset="0.81" stop-color="#D7DCD3"/>
<stop offset="1" stop-color="white"/>
</radialGradient>
<radialGradient id="paint2_radial_36_12792" cx="0" cy="0" r="1" gradientUnits="userSpaceOnUse" gradientTransform="translate(6.54692 10.5199) rotate(15.0805) scale(7.16283 2.75911)">
<stop offset="0.03" stop-color="#1B3600"/>
<stop offset="0.39" stop-color="#748564"/>
<stop offset="0.81" stop-color="#D7DCD3"/>
<stop offset="1" stop-color="white"/>
</radialGradient>
<radialGradient id="paint3_radial_36_12792" cx="0" cy="0" r="1" gradientUnits="userSpaceOnUse" gradientTransform="translate(13.5045 6.91411) rotate(-2.89229) scale(7.38663 2.60571)">
<stop offset="0.03" stop-color="#1B3600"/>
<stop offset="0.39" stop-color="#748564"/>
<stop offset="0.81" stop-color="#D7DCD3"/>
<stop offset="1" stop-color="white"/>
</radialGradient>
<radialGradient id="paint4_radial_36_12792" cx="0" cy="0" r="1" gradientUnits="userSpaceOnUse" gradientTransform="translate(23.3409 10.0947) rotate(-2.89229) scale(7.38663 2.60571)">
<stop offset="0.03" stop-color="#1B3600"/>
<stop offset="0.39" stop-color="#748564"/>
<stop offset="0.81" stop-color="#D7DCD3"/>
<stop offset="1" stop-color="white"/>
</radialGradient>
<radialGradient id="paint5_radial_36_12792" cx="0" cy="0" r="1" gradientUnits="userSpaceOnUse" gradientTransform="translate(24.1536 10.4116) rotate(27.4593) scale(7.28183 2.6248)">
<stop offset="0.03" stop-color="#1B3600"/>
<stop offset="0.39" stop-color="#748564"/>
<stop offset="0.81" stop-color="#D7DCD3"/>
<stop offset="1" stop-color="white"/>
</radialGradient>
<radialGradient id="paint6_radial_36_12792" cx="0" cy="0" r="1" gradientUnits="userSpaceOnUse" gradientTransform="translate(29.2094 7.77509) rotate(27.111) scale(15.5551 2.62356)">
<stop offset="0.03" stop-color="#1B3600"/>
<stop offset="0.39" stop-color="#748564"/>
<stop offset="0.81" stop-color="#D7DCD3"/>
<stop offset="1" stop-color="white"/>
</radialGradient>
<radialGradient id="paint7_radial_36_12792" cx="0" cy="0" r="1" gradientUnits="userSpaceOnUse" gradientTransform="translate(29.1054 8.66766) rotate(-2.8923) scale(7.38663 2.60572)">
<stop offset="0.03" stop-color="#1B3600"/>
<stop offset="0.39" stop-color="#748564"/>
<stop offset="0.81" stop-color="#D7DCD3"/>
<stop offset="1" stop-color="white"/>
</radialGradient>
<radialGradient id="paint8_radial_36_12792" cx="0" cy="0" r="1" gradientUnits="userSpaceOnUse" gradientTransform="translate(29.4119 11.0498) rotate(-2.89229) scale(7.38663 2.60571)">
<stop offset="0.03" stop-color="#1B3600"/>
<stop offset="0.39" stop-color="#748564"/>
<stop offset="0.81" stop-color="#D7DCD3"/>
<stop offset="1" stop-color="white"/>
</radialGradient>
<radialGradient id="paint9_radial_36_12792" cx="0" cy="0" r="1" gradientUnits="userSpaceOnUse" gradientTransform="translate(40.2242 10.6834) rotate(27.4594) scale(7.27465 2.62221)">
<stop offset="0.03" stop-color="#1B3600"/>
<stop offset="0.39" stop-color="#748564"/>
<stop offset="0.81" stop-color="#D7DCD3"/>
<stop offset="1" stop-color="white"/>
</radialGradient>
<radialGradient id="paint10_radial_36_12792" cx="0" cy="0" r="1" gradientUnits="userSpaceOnUse" gradientTransform="translate(37.4276 11.2139) rotate(24.7934) scale(10.6657 2.61024)">
<stop offset="0.03" stop-color="#1B3600"/>
<stop offset="0.39" stop-color="#748564"/>
<stop offset="0.81" stop-color="#D7DCD3"/>
<stop offset="1" stop-color="white"/>
</radialGradient>
<radialGradient id="paint11_radial_36_12792" cx="0" cy="0" r="1" gradientUnits="userSpaceOnUse" gradientTransform="translate(41.1354 10.8047) rotate(-4.95008) scale(12.9713 2.6417)">
<stop offset="0.03" stop-color="#1B3600"/>
<stop offset="0.39" stop-color="#748564"/>
<stop offset="0.81" stop-color="#D7DCD3"/>
<stop offset="1" stop-color="white"/>
</radialGradient>
<radialGradient id="paint12_radial_36_12792" cx="0" cy="0" r="1" gradientUnits="userSpaceOnUse" gradientTransform="translate(31.9722 19.6236) rotate(15.0805) scale(11.4719 2.76184)">
<stop offset="0.03" stop-color="#1B3600"/>
<stop offset="0.39" stop-color="#748564"/>
<stop offset="0.81" stop-color="#D7DCD3"/>
<stop offset="1" stop-color="white"/>
</radialGradient>
<radialGradient id="paint13_radial_36_12792" cx="0" cy="0" r="1" gradientUnits="userSpaceOnUse" gradientTransform="translate(42.3836 9.62751) rotate(21.1371) scale(11.3697 2.58465)">
<stop offset="0.03" stop-color="#1B3600"/>
<stop offset="0.39" stop-color="#748564"/>
<stop offset="0.81" stop-color="#D7DCD3"/>
<stop offset="1" stop-color="white"/>
</radialGradient>
<radialGradient id="paint14_radial_36_12792" cx="0" cy="0" r="1" gradientUnits="userSpaceOnUse" gradientTransform="translate(43.6392 10.2243) rotate(38.951) scale(11.8459 1.15829)">
<stop offset="0.03" stop-color="#1B3600"/>
<stop offset="0.15" stop-color="#304817"/>
<stop offset="0.39" stop-color="#657752"/>
<stop offset="0.73" stop-color="#B9C1B1"/>
<stop offset="1" stop-color="white"/>
</radialGradient>
<radialGradient id="paint15_radial_36_12792" cx="0" cy="0" r="1" gradientUnits="userSpaceOnUse" gradientTransform="translate(58.7188 22.6712) rotate(54.1851) scale(5.51556 2.52377)">
<stop offset="0.03" stop-color="#1B3600"/>
<stop offset="0.15" stop-color="#304817"/>
<stop offset="0.39" stop-color="#657752"/>
<stop offset="0.73" stop-color="#B9C1B1"/>
<stop offset="1" stop-color="white"/>
</radialGradient>
<radialGradient id="paint16_radial_36_12792" cx="0" cy="0" r="1" gradientUnits="userSpaceOnUse" gradientTransform="translate(39.193 24.3152) rotate(-6.82912) scale(12.538 1.11023)">
<stop offset="0.03" stop-color="#1B3600"/>
<stop offset="0.15" stop-color="#304817"/>
<stop offset="0.39" stop-color="#657752"/>
<stop offset="0.73" stop-color="#B9C1B1"/>
<stop offset="1" stop-color="white"/>
</radialGradient>
<radialGradient id="paint17_radial_36_12792" cx="0" cy="0" r="1" gradientUnits="userSpaceOnUse" gradientTransform="translate(72.6578 24.2498) rotate(-14.3203) scale(9.03244 1.19627)">
<stop offset="0.03" stop-color="#1B3600"/>
<stop offset="0.15" stop-color="#304817"/>
<stop offset="0.39" stop-color="#657752"/>
<stop offset="0.73" stop-color="#B9C1B1"/>
<stop offset="1" stop-color="white"/>
</radialGradient>
<radialGradient id="paint18_radial_36_12792" cx="0" cy="0" r="1" gradientUnits="userSpaceOnUse" gradientTransform="translate(61.5746 20.6211) rotate(-14.3203) scale(9.03244 1.19627)">
<stop offset="0.03" stop-color="#1B3600"/>
<stop offset="0.15" stop-color="#304817"/>
<stop offset="0.39" stop-color="#657752"/>
<stop offset="0.73" stop-color="#B9C1B1"/>
<stop offset="1" stop-color="white"/>
</radialGradient>
<radialGradient id="paint19_radial_36_12792" cx="0" cy="0" r="1" gradientUnits="userSpaceOnUse" gradientTransform="translate(43.3044 47.124) rotate(-8.75337) scale(9.78702 0.736028)">
<stop offset="0.03" stop-color="#1B3600"/>
<stop offset="0.15" stop-color="#304817"/>
<stop offset="0.39" stop-color="#657752"/>
<stop offset="0.73" stop-color="#B9C1B1"/>
<stop offset="1" stop-color="white"/>
</radialGradient>
<radialGradient id="paint20_radial_36_12792" cx="0" cy="0" r="1" gradientUnits="userSpaceOnUse" gradientTransform="translate(49.8539 21.6216) rotate(21.2071) scale(12.352 1.20803)">
<stop offset="0.03" stop-color="#1B3600"/>
<stop offset="0.15" stop-color="#304817"/>
<stop offset="0.39" stop-color="#657752"/>
<stop offset="0.73" stop-color="#B9C1B1"/>
<stop offset="1" stop-color="white"/>
</radialGradient>
<radialGradient id="paint21_radial_36_12792" cx="0" cy="0" r="1" gradientUnits="userSpaceOnUse" gradientTransform="translate(53.994 20.1589) rotate(27.7981) scale(12.0001 0.875305)">
<stop offset="0.03" stop-color="#1B3600"/>
<stop offset="0.15" stop-color="#304817"/>
<stop offset="0.39" stop-color="#657752"/>
<stop offset="0.73" stop-color="#B9C1B1"/>
<stop offset="1" stop-color="white"/>
</radialGradient>
<radialGradient id="paint22_radial_36_12792" cx="0" cy="0" r="1" gradientUnits="userSpaceOnUse" gradientTransform="translate(12.7283 7.28832) rotate(-166.995) scale(7.56862 1.18539)">
<stop stop-color="#4D4731"/>
<stop offset="0.22" stop-color="#49432F"/>
<stop offset="0.44" stop-color="#3E3927"/>
<stop offset="0.65" stop-color="#2A271B"/>
<stop offset="0.86" stop-color="#0F0E0A"/>
<stop offset="0.96"/>
</radialGradient>
<radialGradient id="paint23_radial_36_12792" cx="0" cy="0" r="1" gradientUnits="userSpaceOnUse" gradientTransform="translate(6.33896 11.8936) rotate(175.797) scale(7.73642 1.13096)">
<stop stop-color="#4D4731"/>
<stop offset="0.22" stop-color="#49432F"/>
<stop offset="0.44" stop-color="#3E3927"/>
<stop offset="0.65" stop-color="#2A271B"/>
<stop offset="0.86" stop-color="#0F0E0A"/>
<stop offset="0.96"/>
</radialGradient>
<radialGradient id="paint24_radial_36_12792" cx="0" cy="0" r="1" gradientUnits="userSpaceOnUse" gradientTransform="translate(22.3968 12.8154) rotate(-156.353) scale(9.20051 1.32185)">
<stop stop-color="#4D4731"/>
<stop offset="0.22" stop-color="#49432F"/>
<stop offset="0.44" stop-color="#3E3927"/>
<stop offset="0.65" stop-color="#2A271B"/>
<stop offset="0.86" stop-color="#0F0E0A"/>
<stop offset="0.96"/>
</radialGradient>
<radialGradient id="paint25_radial_36_12792" cx="0" cy="0" r="1" gradientUnits="userSpaceOnUse" gradientTransform="translate(38.4123 17.5902) rotate(170.816) scale(7.10528 1.17545)">
<stop stop-color="#4D4731"/>
<stop offset="0.22" stop-color="#49432F"/>
<stop offset="0.44" stop-color="#3E3927"/>
<stop offset="0.65" stop-color="#2A271B"/>
<stop offset="0.86" stop-color="#0F0E0A"/>
<stop offset="0.96"/>
</radialGradient>
<radialGradient id="paint26_radial_36_12792" cx="0" cy="0" r="1" gradientUnits="userSpaceOnUse" gradientTransform="translate(47.3889 21.2844) rotate(170.816) scale(7.10527 1.17545)">
<stop stop-color="#4D4731"/>
<stop offset="0.22" stop-color="#49432F"/>
<stop offset="0.44" stop-color="#3E3927"/>
<stop offset="0.65" stop-color="#2A271B"/>
<stop offset="0.86" stop-color="#0F0E0A"/>
<stop offset="0.96"/>
</radialGradient>
<radialGradient id="paint27_radial_36_12792" cx="0" cy="0" r="1" gradientUnits="userSpaceOnUse" gradientTransform="translate(29.6997 31.1993) rotate(162.549) scale(6.63457 1.19008)">
<stop stop-color="#4D4731"/>
<stop offset="0.22" stop-color="#49432F"/>
<stop offset="0.44" stop-color="#3E3927"/>
<stop offset="0.65" stop-color="#2A271B"/>
<stop offset="0.86" stop-color="#0F0E0A"/>
<stop offset="0.96"/>
</radialGradient>
<radialGradient id="paint28_radial_36_12792" cx="0" cy="0" r="1" gradientUnits="userSpaceOnUse" gradientTransform="translate(37.8422 16.7036) rotate(159.173) scale(3.41756 0.843438)">
<stop stop-color="#2E2A1D"/>
<stop offset="0.29" stop-color="#2A271B"/>
<stop offset="0.56" stop-color="#1F1C13"/>
<stop offset="0.84" stop-color="#0B0A07"/>
<stop offset="0.96"/>
</radialGradient>
<radialGradient id="paint29_radial_36_12792" cx="0" cy="0" r="1" gradientUnits="userSpaceOnUse" gradientTransform="translate(56.5416 13.1464) rotate(-132.546) scale(6.39118 1.10297)">
<stop stop-color="#2E2A1D"/>
<stop offset="0.29" stop-color="#2A271B"/>
<stop offset="0.56" stop-color="#1F1C13"/>
<stop offset="0.84" stop-color="#0B0A07"/>
<stop offset="0.96"/>
</radialGradient>
<radialGradient id="paint30_radial_36_12792" cx="0" cy="0" r="1" gradientUnits="userSpaceOnUse" gradientTransform="translate(48.4296 19.3894) rotate(159.173) scale(3.42585 0.845486)">
<stop stop-color="#4D4731"/>
<stop offset="0.22" stop-color="#49432F"/>
<stop offset="0.44" stop-color="#3E3927"/>
<stop offset="0.65" stop-color="#2A271B"/>
<stop offset="0.86" stop-color="#0F0E0A"/>
<stop offset="0.96"/>
</radialGradient>
<radialGradient id="paint31_radial_36_12792" cx="0" cy="0" r="1" gradientUnits="userSpaceOnUse" gradientTransform="translate(87.8698 37.4185) rotate(-16.2257) scale(31.1111 6.23231)">
<stop stop-color="#596125"/>
<stop offset="0.61" stop-color="#C8CAB6"/>
<stop offset="0.94" stop-color="white"/>
</radialGradient>
<radialGradient id="paint32_radial_36_12792" cx="0" cy="0" r="1" gradientUnits="userSpaceOnUse" gradientTransform="translate(73.887 39.0828) rotate(157.132) scale(9.30084 2.24434)">
<stop offset="0.03" stop-color="#1B3600"/>
<stop offset="0.39" stop-color="#748564"/>
<stop offset="0.81" stop-color="#D7DCD3"/>
<stop offset="1" stop-color="white"/>
</radialGradient>
<radialGradient id="paint33_radial_36_12792" cx="0" cy="0" r="1" gradientUnits="userSpaceOnUse" gradientTransform="translate(107.536 16.1884) rotate(157.992) scale(5.62639 2.23401)">
<stop offset="0.03" stop-color="#1B3600"/>
<stop offset="0.39" stop-color="#748564"/>
<stop offset="0.81" stop-color="#D7DCD3"/>
<stop offset="1" stop-color="white"/>
</radialGradient>
<radialGradient id="paint34_radial_36_12792" cx="0" cy="0" r="1" gradientUnits="userSpaceOnUse" gradientTransform="translate(106.966 26.8705) rotate(138.592) scale(5.46465 2.36174)">
<stop offset="0.03" stop-color="#1B3600"/>
<stop offset="0.39" stop-color="#748564"/>
<stop offset="0.81" stop-color="#D7DCD3"/>
<stop offset="1" stop-color="white"/>
</radialGradient>
<radialGradient id="paint35_radial_36_12792" cx="0" cy="0" r="1" gradientUnits="userSpaceOnUse" gradientTransform="translate(98.8755 29.5648) rotate(138.592) scale(5.46465 2.36174)">
<stop offset="0.03" stop-color="#1B3600"/>
<stop offset="0.39" stop-color="#748564"/>
<stop offset="0.81" stop-color="#D7DCD3"/>
<stop offset="1" stop-color="white"/>
</radialGradient>
<radialGradient id="paint36_radial_36_12792" cx="0" cy="0" r="1" gradientUnits="userSpaceOnUse" gradientTransform="translate(103.009 15.1523) rotate(171.381) scale(6.0297 2.19626)">
<stop offset="0.03" stop-color="#1B3600"/>
<stop offset="0.39" stop-color="#748564"/>
<stop offset="0.81" stop-color="#D7DCD3"/>
<stop offset="1" stop-color="white"/>
</radialGradient>
<radialGradient id="paint37_radial_36_12792" cx="0" cy="0" r="1" gradientUnits="userSpaceOnUse" gradientTransform="translate(98.3774 35.4974) rotate(169.532) scale(13.2618 2.2087)">
<stop offset="0.03" stop-color="#1B3600"/>
<stop offset="0.39" stop-color="#748564"/>
<stop offset="0.81" stop-color="#D7DCD3"/>
<stop offset="1" stop-color="white"/>
</radialGradient>
<radialGradient id="paint38_radial_36_12792" cx="0" cy="0" r="1" gradientUnits="userSpaceOnUse" gradientTransform="translate(96.4793 33.0461) rotate(138.592) scale(5.46465 2.36174)">
<stop offset="0.03" stop-color="#1B3600"/>
<stop offset="0.39" stop-color="#748564"/>
<stop offset="0.81" stop-color="#D7DCD3"/>
<stop offset="1" stop-color="white"/>
</radialGradient>
<radialGradient id="paint39_radial_36_12792" cx="0" cy="0" r="1" gradientUnits="userSpaceOnUse" gradientTransform="translate(94.5962 31.8122) rotate(138.592) scale(5.46465 2.36174)">
<stop offset="0.03" stop-color="#1B3600"/>
<stop offset="0.39" stop-color="#748564"/>
<stop offset="0.81" stop-color="#D7DCD3"/>
<stop offset="1" stop-color="white"/>
</radialGradient>
<radialGradient id="paint40_radial_36_12792" cx="0" cy="0" r="1" gradientUnits="userSpaceOnUse" gradientTransform="translate(94.5766 23.4138) rotate(171.381) scale(6.03708 2.19894)">
<stop offset="0.03" stop-color="#1B3600"/>
<stop offset="0.39" stop-color="#748564"/>
<stop offset="0.81" stop-color="#D7DCD3"/>
<stop offset="1" stop-color="white"/>
</radialGradient>
<radialGradient id="paint41_radial_36_12792" cx="0" cy="0" r="1" gradientUnits="userSpaceOnUse" gradientTransform="translate(106.739 48.1057) rotate(166.178) scale(8.83617 1.93526)">
<stop offset="0.03" stop-color="#1B3600"/>
<stop offset="0.39" stop-color="#748564"/>
<stop offset="0.81" stop-color="#D7DCD3"/>
<stop offset="1" stop-color="white"/>
</radialGradient>
<radialGradient id="paint42_radial_36_12792" cx="0" cy="0" r="1" gradientUnits="userSpaceOnUse" gradientTransform="translate(107.066 25.8184) rotate(135.346) scale(9.42816 2.38068)">
<stop offset="0.03" stop-color="#1B3600"/>
<stop offset="0.39" stop-color="#748564"/>
<stop offset="0.81" stop-color="#D7DCD3"/>
<stop offset="1" stop-color="white"/>
</radialGradient>
<radialGradient id="paint43_radial_36_12792" cx="0" cy="0" r="1" gradientUnits="userSpaceOnUse" gradientTransform="translate(73.887 39.0828) rotate(157.132) scale(9.30084 2.24434)">
<stop offset="0.03" stop-color="#1B3600"/>
<stop offset="0.39" stop-color="#748564"/>
<stop offset="0.81" stop-color="#D7DCD3"/>
<stop offset="1" stop-color="white"/>
</radialGradient>
<radialGradient id="paint44_radial_36_12792" cx="0" cy="0" r="1" gradientUnits="userSpaceOnUse" gradientTransform="translate(81.8535 36.2903) rotate(164.919) scale(9.26137 2.03578)">
<stop offset="0.03" stop-color="#1B3600"/>
<stop offset="0.39" stop-color="#748564"/>
<stop offset="0.81" stop-color="#D7DCD3"/>
<stop offset="1" stop-color="white"/>
</radialGradient>
<radialGradient id="paint45_radial_36_12792" cx="0" cy="0" r="1" gradientUnits="userSpaceOnUse" gradientTransform="translate(94.3567 43.8187) rotate(180) scale(10.4584 0.603871)">
<stop offset="0.03" stop-color="#1B3600"/>
<stop offset="0.15" stop-color="#304817"/>
<stop offset="0.39" stop-color="#657752"/>
<stop offset="0.73" stop-color="#B9C1B1"/>
<stop offset="1" stop-color="white"/>
</radialGradient>
<radialGradient id="paint46_radial_36_12792" cx="0" cy="0" r="1" gradientUnits="userSpaceOnUse" gradientTransform="translate(54.1637 52.9779) rotate(-170.173) scale(5.30058 1.84653)">
<stop offset="0.03" stop-color="#1B3600"/>
<stop offset="0.15" stop-color="#304817"/>
<stop offset="0.39" stop-color="#657752"/>
<stop offset="0.73" stop-color="#B9C1B1"/>
<stop offset="1" stop-color="white"/>
</radialGradient>
<radialGradient id="paint47_radial_36_12792" cx="0" cy="0" r="1" gradientUnits="userSpaceOnUse" gradientTransform="translate(109.673 19.6099) rotate(131.977) scale(8.93528 0.959239)">
<stop offset="0.03" stop-color="#1B3600"/>
<stop offset="0.15" stop-color="#304817"/>
<stop offset="0.39" stop-color="#657752"/>
<stop offset="0.73" stop-color="#B9C1B1"/>
<stop offset="1" stop-color="white"/>
</radialGradient>
<radialGradient id="paint48_radial_36_12792" cx="0" cy="0" r="1" gradientUnits="userSpaceOnUse" gradientTransform="translate(31.8213 72.5084) rotate(123.221) scale(6.12076 1.10013)">
<stop offset="0.03" stop-color="#1B3600"/>
<stop offset="0.15" stop-color="#304817"/>
<stop offset="0.39" stop-color="#657752"/>
<stop offset="0.73" stop-color="#B9C1B1"/>
<stop offset="1" stop-color="white"/>
</radialGradient>
<radialGradient id="paint49_radial_36_12792" cx="0" cy="0" r="1" gradientUnits="userSpaceOnUse" gradientTransform="translate(40.9827 69.0267) rotate(123.221) scale(6.12076 1.10013)">
<stop offset="0.03" stop-color="#1B3600"/>
<stop offset="0.15" stop-color="#304817"/>
<stop offset="0.39" stop-color="#657752"/>
<stop offset="0.73" stop-color="#B9C1B1"/>
<stop offset="1" stop-color="white"/>
</radialGradient>
<radialGradient id="paint50_radial_36_12792" cx="0" cy="0" r="1" gradientUnits="userSpaceOnUse" gradientTransform="translate(115.693 22.4404) rotate(129.513) scale(7.02747 0.479093)">
<stop offset="0.03" stop-color="#1B3600"/>
<stop offset="0.15" stop-color="#304817"/>
<stop offset="0.39" stop-color="#657752"/>
<stop offset="0.73" stop-color="#B9C1B1"/>
<stop offset="1" stop-color="white"/>
</radialGradient>
<radialGradient id="paint51_radial_36_12792" cx="0" cy="0" r="1" gradientUnits="userSpaceOnUse" gradientTransform="translate(89.6055 24.9866) rotate(164.367) scale(10.072 0.971763)">
<stop offset="0.03" stop-color="#1B3600"/>
<stop offset="0.15" stop-color="#304817"/>
<stop offset="0.39" stop-color="#657752"/>
<stop offset="0.73" stop-color="#B9C1B1"/>
<stop offset="1" stop-color="white"/>
</radialGradient>
<radialGradient id="paint52_radial_36_12792" cx="0" cy="0" r="1" gradientUnits="userSpaceOnUse" gradientTransform="translate(70.1751 46.0534) rotate(169.816) scale(10.2338 0.659593)">
<stop offset="0.03" stop-color="#1B3600"/>
<stop offset="0.15" stop-color="#304817"/>
<stop offset="0.39" stop-color="#657752"/>
<stop offset="0.73" stop-color="#B9C1B1"/>
<stop offset="1" stop-color="white"/>
</radialGradient>
<radialGradient id="paint53_radial_36_12792" cx="0" cy="0" r="1" gradientUnits="userSpaceOnUse" gradientTransform="translate(115.683 39.393) rotate(-25.0797) scale(5.95075 0.863551)">
<stop stop-color="#4D4731"/>
<stop offset="0.22" stop-color="#49432F"/>
<stop offset="0.44" stop-color="#3E3927"/>
<stop offset="0.65" stop-color="#2A271B"/>
<stop offset="0.86" stop-color="#0F0E0A"/>
<stop offset="0.96"/>
</radialGradient>
<radialGradient id="paint54_radial_36_12792" cx="0" cy="0" r="1" gradientUnits="userSpaceOnUse" gradientTransform="translate(110.358 -1.43463) rotate(-44.4678) scale(5.5649 1.08707)">
<stop stop-color="#4D4731"/>
<stop offset="0.22" stop-color="#49432F"/>
<stop offset="0.44" stop-color="#3E3927"/>
<stop offset="0.65" stop-color="#2A271B"/>
<stop offset="0.86" stop-color="#0F0E0A"/>
<stop offset="0.96"/>
</radialGradient>
<radialGradient id="paint55_radial_36_12792" cx="0" cy="0" r="1" gradientUnits="userSpaceOnUse" gradientTransform="translate(111.865 24.3587) rotate(-13.9677) scale(7.60011 0.958588)">
<stop stop-color="#4D4731"/>
<stop offset="0.22" stop-color="#49432F"/>
<stop offset="0.44" stop-color="#3E3927"/>
<stop offset="0.65" stop-color="#2A271B"/>
<stop offset="0.86" stop-color="#0F0E0A"/>
<stop offset="0.96"/>
</radialGradient>
<radialGradient id="paint56_radial_36_12792" cx="0" cy="0" r="1" gradientUnits="userSpaceOnUse" gradientTransform="translate(120.004 38.1868) rotate(-51.3245) scale(4.9933 0.950973)">
<stop stop-color="#4D4731"/>
<stop offset="0.22" stop-color="#49432F"/>
<stop offset="0.44" stop-color="#3E3927"/>
<stop offset="0.65" stop-color="#2A271B"/>
<stop offset="0.86" stop-color="#0F0E0A"/>
<stop offset="0.96"/>
</radialGradient>
<radialGradient id="paint57_radial_36_12792" cx="0" cy="0" r="1" gradientUnits="userSpaceOnUse" gradientTransform="translate(113.012 40.3483) rotate(-51.3245) scale(4.9933 0.950974)">
<stop stop-color="#4D4731"/>
<stop offset="0.22" stop-color="#49432F"/>
<stop offset="0.44" stop-color="#3E3927"/>
<stop offset="0.65" stop-color="#2A271B"/>
<stop offset="0.86" stop-color="#0F0E0A"/>
<stop offset="0.96"/>
</radialGradient>
<radialGradient id="paint58_radial_36_12792" cx="0" cy="0" r="1" gradientUnits="userSpaceOnUse" gradientTransform="translate(50.1956 4.94254) rotate(-59.7944) scale(4.5107 1.21135)">
<stop stop-color="#4D4731"/>
<stop offset="0.22" stop-color="#49432F"/>
<stop offset="0.44" stop-color="#3E3927"/>
<stop offset="0.65" stop-color="#2A271B"/>
<stop offset="0.86" stop-color="#0F0E0A"/>
<stop offset="0.96"/>
</radialGradient>
<radialGradient id="paint59_radial_36_12792" cx="0" cy="0" r="1" gradientUnits="userSpaceOnUse" gradientTransform="translate(64.2847 36.1104) rotate(-64.3087) scale(2.45219 0.927572)">
<stop stop-color="#2E2A1D"/>
<stop offset="0.29" stop-color="#2A271B"/>
<stop offset="0.56" stop-color="#1F1C13"/>
<stop offset="0.84" stop-color="#0B0A07"/>
<stop offset="0.96"/>
</radialGradient>
<radialGradient id="paint60_radial_36_12792" cx="0" cy="0" r="1" gradientUnits="userSpaceOnUse" gradientTransform="translate(81.9597 42.5819) rotate(7.27373) scale(5.8178 0.749891)">
<stop stop-color="#2E2A1D"/>
<stop offset="0.29" stop-color="#2A271B"/>
<stop offset="0.56" stop-color="#1F1C13"/>
<stop offset="0.84" stop-color="#0B0A07"/>
<stop offset="0.96"/>
</radialGradient>
<radialGradient id="paint61_radial_36_12792" cx="0" cy="0" r="1" gradientUnits="userSpaceOnUse" gradientTransform="translate(54.9135 39.6872) rotate(-64.3087) scale(2.45218 0.92757)">
<stop stop-color="#4D4731"/>
<stop offset="0.22" stop-color="#49432F"/>
<stop offset="0.44" stop-color="#3E3927"/>
<stop offset="0.65" stop-color="#2A271B"/>
<stop offset="0.86" stop-color="#0F0E0A"/>
<stop offset="0.96"/>
</radialGradient>
</defs>
</svg>
