<svg width="78" height="104" viewBox="0 0 78 104" fill="none" xmlns="http://www.w3.org/2000/svg">
<rect x="0.5" y="0.621094" width="76.521" height="102" rx="5.5" fill="#035238" stroke="#C6C6C6"/>
<path d="M70.0454 18.0105C57.4595 25.6114 46.8989 36.1441 39.2647 48.7099C32.0764 60.3182 27.6745 72.5246 26.059 85.3291H34.9875C37.1128 71.8827 42.3679 59.1238 50.3291 48.0811C53.5035 43.7208 57.0514 39.645 60.9326 35.9V59.2105H51.8361C50.2115 61.9352 48.8761 64.8222 47.8516 67.8245H60.9326V85.3291H70.0454V18.0105ZM31.4421 47.913C30.8248 45.2687 29.8336 42.726 28.4985 40.3615C26.0626 36.2307 22.4125 33.0593 17.548 30.8475V85.3291H8.13159V18.0105C12.9997 18.0105 18.54 20.0597 24.7525 24.158C30.9651 28.2563 35.7139 33.4497 37.9474 38.475C35.7356 41.1421 32.7974 45.0507 31.4421 47.913Z" fill="white"/>
</svg>
