<svg width="42" height="42" viewBox="0 0 42 42" fill="none" xmlns="http://www.w3.org/2000/svg">
<path d="M21 41.8333C32.5062 41.8333 41.8333 32.5062 41.8333 21C41.8333 9.49371 32.5062 0.166626 21 0.166626C9.49373 0.166626 0.166645 9.49371 0.166645 21C0.166645 32.5062 9.49373 41.8333 21 41.8333Z" fill="#21644D"/>
<path d="M24.1875 13.6457C24.0444 13.4922 23.8719 13.3691 23.6802 13.2837C23.4886 13.1983 23.2817 13.1524 23.0719 13.1487C22.8621 13.145 22.6537 13.1836 22.4591 13.2622C22.2646 13.3407 22.0878 13.4577 21.9395 13.6061C21.7911 13.7545 21.6741 13.9312 21.5955 14.1258C21.5169 14.3203 21.4783 14.5287 21.4821 14.7385C21.4858 14.9483 21.5317 15.1552 21.6171 15.3469C21.7025 15.5385 21.8256 15.711 21.9791 15.8541L25.5624 19.4374H12.6666C12.2522 19.4374 11.8548 19.602 11.5618 19.8951C11.2687 20.1881 11.1041 20.5855 11.1041 20.9999C11.1041 21.4143 11.2687 21.8117 11.5618 22.1048C11.8548 22.3978 12.2522 22.5624 12.6666 22.5624H25.5624L21.9791 26.1457C21.8256 26.2888 21.7025 26.4613 21.6171 26.653C21.5317 26.8446 21.4858 27.0515 21.4821 27.2613C21.4783 27.4711 21.5169 27.6795 21.5955 27.8741C21.6741 28.0686 21.7911 28.2454 21.9395 28.3937C22.0878 28.5421 22.2646 28.6591 22.4591 28.7377C22.6537 28.8163 22.8621 28.8548 23.0719 28.8511C23.2817 28.8474 23.4886 28.8015 23.6802 28.7161C23.8719 28.6307 24.0444 28.5076 24.1875 28.3541L30.4375 22.1041C30.7301 21.8111 30.8944 21.414 30.8944 20.9999C30.8944 20.5859 30.7301 20.1887 30.4375 19.8957L24.1875 13.6457Z" fill="white"/>
</svg>
