<svg width="42" height="42" viewBox="0 0 42 42" fill="none" xmlns="http://www.w3.org/2000/svg">
<path d="M21 41.8333C9.49374 41.8333 0.166656 32.5062 0.166656 21C0.166656 9.49371 9.49374 0.166626 21 0.166626C32.5062 0.166626 41.8333 9.49371 41.8333 21C41.8333 32.5062 32.5062 41.8333 21 41.8333Z" fill="#21644D"/>
<path d="M17.8125 13.6457C17.9555 13.4922 18.128 13.3691 18.3197 13.2837C18.5114 13.1983 18.7183 13.1524 18.9281 13.1487C19.1379 13.145 19.3463 13.1836 19.5408 13.2622C19.7354 13.3407 19.9121 13.4577 20.0605 13.6061C20.2089 13.7545 20.3258 13.9312 20.4044 14.1258C20.483 14.3203 20.5216 14.5287 20.5179 14.7385C20.5142 14.9483 20.4683 15.1552 20.3829 15.3469C20.2975 15.5385 20.1743 15.711 20.0208 15.8541L16.4375 19.4374H29.3333C29.7477 19.4374 30.1452 19.602 30.4382 19.8951C30.7312 20.1881 30.8958 20.5855 30.8958 20.9999C30.8958 21.4143 30.7312 21.8117 30.4382 22.1048C30.1452 22.3978 29.7477 22.5624 29.3333 22.5624H16.4375L20.0208 26.1457C20.1743 26.2888 20.2975 26.4613 20.3829 26.653C20.4683 26.8446 20.5142 27.0515 20.5179 27.2613C20.5216 27.4711 20.483 27.6795 20.4044 27.8741C20.3258 28.0686 20.2089 28.2454 20.0605 28.3937C19.9121 28.5421 19.7354 28.6591 19.5408 28.7377C19.3463 28.8163 19.1379 28.8548 18.9281 28.8511C18.7183 28.8474 18.5114 28.8015 18.3197 28.7161C18.128 28.6307 17.9555 28.5076 17.8125 28.3541L11.5625 22.1041C11.2699 21.8111 11.1055 21.414 11.1055 20.9999C11.1055 20.5859 11.2699 20.1887 11.5625 19.8957L17.8125 13.6457Z" fill="white"/>
</svg>
