<svg width="41" height="41" viewBox="0 0 41 41" fill="none" xmlns="http://www.w3.org/2000/svg">
<g clip-path="url(#clip0_3_34)">
<circle cx="20.5" cy="20.5" r="20.5" fill="#DADADA" fill-opacity="0.47"/>
<path d="M22.0933 8.2205C23.51 8.2 24.916 8.21025 26.3219 8.2C26.4084 9.76823 27.0032 11.3672 28.2145 12.4742C29.4258 13.6119 31.1345 14.1347 32.8 14.3089V18.4396C31.2427 18.3884 29.6745 18.0809 28.2578 17.4454C27.6413 17.1789 27.0681 16.8406 26.5057 16.4921C26.4949 19.4851 26.5166 22.4781 26.4841 25.4608C26.3976 26.8958 25.9001 28.3205 25.0241 29.4992C23.6074 31.4672 21.1524 32.7484 18.6325 32.7894C17.086 32.8714 15.5395 32.4717 14.22 31.7337C12.0354 30.514 10.4997 28.2795 10.2726 25.881C10.251 25.3685 10.2402 24.856 10.2618 24.3538C10.4565 22.4063 11.4731 20.5408 13.052 19.2699C14.8473 17.7939 17.3564 17.0866 19.7032 17.5069C19.7248 19.0239 19.6599 20.5408 19.6599 22.0578C18.5892 21.7298 17.3347 21.8221 16.3938 22.4371C15.7125 22.8573 15.1934 23.5031 14.923 24.2308C14.6959 24.7535 14.7608 25.3275 14.7716 25.881C15.0312 27.562 16.7399 28.9765 18.5568 28.8227C19.7681 28.8125 20.9253 28.1462 21.5525 27.1725C21.758 26.8343 21.9851 26.4858 21.9959 26.086C22.1041 24.2513 22.0608 22.4268 22.0716 20.5921C22.0825 16.4614 22.0608 12.3409 22.0933 8.2205Z" fill="white"/>
</g>
<defs>
<clipPath id="clip0_3_34">
<rect width="41" height="41" fill="white"/>
</clipPath>
</defs>
</svg>
