<svg width="245" height="281" viewBox="0 0 245 281" fill="none" xmlns="http://www.w3.org/2000/svg">
<path fill-rule="evenodd" clip-rule="evenodd" d="M258.589 0L244.5 244.502L230.411 0H258.589ZM244.5 244.502L309.087 8.27458L281.522 2.41315L244.5 244.502ZM244.5 244.502L331.025 15.403L356.768 26.8711L244.5 244.502ZM244.5 244.502L486.063 204.921L489 232.965L244.5 244.502ZM244.5 244.502L376.725 38.4079L399.522 54.9832L244.5 244.502ZM244.5 244.502L416.669 70.4221L435.526 91.373L244.5 244.502ZM244.5 244.502L463.162 134.457L449.073 110.045L244.5 244.502ZM244.5 244.502L486.053 284.092L488.99 256.051L244.5 244.502ZM244.5 244.502L472.551 155.539L481.259 182.354L244.5 244.502ZM244.5 244.502L449.073 378.959L463.165 354.543L244.5 244.502ZM244.5 244.502L472.551 333.461L481.259 306.646L244.5 244.502ZM244.5 244.502L399.531 434.02L376.735 450.592L244.5 244.502ZM244.5 244.502L435.526 397.627L416.669 418.581L244.5 244.502ZM244.5 244.502L331.018 473.597L356.762 462.129L244.5 244.502ZM244.5 244.502L309.087 480.712L281.522 486.59L244.5 244.502ZM244.5 244.502L179.91 480.725L207.474 486.603L244.5 244.502ZM244.5 244.502L258.592 489H230.411L244.5 244.502ZM244.5 244.502L89.4784 434.02L112.268 450.592L244.5 244.502ZM244.5 244.502L132.232 462.129L157.975 473.597L244.5 244.502ZM244.5 244.502L25.838 354.546L39.927 378.962L244.5 244.502ZM244.5 244.502L72.3282 418.581L53.471 397.627L244.5 244.502ZM244.5 244.502L16.4486 155.539L7.74129 182.354L244.5 244.502ZM244.5 244.502L7.74129 306.646L16.4486 333.461L244.5 244.502ZM244.5 244.502L2.93725 284.092L0 256.038L244.5 244.502ZM244.5 244.502L207.474 2.41315L179.91 8.2909L244.5 244.502ZM244.5 244.502L0 232.965L2.93725 204.921L244.5 244.502ZM157.978 15.403L244.5 244.502L132.235 26.8711L157.978 15.403ZM244.5 244.502L72.3282 70.4221L53.471 91.373L244.5 244.502ZM244.5 244.502L112.268 38.4079L89.4687 54.9832L244.5 244.502ZM39.9172 110.045L244.5 244.502L25.8282 134.46L39.9172 110.045Z" fill="url(#paint0_radial_20_3238)" fill-opacity="0.29"/>
<defs>
<radialGradient id="paint0_radial_20_3238" cx="0" cy="0" r="1" gradientUnits="userSpaceOnUse" gradientTransform="translate(230.31 236.204) rotate(-171.264) scale(186.853)">
<stop stop-color="#FFDE32" stop-opacity="0.39"/>
<stop offset="1" stop-color="#FFDE32" stop-opacity="0"/>
</radialGradient>
</defs>
</svg>
